%TF.GenerationSoftware,KiCad,Pcbnew,7.0.8*%
%TF.CreationDate,2023-11-11T12:02:06+01:00*%
%TF.ProjectId,Rhapsody_IQ,52686170-736f-4647-995f-49512e6b6963,rev?*%
%TF.SameCoordinates,Original*%
%TF.FileFunction,Drillmap*%
%TF.FilePolarity,Positive*%
%FSLAX45Y45*%
G04 Gerber Fmt 4.5, Leading zero omitted, Abs format (unit mm)*
G04 Created by KiCad (PCBNEW 7.0.8) date 2023-11-11 12:02:06*
%MOMM*%
%LPD*%
G01*
G04 APERTURE LIST*
%ADD10C,0.100000*%
%ADD11C,0.200000*%
%ADD12C,0.040000*%
%ADD13C,0.060000*%
%ADD14C,0.076200*%
%ADD15C,0.080000*%
%ADD16C,0.320000*%
G04 APERTURE END LIST*
D10*
X11695600Y-11180500D02*
X10604126Y-11176000D01*
X19317074Y-10871200D02*
X19316700Y-3162487D01*
X19012274Y-11176004D02*
G75*
G03*
X19317074Y-10871200I-4J304804D01*
G01*
X19316703Y-3162487D02*
G75*
G03*
X19011900Y-2857687I-304803J-3D01*
G01*
X10604126Y-2857306D02*
G75*
G03*
X10299326Y-3162113I4J-304804D01*
G01*
X15125600Y-11180500D02*
X19012274Y-11176000D01*
X10299330Y-10871200D02*
G75*
G03*
X10604126Y-11176000I304800J0D01*
G01*
X10299326Y-10871200D02*
X10299326Y-3162113D01*
X10299326Y-10871200D02*
X10299326Y-10871200D01*
X19011900Y-2857687D02*
X10604126Y-2857313D01*
D11*
D12*
X10368600Y-3929700D02*
X10408600Y-3969700D01*
X10408600Y-3929700D02*
X10368600Y-3969700D01*
X10368600Y-4159887D02*
X10408600Y-4199888D01*
X10408600Y-4159887D02*
X10368600Y-4199888D01*
X10368600Y-4390075D02*
X10408600Y-4430075D01*
X10408600Y-4390075D02*
X10368600Y-4430075D01*
X10368600Y-4620263D02*
X10408600Y-4660263D01*
X10408600Y-4620263D02*
X10368600Y-4660263D01*
X10368600Y-4850450D02*
X10408600Y-4890450D01*
X10408600Y-4850450D02*
X10368600Y-4890450D01*
X10368600Y-5080638D02*
X10408600Y-5120638D01*
X10408600Y-5080638D02*
X10368600Y-5120638D01*
X10368600Y-5310825D02*
X10408600Y-5350825D01*
X10408600Y-5310825D02*
X10368600Y-5350825D01*
X10368600Y-5541013D02*
X10408600Y-5581013D01*
X10408600Y-5541013D02*
X10368600Y-5581013D01*
X10368600Y-5771200D02*
X10408600Y-5811200D01*
X10408600Y-5771200D02*
X10368600Y-5811200D01*
X10368600Y-6001387D02*
X10408600Y-6041387D01*
X10408600Y-6001387D02*
X10368600Y-6041387D01*
X10368600Y-6231575D02*
X10408600Y-6271575D01*
X10408600Y-6231575D02*
X10368600Y-6271575D01*
X10368600Y-6461762D02*
X10408600Y-6501762D01*
X10408600Y-6461762D02*
X10368600Y-6501762D01*
X10368600Y-6691950D02*
X10408600Y-6731950D01*
X10408600Y-6691950D02*
X10368600Y-6731950D01*
X10368600Y-6922137D02*
X10408600Y-6962137D01*
X10408600Y-6922137D02*
X10368600Y-6962137D01*
X10368600Y-7152325D02*
X10408600Y-7192325D01*
X10408600Y-7152325D02*
X10368600Y-7192325D01*
X10368600Y-7382512D02*
X10408600Y-7422512D01*
X10408600Y-7382512D02*
X10368600Y-7422512D01*
X10368600Y-7612700D02*
X10408600Y-7652700D01*
X10408600Y-7612700D02*
X10368600Y-7652700D01*
X10368600Y-7842887D02*
X10408600Y-7882887D01*
X10408600Y-7842887D02*
X10368600Y-7882887D01*
X10368600Y-8073075D02*
X10408600Y-8113075D01*
X10408600Y-8073075D02*
X10368600Y-8113075D01*
X10368600Y-8303262D02*
X10408600Y-8343262D01*
X10408600Y-8303262D02*
X10368600Y-8343262D01*
X10368600Y-8533450D02*
X10408600Y-8573450D01*
X10408600Y-8533450D02*
X10368600Y-8573450D01*
X10368600Y-8763638D02*
X10408600Y-8803638D01*
X10408600Y-8763638D02*
X10368600Y-8803638D01*
X10368600Y-8993825D02*
X10408600Y-9033825D01*
X10408600Y-8993825D02*
X10368600Y-9033825D01*
X10368600Y-9224013D02*
X10408600Y-9264013D01*
X10408600Y-9224013D02*
X10368600Y-9264013D01*
X10368600Y-9454200D02*
X10408600Y-9494200D01*
X10408600Y-9454200D02*
X10368600Y-9494200D01*
X10368600Y-9684388D02*
X10408600Y-9724388D01*
X10408600Y-9684388D02*
X10368600Y-9724388D01*
X10368600Y-9914575D02*
X10408600Y-9954575D01*
X10408600Y-9914575D02*
X10368600Y-9954575D01*
X10546400Y-7307900D02*
X10586400Y-7347900D01*
X10586400Y-7307900D02*
X10546400Y-7347900D01*
X10571800Y-9974900D02*
X10611800Y-10014900D01*
X10611800Y-9974900D02*
X10571800Y-10014900D01*
X10609900Y-4398013D02*
X10649900Y-4438013D01*
X10649900Y-4398013D02*
X10609900Y-4438013D01*
X10609900Y-4628200D02*
X10649900Y-4668200D01*
X10649900Y-4628200D02*
X10609900Y-4668200D01*
X10609900Y-4858388D02*
X10649900Y-4898388D01*
X10649900Y-4858388D02*
X10609900Y-4898388D01*
X10609900Y-5088575D02*
X10649900Y-5128575D01*
X10649900Y-5088575D02*
X10609900Y-5128575D01*
X10609900Y-5318763D02*
X10649900Y-5358763D01*
X10649900Y-5318763D02*
X10609900Y-5358763D01*
X10609900Y-5548950D02*
X10649900Y-5588950D01*
X10649900Y-5548950D02*
X10609900Y-5588950D01*
X10609900Y-5779137D02*
X10649900Y-5819137D01*
X10649900Y-5779137D02*
X10609900Y-5819137D01*
X10609900Y-6009325D02*
X10649900Y-6049325D01*
X10649900Y-6009325D02*
X10609900Y-6049325D01*
X10609900Y-6239512D02*
X10649900Y-6279512D01*
X10649900Y-6239512D02*
X10609900Y-6279512D01*
X10609900Y-6469700D02*
X10649900Y-6509700D01*
X10649900Y-6469700D02*
X10609900Y-6509700D01*
X10648000Y-3777300D02*
X10688000Y-3817300D01*
X10688000Y-3777300D02*
X10648000Y-3817300D01*
X10648000Y-7638100D02*
X10688000Y-7678100D01*
X10688000Y-7638100D02*
X10648000Y-7678100D01*
X10648000Y-7765100D02*
X10688000Y-7805100D01*
X10688000Y-7765100D02*
X10648000Y-7805100D01*
X10660700Y-6926900D02*
X10700700Y-6966900D01*
X10700700Y-6926900D02*
X10660700Y-6966900D01*
X10660700Y-7307900D02*
X10700700Y-7347900D01*
X10700700Y-7307900D02*
X10660700Y-7347900D01*
X10698800Y-9428800D02*
X10738800Y-9468800D01*
X10738800Y-9428800D02*
X10698800Y-9468800D01*
X10698800Y-9657400D02*
X10738800Y-9697400D01*
X10738800Y-9657400D02*
X10698800Y-9697400D01*
X10711500Y-10127300D02*
X10751500Y-10167300D01*
X10751500Y-10127300D02*
X10711500Y-10167300D01*
X10762300Y-7993700D02*
X10802300Y-8033700D01*
X10802300Y-7993700D02*
X10762300Y-8033700D01*
X10775000Y-9822500D02*
X10815000Y-9862500D01*
X10815000Y-9822500D02*
X10775000Y-9862500D01*
X10787700Y-4259900D02*
X10827700Y-4299900D01*
X10827700Y-4259900D02*
X10787700Y-4299900D01*
X10787700Y-6723700D02*
X10827700Y-6763700D01*
X10827700Y-6723700D02*
X10787700Y-6763700D01*
X10787700Y-6926900D02*
X10827700Y-6966900D01*
X10827700Y-6926900D02*
X10787700Y-6966900D01*
X10825800Y-7307900D02*
X10865800Y-7347900D01*
X10865800Y-7307900D02*
X10825800Y-7347900D01*
X10825800Y-10254300D02*
X10865800Y-10294300D01*
X10865800Y-10254300D02*
X10825800Y-10294300D01*
X10851200Y-7600000D02*
X10891200Y-7640000D01*
X10891200Y-7600000D02*
X10851200Y-7640000D01*
X10863900Y-8323900D02*
X10903900Y-8363900D01*
X10903900Y-8323900D02*
X10863900Y-8363900D01*
X10863900Y-8450900D02*
X10903900Y-8490900D01*
X10903900Y-8450900D02*
X10863900Y-8490900D01*
X10889300Y-7993700D02*
X10929300Y-8033700D01*
X10929300Y-7993700D02*
X10889300Y-8033700D01*
X10889300Y-8120700D02*
X10929300Y-8160700D01*
X10929300Y-8120700D02*
X10889300Y-8160700D01*
X10927400Y-8946200D02*
X10967400Y-8986200D01*
X10967400Y-8946200D02*
X10927400Y-8986200D01*
X10940100Y-9974900D02*
X10980100Y-10014900D01*
X10980100Y-9974900D02*
X10940100Y-10014900D01*
X10952800Y-4107500D02*
X10992800Y-4147500D01*
X10992800Y-4107500D02*
X10952800Y-4147500D01*
X10952800Y-6571300D02*
X10992800Y-6611300D01*
X10992800Y-6571300D02*
X10952800Y-6611300D01*
X11016300Y-6355400D02*
X11056300Y-6395400D01*
X11056300Y-6355400D02*
X11016300Y-6395400D01*
X11016300Y-8781100D02*
X11056300Y-8821100D01*
X11056300Y-8781100D02*
X11016300Y-8821100D01*
X11029000Y-5936300D02*
X11069000Y-5976300D01*
X11069000Y-5936300D02*
X11029000Y-5976300D01*
X11029000Y-6139500D02*
X11069000Y-6179500D01*
X11069000Y-6139500D02*
X11029000Y-6179500D01*
X11041700Y-9454200D02*
X11081700Y-9494200D01*
X11081700Y-9454200D02*
X11041700Y-9494200D01*
X11041700Y-9632000D02*
X11081700Y-9672000D01*
X11081700Y-9632000D02*
X11041700Y-9672000D01*
X11054400Y-5669600D02*
X11094400Y-5709600D01*
X11094400Y-5669600D02*
X11054400Y-5709600D01*
X11079800Y-7600000D02*
X11119800Y-7640000D01*
X11119800Y-7600000D02*
X11079800Y-7640000D01*
X11092500Y-8946200D02*
X11132500Y-8986200D01*
X11132500Y-8946200D02*
X11092500Y-8986200D01*
X11092500Y-10140000D02*
X11132500Y-10180000D01*
X11132500Y-10140000D02*
X11092500Y-10180000D01*
X11105200Y-3967800D02*
X11145200Y-4007800D01*
X11145200Y-3967800D02*
X11105200Y-4007800D01*
X11181400Y-5466400D02*
X11221400Y-5506400D01*
X11221400Y-5466400D02*
X11181400Y-5506400D01*
X11244900Y-10787700D02*
X11284900Y-10827700D01*
X11284900Y-10787700D02*
X11244900Y-10827700D01*
X11257600Y-3218500D02*
X11297600Y-3258500D01*
X11297600Y-3218500D02*
X11257600Y-3258500D01*
X11270300Y-3828100D02*
X11310300Y-3868100D01*
X11310300Y-3828100D02*
X11270300Y-3868100D01*
X11283000Y-4419920D02*
X11323000Y-4459920D01*
X11323000Y-4419920D02*
X11283000Y-4459920D01*
X11283000Y-9174800D02*
X11323000Y-9214800D01*
X11323000Y-9174800D02*
X11283000Y-9214800D01*
X11293160Y-4694240D02*
X11333160Y-4734240D01*
X11333160Y-4694240D02*
X11293160Y-4734240D01*
X11298240Y-4963480D02*
X11338240Y-5003480D01*
X11338240Y-4963480D02*
X11298240Y-5003480D01*
X11308400Y-5695000D02*
X11348400Y-5735000D01*
X11348400Y-5695000D02*
X11308400Y-5735000D01*
X11308400Y-5834700D02*
X11348400Y-5874700D01*
X11348400Y-5834700D02*
X11308400Y-5874700D01*
X11313480Y-5314000D02*
X11353480Y-5354000D01*
X11353480Y-5314000D02*
X11313480Y-5354000D01*
X11346500Y-9454200D02*
X11386500Y-9494200D01*
X11386500Y-9454200D02*
X11346500Y-9494200D01*
X11346500Y-10038400D02*
X11386500Y-10078400D01*
X11386500Y-10038400D02*
X11346500Y-10078400D01*
X11359200Y-9911400D02*
X11399200Y-9951400D01*
X11399200Y-9911400D02*
X11359200Y-9951400D01*
X11371900Y-8285800D02*
X11411900Y-8325800D01*
X11411900Y-8285800D02*
X11371900Y-8325800D01*
X11384600Y-6787200D02*
X11424600Y-6827200D01*
X11424600Y-6787200D02*
X11384600Y-6827200D01*
X11384600Y-6977700D02*
X11424600Y-7017700D01*
X11424600Y-6977700D02*
X11384600Y-7017700D01*
X11384600Y-7155500D02*
X11424600Y-7195500D01*
X11424600Y-7155500D02*
X11384600Y-7195500D01*
X11384600Y-7320600D02*
X11424600Y-7360600D01*
X11424600Y-7320600D02*
X11384600Y-7360600D01*
X11384600Y-10914700D02*
X11424600Y-10954700D01*
X11424600Y-10914700D02*
X11384600Y-10954700D01*
X11397300Y-7638100D02*
X11437300Y-7678100D01*
X11437300Y-7638100D02*
X11397300Y-7678100D01*
X11435400Y-3663000D02*
X11475400Y-3703000D01*
X11475400Y-3663000D02*
X11435400Y-3703000D01*
X11448100Y-2951800D02*
X11488100Y-2991800D01*
X11488100Y-2951800D02*
X11448100Y-2991800D01*
X11448100Y-10495600D02*
X11488100Y-10535600D01*
X11488100Y-10495600D02*
X11448100Y-10535600D01*
X11460800Y-5369880D02*
X11500800Y-5409880D01*
X11500800Y-5369880D02*
X11460800Y-5409880D01*
X11498900Y-8285800D02*
X11538900Y-8325800D01*
X11538900Y-8285800D02*
X11498900Y-8325800D01*
X11498900Y-11054400D02*
X11538900Y-11094400D01*
X11538900Y-11054400D02*
X11498900Y-11094400D01*
X11524300Y-9911400D02*
X11564300Y-9951400D01*
X11564300Y-9911400D02*
X11524300Y-9951400D01*
X11537000Y-9073200D02*
X11577000Y-9113200D01*
X11577000Y-9073200D02*
X11537000Y-9113200D01*
X11537000Y-9212900D02*
X11577000Y-9252900D01*
X11577000Y-9212900D02*
X11537000Y-9252900D01*
X11537000Y-9339900D02*
X11577000Y-9379900D01*
X11577000Y-9339900D02*
X11537000Y-9379900D01*
X11549700Y-5834700D02*
X11589700Y-5874700D01*
X11589700Y-5834700D02*
X11549700Y-5874700D01*
X11549700Y-8781100D02*
X11589700Y-8821100D01*
X11589700Y-8781100D02*
X11549700Y-8821100D01*
X11562400Y-7320600D02*
X11602400Y-7360600D01*
X11602400Y-7320600D02*
X11562400Y-7360600D01*
X11613200Y-3510600D02*
X11653200Y-3550600D01*
X11653200Y-3510600D02*
X11613200Y-3550600D01*
X11638600Y-6487480D02*
X11678600Y-6527480D01*
X11678600Y-6487480D02*
X11638600Y-6527480D01*
X11648760Y-5354640D02*
X11688760Y-5394640D01*
X11688760Y-5354640D02*
X11648760Y-5394640D01*
X11648760Y-6644960D02*
X11688760Y-6684960D01*
X11688760Y-6644960D02*
X11648760Y-6684960D01*
X11651300Y-6101400D02*
X11691300Y-6141400D01*
X11691300Y-6101400D02*
X11651300Y-6141400D01*
X11651300Y-6215700D02*
X11691300Y-6255700D01*
X11691300Y-6215700D02*
X11651300Y-6255700D01*
X11678287Y-2951800D02*
X11718287Y-2991800D01*
X11718287Y-2951800D02*
X11678287Y-2991800D01*
X11727500Y-4209100D02*
X11767500Y-4249100D01*
X11767500Y-4209100D02*
X11727500Y-4249100D01*
X11727500Y-4463100D02*
X11767500Y-4503100D01*
X11767500Y-4463100D02*
X11727500Y-4503100D01*
X11727500Y-4704400D02*
X11767500Y-4744400D01*
X11767500Y-4704400D02*
X11727500Y-4744400D01*
X11727500Y-4933000D02*
X11767500Y-4973000D01*
X11767500Y-4933000D02*
X11727500Y-4973000D01*
X11727500Y-5212400D02*
X11767500Y-5252400D01*
X11767500Y-5212400D02*
X11727500Y-5252400D01*
X11727500Y-7320600D02*
X11767500Y-7360600D01*
X11767500Y-7320600D02*
X11727500Y-7360600D01*
X11727500Y-10762300D02*
X11767500Y-10802300D01*
X11767500Y-10762300D02*
X11727500Y-10802300D01*
X11740200Y-8057200D02*
X11780200Y-8097200D01*
X11780200Y-8057200D02*
X11740200Y-8097200D01*
X11752900Y-7638100D02*
X11792900Y-7678100D01*
X11792900Y-7638100D02*
X11752900Y-7678100D01*
X11752900Y-9225600D02*
X11792900Y-9265600D01*
X11792900Y-9225600D02*
X11752900Y-9265600D01*
X11752900Y-10546400D02*
X11792900Y-10586400D01*
X11792900Y-10546400D02*
X11752900Y-10586400D01*
X11778300Y-3358200D02*
X11818300Y-3398200D01*
X11818300Y-3358200D02*
X11778300Y-3398200D01*
X11791000Y-6101400D02*
X11831000Y-6141400D01*
X11831000Y-6101400D02*
X11791000Y-6141400D01*
X11791000Y-6215700D02*
X11831000Y-6255700D01*
X11831000Y-6215700D02*
X11791000Y-6255700D01*
X11796080Y-6644960D02*
X11836080Y-6684960D01*
X11836080Y-6644960D02*
X11796080Y-6684960D01*
X11801160Y-6487480D02*
X11841160Y-6527480D01*
X11841160Y-6487480D02*
X11801160Y-6527480D01*
X11816400Y-3980500D02*
X11856400Y-4020500D01*
X11856400Y-3980500D02*
X11816400Y-4020500D01*
X11829100Y-9746300D02*
X11869100Y-9786300D01*
X11869100Y-9746300D02*
X11829100Y-9786300D01*
X11867200Y-7930200D02*
X11907200Y-7970200D01*
X11907200Y-7930200D02*
X11867200Y-7970200D01*
X11905300Y-5364800D02*
X11945300Y-5404800D01*
X11945300Y-5364800D02*
X11905300Y-5404800D01*
X11905300Y-10775000D02*
X11945300Y-10815000D01*
X11945300Y-10775000D02*
X11905300Y-10815000D01*
X11905300Y-10952800D02*
X11945300Y-10992800D01*
X11945300Y-10952800D02*
X11905300Y-10992800D01*
X11905300Y-11244900D02*
X11945300Y-11284900D01*
X11945300Y-11244900D02*
X11905300Y-11284900D01*
X11908475Y-2951800D02*
X11948475Y-2991800D01*
X11948475Y-2951800D02*
X11908475Y-2991800D01*
X11943400Y-3218500D02*
X11983400Y-3258500D01*
X11983400Y-3218500D02*
X11943400Y-3258500D01*
X11943400Y-5529900D02*
X11983400Y-5569900D01*
X11983400Y-5529900D02*
X11943400Y-5569900D01*
X11956100Y-5707700D02*
X11996100Y-5747700D01*
X11996100Y-5707700D02*
X11956100Y-5747700D01*
X11956100Y-5860100D02*
X11996100Y-5900100D01*
X11996100Y-5860100D02*
X11956100Y-5900100D01*
X11956100Y-7473000D02*
X11996100Y-7513000D01*
X11996100Y-7473000D02*
X11956100Y-7513000D01*
X11981500Y-3777300D02*
X12021500Y-3817300D01*
X12021500Y-3777300D02*
X11981500Y-3817300D01*
X11981500Y-6685600D02*
X12021500Y-6725600D01*
X12021500Y-6685600D02*
X11981500Y-6725600D01*
X11994200Y-4336100D02*
X12034200Y-4376100D01*
X12034200Y-4336100D02*
X11994200Y-4376100D01*
X11994200Y-4945700D02*
X12034200Y-4985700D01*
X12034200Y-4945700D02*
X11994200Y-4985700D01*
X11994200Y-7790500D02*
X12034200Y-7830500D01*
X12034200Y-7790500D02*
X11994200Y-7830500D01*
X12032300Y-7041200D02*
X12072300Y-7081200D01*
X12072300Y-7041200D02*
X12032300Y-7081200D01*
X12045000Y-8184200D02*
X12085000Y-8224200D01*
X12085000Y-8184200D02*
X12045000Y-8224200D01*
X12045000Y-8336600D02*
X12085000Y-8376600D01*
X12085000Y-8336600D02*
X12045000Y-8376600D01*
X12057700Y-8831900D02*
X12097700Y-8871900D01*
X12097700Y-8831900D02*
X12057700Y-8871900D01*
X12070400Y-4044000D02*
X12110400Y-4084000D01*
X12110400Y-4044000D02*
X12070400Y-4084000D01*
X12070400Y-10682550D02*
X12110400Y-10722550D01*
X12110400Y-10682550D02*
X12070400Y-10722550D01*
X12070400Y-11257600D02*
X12110400Y-11297600D01*
X12110400Y-11257600D02*
X12070400Y-11297600D01*
X12083100Y-4450400D02*
X12123100Y-4490400D01*
X12123100Y-4450400D02*
X12083100Y-4490400D01*
X12083100Y-10521000D02*
X12123100Y-10561000D01*
X12123100Y-10521000D02*
X12083100Y-10561000D01*
X12095800Y-5199700D02*
X12135800Y-5239700D01*
X12135800Y-5199700D02*
X12095800Y-5239700D01*
X12108500Y-3624900D02*
X12148500Y-3664900D01*
X12148500Y-3624900D02*
X12108500Y-3664900D01*
X12121200Y-4945700D02*
X12161200Y-4985700D01*
X12161200Y-4945700D02*
X12121200Y-4985700D01*
X12121200Y-5872800D02*
X12161200Y-5912800D01*
X12161200Y-5872800D02*
X12121200Y-5912800D01*
X12138662Y-2951800D02*
X12178662Y-2991800D01*
X12178662Y-2951800D02*
X12138662Y-2991800D01*
X12184700Y-10902000D02*
X12224700Y-10942000D01*
X12224700Y-10902000D02*
X12184700Y-10942000D01*
X12197400Y-7790500D02*
X12237400Y-7830500D01*
X12237400Y-7790500D02*
X12197400Y-7830500D01*
X12210100Y-6876100D02*
X12250100Y-6916100D01*
X12250100Y-6876100D02*
X12210100Y-6916100D01*
X12222800Y-3218500D02*
X12262800Y-3258500D01*
X12262800Y-3218500D02*
X12222800Y-3258500D01*
X12235500Y-11257600D02*
X12275500Y-11297600D01*
X12275500Y-11257600D02*
X12235500Y-11297600D01*
X12248200Y-4336100D02*
X12288200Y-4376100D01*
X12288200Y-4336100D02*
X12248200Y-4376100D01*
X12248200Y-5669600D02*
X12288200Y-5709600D01*
X12288200Y-5669600D02*
X12248200Y-5709600D01*
X12248200Y-6431600D02*
X12288200Y-6471600D01*
X12288200Y-6431600D02*
X12248200Y-6471600D01*
X12260900Y-8031800D02*
X12300900Y-8071800D01*
X12300900Y-8031800D02*
X12260900Y-8071800D01*
X12273600Y-3472500D02*
X12313600Y-3512500D01*
X12313600Y-3472500D02*
X12273600Y-3512500D01*
X12273600Y-3853500D02*
X12313600Y-3893500D01*
X12313600Y-3853500D02*
X12273600Y-3893500D01*
X12299000Y-10673400D02*
X12339000Y-10713400D01*
X12339000Y-10673400D02*
X12299000Y-10713400D01*
X12337100Y-6291900D02*
X12377100Y-6331900D01*
X12377100Y-6291900D02*
X12337100Y-6331900D01*
X12349800Y-9200200D02*
X12389800Y-9240200D01*
X12389800Y-9200200D02*
X12349800Y-9240200D01*
X12368850Y-2951800D02*
X12408850Y-2991800D01*
X12408850Y-2951800D02*
X12368850Y-2991800D01*
X12375200Y-7790500D02*
X12415200Y-7830500D01*
X12415200Y-7790500D02*
X12375200Y-7830500D01*
X12387900Y-7092000D02*
X12427900Y-7132000D01*
X12427900Y-7092000D02*
X12387900Y-7132000D01*
X12387900Y-11270300D02*
X12427900Y-11310300D01*
X12427900Y-11270300D02*
X12387900Y-11310300D01*
X12400600Y-4806000D02*
X12440600Y-4846000D01*
X12440600Y-4806000D02*
X12400600Y-4846000D01*
X12400600Y-4945700D02*
X12440600Y-4985700D01*
X12440600Y-4945700D02*
X12400600Y-4985700D01*
X12426000Y-5872800D02*
X12466000Y-5912800D01*
X12466000Y-5872800D02*
X12426000Y-5912800D01*
X12426000Y-6418900D02*
X12466000Y-6458900D01*
X12466000Y-6418900D02*
X12426000Y-6458900D01*
X12438700Y-9085900D02*
X12478700Y-9125900D01*
X12478700Y-9085900D02*
X12438700Y-9125900D01*
X12451400Y-8031800D02*
X12491400Y-8071800D01*
X12491400Y-8031800D02*
X12451400Y-8071800D01*
X12476800Y-7333300D02*
X12516800Y-7373300D01*
X12516800Y-7333300D02*
X12476800Y-7373300D01*
X12476800Y-8793800D02*
X12516800Y-8833800D01*
X12516800Y-8793800D02*
X12476800Y-8833800D01*
X12514900Y-5415600D02*
X12554900Y-5455600D01*
X12554900Y-5415600D02*
X12514900Y-5455600D01*
X12514900Y-11346500D02*
X12554900Y-11386500D01*
X12554900Y-11346500D02*
X12514900Y-11386500D01*
X12527600Y-3205800D02*
X12567600Y-3245800D01*
X12567600Y-3205800D02*
X12527600Y-3245800D01*
X12527600Y-10813100D02*
X12567600Y-10853100D01*
X12567600Y-10813100D02*
X12527600Y-10853100D01*
X12565700Y-9200200D02*
X12605700Y-9240200D01*
X12605700Y-9200200D02*
X12565700Y-9240200D01*
X12578400Y-3929700D02*
X12618400Y-3969700D01*
X12618400Y-3929700D02*
X12578400Y-3969700D01*
X12578400Y-4158300D02*
X12618400Y-4198300D01*
X12618400Y-4158300D02*
X12578400Y-4198300D01*
X12591100Y-4882200D02*
X12631100Y-4922200D01*
X12631100Y-4882200D02*
X12591100Y-4922200D01*
X12599037Y-2951800D02*
X12639037Y-2991800D01*
X12639037Y-2951800D02*
X12599037Y-2991800D01*
X12603800Y-6291900D02*
X12643800Y-6331900D01*
X12643800Y-6291900D02*
X12603800Y-6331900D01*
X12603800Y-6418900D02*
X12643800Y-6458900D01*
X12643800Y-6418900D02*
X12603800Y-6458900D01*
X12603800Y-10711500D02*
X12643800Y-10751500D01*
X12643800Y-10711500D02*
X12603800Y-10751500D01*
X12603800Y-10940100D02*
X12643800Y-10980100D01*
X12643800Y-10940100D02*
X12603800Y-10980100D01*
X12616500Y-7790500D02*
X12656500Y-7830500D01*
X12656500Y-7790500D02*
X12616500Y-7830500D01*
X12629200Y-7333300D02*
X12669200Y-7373300D01*
X12669200Y-7333300D02*
X12629200Y-7373300D01*
X12629200Y-9695500D02*
X12669200Y-9735500D01*
X12669200Y-9695500D02*
X12629200Y-9735500D01*
X12629200Y-11244900D02*
X12669200Y-11284900D01*
X12669200Y-11244900D02*
X12629200Y-11284900D01*
X12641900Y-7092000D02*
X12681900Y-7132000D01*
X12681900Y-7092000D02*
X12641900Y-7132000D01*
X12654600Y-5656900D02*
X12694600Y-5696900D01*
X12694600Y-5656900D02*
X12654600Y-5696900D01*
X12654600Y-10444800D02*
X12694600Y-10484800D01*
X12694600Y-10444800D02*
X12654600Y-10484800D01*
X12718100Y-4501200D02*
X12758100Y-4541200D01*
X12758100Y-4501200D02*
X12718100Y-4541200D01*
X12718100Y-6749100D02*
X12758100Y-6789100D01*
X12758100Y-6749100D02*
X12718100Y-6789100D01*
X12718100Y-11168700D02*
X12758100Y-11208700D01*
X12758100Y-11168700D02*
X12718100Y-11208700D01*
X12737915Y-10654658D02*
X12777915Y-10694658D01*
X12777915Y-10654658D02*
X12737915Y-10694658D01*
X12743500Y-3726500D02*
X12783500Y-3766500D01*
X12783500Y-3726500D02*
X12743500Y-3766500D01*
X12749850Y-10997250D02*
X12789850Y-11037250D01*
X12789850Y-10997250D02*
X12749850Y-11037250D01*
X12776520Y-5344480D02*
X12816520Y-5384480D01*
X12816520Y-5344480D02*
X12776520Y-5384480D01*
X12781600Y-6025200D02*
X12821600Y-6065200D01*
X12821600Y-6025200D02*
X12781600Y-6065200D01*
X12794300Y-4869500D02*
X12834300Y-4909500D01*
X12834300Y-4869500D02*
X12794300Y-4909500D01*
X12827320Y-4358960D02*
X12867320Y-4398960D01*
X12867320Y-4358960D02*
X12827320Y-4398960D01*
X12829225Y-2951800D02*
X12869225Y-2991800D01*
X12869225Y-2951800D02*
X12829225Y-2991800D01*
X12832400Y-7333300D02*
X12872400Y-7373300D01*
X12872400Y-7333300D02*
X12832400Y-7373300D01*
X12832400Y-8908100D02*
X12872400Y-8948100D01*
X12872400Y-8908100D02*
X12832400Y-8948100D01*
X12842371Y-10707629D02*
X12882371Y-10747629D01*
X12882371Y-10707629D02*
X12842371Y-10747629D01*
X12845100Y-7790500D02*
X12885100Y-7830500D01*
X12885100Y-7790500D02*
X12845100Y-7830500D01*
X12845100Y-9124000D02*
X12885100Y-9164000D01*
X12885100Y-9124000D02*
X12845100Y-9164000D01*
X12857800Y-4209100D02*
X12897800Y-4249100D01*
X12897800Y-4209100D02*
X12857800Y-4249100D01*
X12857800Y-9314500D02*
X12897800Y-9354500D01*
X12897800Y-9314500D02*
X12857800Y-9354500D01*
X12857800Y-9505000D02*
X12897800Y-9545000D01*
X12897800Y-9505000D02*
X12857800Y-9545000D01*
X12857800Y-9695500D02*
X12897800Y-9735500D01*
X12897800Y-9695500D02*
X12857800Y-9735500D01*
X12857800Y-9886000D02*
X12897800Y-9926000D01*
X12897800Y-9886000D02*
X12857800Y-9926000D01*
X12857800Y-10076500D02*
X12897800Y-10116500D01*
X12897800Y-10076500D02*
X12857800Y-10116500D01*
X12883200Y-5664520D02*
X12923200Y-5704520D01*
X12923200Y-5664520D02*
X12883200Y-5704520D01*
X12908600Y-3713800D02*
X12948600Y-3753800D01*
X12948600Y-3713800D02*
X12908600Y-3753800D01*
X12908600Y-7092000D02*
X12948600Y-7132000D01*
X12948600Y-7092000D02*
X12908600Y-7132000D01*
X12969560Y-5334320D02*
X13009560Y-5374320D01*
X13009560Y-5334320D02*
X12969560Y-5374320D01*
X12984800Y-3332800D02*
X13024800Y-3372800D01*
X13024800Y-3332800D02*
X12984800Y-3372800D01*
X13029250Y-4869500D02*
X13069250Y-4909500D01*
X13069250Y-4869500D02*
X13029250Y-4909500D01*
X13030520Y-9499920D02*
X13070520Y-9539920D01*
X13070520Y-9499920D02*
X13030520Y-9539920D01*
X13035600Y-7790500D02*
X13075600Y-7830500D01*
X13075600Y-7790500D02*
X13035600Y-7830500D01*
X13048300Y-3713800D02*
X13088300Y-3753800D01*
X13088300Y-3713800D02*
X13048300Y-3753800D01*
X13048300Y-8374700D02*
X13088300Y-8414700D01*
X13088300Y-8374700D02*
X13048300Y-8414700D01*
X13059412Y-2951800D02*
X13099412Y-2991800D01*
X13099412Y-2951800D02*
X13059412Y-2991800D01*
X13062371Y-10927629D02*
X13102371Y-10967629D01*
X13102371Y-10927629D02*
X13062371Y-10967629D01*
X13073700Y-5669600D02*
X13113700Y-5709600D01*
X13113700Y-5669600D02*
X13073700Y-5709600D01*
X13073700Y-8501700D02*
X13113700Y-8541700D01*
X13113700Y-8501700D02*
X13073700Y-8541700D01*
X13080000Y-9840000D02*
X13120000Y-9880000D01*
X13120000Y-9840000D02*
X13080000Y-9880000D01*
X13080000Y-10020000D02*
X13120000Y-10060000D01*
X13120000Y-10020000D02*
X13080000Y-10060000D01*
X13080000Y-10240000D02*
X13120000Y-10280000D01*
X13120000Y-10240000D02*
X13080000Y-10280000D01*
X13081320Y-4348800D02*
X13121320Y-4388800D01*
X13121320Y-4348800D02*
X13081320Y-4388800D01*
X13086400Y-4513900D02*
X13126400Y-4553900D01*
X13126400Y-4513900D02*
X13086400Y-4553900D01*
X13099100Y-4196400D02*
X13139100Y-4236400D01*
X13139100Y-4196400D02*
X13099100Y-4236400D01*
X13099100Y-10622600D02*
X13139100Y-10662600D01*
X13139100Y-10622600D02*
X13099100Y-10662600D01*
X13149900Y-7092000D02*
X13189900Y-7132000D01*
X13189900Y-7092000D02*
X13149900Y-7132000D01*
X13149900Y-8616000D02*
X13189900Y-8656000D01*
X13189900Y-8616000D02*
X13149900Y-8656000D01*
X13162600Y-8425500D02*
X13202600Y-8465500D01*
X13202600Y-8425500D02*
X13162600Y-8465500D01*
X13200700Y-6012500D02*
X13240700Y-6052500D01*
X13240700Y-6012500D02*
X13200700Y-6052500D01*
X13200700Y-10724200D02*
X13240700Y-10764200D01*
X13240700Y-10724200D02*
X13200700Y-10764200D01*
X13230000Y-10090000D02*
X13270000Y-10130000D01*
X13270000Y-10090000D02*
X13230000Y-10130000D01*
X13230000Y-10260000D02*
X13270000Y-10300000D01*
X13270000Y-10260000D02*
X13230000Y-10300000D01*
X13238800Y-8717600D02*
X13278800Y-8757600D01*
X13278800Y-8717600D02*
X13238800Y-8757600D01*
X13264200Y-4869500D02*
X13304200Y-4909500D01*
X13304200Y-4869500D02*
X13264200Y-4909500D01*
X13264200Y-7790500D02*
X13304200Y-7830500D01*
X13304200Y-7790500D02*
X13264200Y-7830500D01*
X13270000Y-11110000D02*
X13310000Y-11150000D01*
X13310000Y-11110000D02*
X13270000Y-11150000D01*
X13289600Y-2951800D02*
X13329600Y-2991800D01*
X13329600Y-2951800D02*
X13289600Y-2991800D01*
X13309920Y-3591880D02*
X13349920Y-3631880D01*
X13349920Y-3591880D02*
X13309920Y-3631880D01*
X13350000Y-10089200D02*
X13390000Y-10129200D01*
X13390000Y-10089200D02*
X13350000Y-10129200D01*
X13350000Y-10260000D02*
X13390000Y-10300000D01*
X13390000Y-10260000D02*
X13350000Y-10300000D01*
X13353100Y-3401380D02*
X13393100Y-3441380D01*
X13393100Y-3401380D02*
X13353100Y-3441380D01*
X13390000Y-5840000D02*
X13430000Y-5880000D01*
X13430000Y-5840000D02*
X13390000Y-5880000D01*
X13390000Y-9800000D02*
X13430000Y-9840000D01*
X13430000Y-9800000D02*
X13390000Y-9840000D01*
X13391200Y-5148900D02*
X13431200Y-5188900D01*
X13431200Y-5148900D02*
X13391200Y-5188900D01*
X13391200Y-5441000D02*
X13431200Y-5481000D01*
X13431200Y-5441000D02*
X13391200Y-5481000D01*
X13391200Y-5707700D02*
X13431200Y-5747700D01*
X13431200Y-5707700D02*
X13391200Y-5747700D01*
X13395645Y-3175320D02*
X13435645Y-3215320D01*
X13435645Y-3175320D02*
X13395645Y-3215320D01*
X13403900Y-3790000D02*
X13443900Y-3830000D01*
X13443900Y-3790000D02*
X13403900Y-3830000D01*
X13403900Y-4196400D02*
X13443900Y-4236400D01*
X13443900Y-4196400D02*
X13403900Y-4236400D01*
X13403900Y-4475800D02*
X13443900Y-4515800D01*
X13443900Y-4475800D02*
X13403900Y-4515800D01*
X13416600Y-8704900D02*
X13456600Y-8744900D01*
X13456600Y-8704900D02*
X13416600Y-8744900D01*
X13426760Y-10896920D02*
X13466760Y-10936920D01*
X13466760Y-10896920D02*
X13426760Y-10936920D01*
X13467400Y-3586800D02*
X13507400Y-3626800D01*
X13507400Y-3586800D02*
X13467400Y-3626800D01*
X13467400Y-9403400D02*
X13507400Y-9443400D01*
X13507400Y-9403400D02*
X13467400Y-9443400D01*
X13480100Y-7257100D02*
X13520100Y-7297100D01*
X13520100Y-7257100D02*
X13480100Y-7297100D01*
X13492800Y-7409500D02*
X13532800Y-7449500D01*
X13532800Y-7409500D02*
X13492800Y-7449500D01*
X13499150Y-4869500D02*
X13539150Y-4909500D01*
X13539150Y-4869500D02*
X13499150Y-4909500D01*
X13505500Y-7904800D02*
X13545500Y-7944800D01*
X13545500Y-7904800D02*
X13505500Y-7944800D01*
X13518200Y-10622600D02*
X13558200Y-10662600D01*
X13558200Y-10622600D02*
X13518200Y-10662600D01*
X13519787Y-2951800D02*
X13559787Y-2991800D01*
X13559787Y-2951800D02*
X13519787Y-2991800D01*
X13530900Y-6406200D02*
X13570900Y-6446200D01*
X13570900Y-6406200D02*
X13530900Y-6446200D01*
X13540000Y-9800000D02*
X13580000Y-9840000D01*
X13580000Y-9800000D02*
X13540000Y-9840000D01*
X13556300Y-11105200D02*
X13596300Y-11145200D01*
X13596300Y-11105200D02*
X13556300Y-11145200D01*
X13569000Y-8641400D02*
X13609000Y-8681400D01*
X13609000Y-8641400D02*
X13569000Y-8681400D01*
X13581700Y-8362000D02*
X13621700Y-8402000D01*
X13621700Y-8362000D02*
X13581700Y-8402000D01*
X13581700Y-9466900D02*
X13621700Y-9506900D01*
X13621700Y-9466900D02*
X13581700Y-9506900D01*
X13599480Y-10891840D02*
X13639480Y-10931840D01*
X13639480Y-10891840D02*
X13599480Y-10931840D01*
X13607100Y-10089200D02*
X13647100Y-10129200D01*
X13647100Y-10089200D02*
X13607100Y-10129200D01*
X13625832Y-3175320D02*
X13665832Y-3215320D01*
X13665832Y-3175320D02*
X13625832Y-3215320D01*
X13645200Y-3586800D02*
X13685200Y-3626800D01*
X13685200Y-3586800D02*
X13645200Y-3626800D01*
X13645200Y-7904800D02*
X13685200Y-7944800D01*
X13685200Y-7904800D02*
X13645200Y-7944800D01*
X13650399Y-6006083D02*
X13690399Y-6046083D01*
X13690399Y-6006083D02*
X13650399Y-6046083D01*
X13670600Y-8730300D02*
X13710600Y-8770300D01*
X13710600Y-8730300D02*
X13670600Y-8770300D01*
X13696000Y-4196400D02*
X13736000Y-4236400D01*
X13736000Y-4196400D02*
X13696000Y-4236400D01*
X13696000Y-10622600D02*
X13736000Y-10662600D01*
X13736000Y-10622600D02*
X13696000Y-10662600D01*
X13721400Y-3388680D02*
X13761400Y-3428680D01*
X13761400Y-3388680D02*
X13721400Y-3428680D01*
X13721400Y-5212400D02*
X13761400Y-5252400D01*
X13761400Y-5212400D02*
X13721400Y-5252400D01*
X13721400Y-5352100D02*
X13761400Y-5392100D01*
X13761400Y-5352100D02*
X13721400Y-5392100D01*
X13721400Y-5682300D02*
X13761400Y-5722300D01*
X13761400Y-5682300D02*
X13721400Y-5722300D01*
X13721400Y-5847400D02*
X13761400Y-5887400D01*
X13761400Y-5847400D02*
X13721400Y-5887400D01*
X13734100Y-4475800D02*
X13774100Y-4515800D01*
X13774100Y-4475800D02*
X13734100Y-4515800D01*
X13734100Y-4653600D02*
X13774100Y-4693600D01*
X13774100Y-4653600D02*
X13734100Y-4693600D01*
X13734100Y-4869500D02*
X13774100Y-4909500D01*
X13774100Y-4869500D02*
X13734100Y-4909500D01*
X13746800Y-3866200D02*
X13786800Y-3906200D01*
X13786800Y-3866200D02*
X13746800Y-3906200D01*
X13749975Y-2951800D02*
X13789975Y-2991800D01*
X13789975Y-2951800D02*
X13749975Y-2991800D01*
X13759500Y-8235000D02*
X13799500Y-8275000D01*
X13799500Y-8235000D02*
X13759500Y-8275000D01*
X13759500Y-9390700D02*
X13799500Y-9430700D01*
X13799500Y-9390700D02*
X13759500Y-9430700D01*
X13762040Y-10891840D02*
X13802040Y-10931840D01*
X13802040Y-10891840D02*
X13762040Y-10931840D01*
X13772200Y-11105200D02*
X13812200Y-11145200D01*
X13812200Y-11105200D02*
X13772200Y-11145200D01*
X13777280Y-11349040D02*
X13817280Y-11389040D01*
X13817280Y-11349040D02*
X13777280Y-11389040D01*
X13784900Y-7511100D02*
X13824900Y-7551100D01*
X13824900Y-7511100D02*
X13784900Y-7551100D01*
X13797600Y-7739700D02*
X13837600Y-7779700D01*
X13837600Y-7739700D02*
X13797600Y-7779700D01*
X13823000Y-5275900D02*
X13863000Y-5315900D01*
X13863000Y-5275900D02*
X13823000Y-5315900D01*
X13823000Y-6012500D02*
X13863000Y-6052500D01*
X13863000Y-6012500D02*
X13823000Y-6052500D01*
X13823000Y-10152700D02*
X13863000Y-10192700D01*
X13863000Y-10152700D02*
X13823000Y-10192700D01*
X13835700Y-4577400D02*
X13875700Y-4617400D01*
X13875700Y-4577400D02*
X13835700Y-4617400D01*
X13856020Y-3175320D02*
X13896020Y-3215320D01*
X13896020Y-3175320D02*
X13856020Y-3215320D01*
X13873800Y-9517700D02*
X13913800Y-9557700D01*
X13913800Y-9517700D02*
X13873800Y-9557700D01*
X13886500Y-8692200D02*
X13926500Y-8732200D01*
X13926500Y-8692200D02*
X13886500Y-8732200D01*
X13924600Y-3866200D02*
X13964600Y-3906200D01*
X13964600Y-3866200D02*
X13924600Y-3906200D01*
X13924600Y-5212400D02*
X13964600Y-5252400D01*
X13964600Y-5212400D02*
X13924600Y-5252400D01*
X13924600Y-5352100D02*
X13964600Y-5392100D01*
X13964600Y-5352100D02*
X13924600Y-5392100D01*
X13937300Y-4463100D02*
X13977300Y-4503100D01*
X13977300Y-4463100D02*
X13937300Y-4503100D01*
X13937300Y-5682300D02*
X13977300Y-5722300D01*
X13977300Y-5682300D02*
X13937300Y-5722300D01*
X13937300Y-5809300D02*
X13977300Y-5849300D01*
X13977300Y-5809300D02*
X13937300Y-5849300D01*
X13937300Y-5936300D02*
X13977300Y-5976300D01*
X13977300Y-5936300D02*
X13937300Y-5976300D01*
X13937300Y-7549200D02*
X13977300Y-7589200D01*
X13977300Y-7549200D02*
X13937300Y-7589200D01*
X13944920Y-10891840D02*
X13984920Y-10931840D01*
X13984920Y-10891840D02*
X13944920Y-10931840D01*
X13950000Y-4653600D02*
X13990000Y-4693600D01*
X13990000Y-4653600D02*
X13950000Y-4693600D01*
X13950000Y-7904800D02*
X13990000Y-7944800D01*
X13990000Y-7904800D02*
X13950000Y-7944800D01*
X13962700Y-4196400D02*
X14002700Y-4236400D01*
X14002700Y-4196400D02*
X13962700Y-4236400D01*
X13975400Y-11105200D02*
X14015400Y-11145200D01*
X14015400Y-11105200D02*
X13975400Y-11145200D01*
X13980162Y-2951800D02*
X14020162Y-2991800D01*
X14020162Y-2951800D02*
X13980162Y-2991800D01*
X13988100Y-6469700D02*
X14028100Y-6509700D01*
X14028100Y-6469700D02*
X13988100Y-6509700D01*
X14021120Y-11242360D02*
X14061120Y-11282360D01*
X14061120Y-11242360D02*
X14021120Y-11282360D01*
X14026200Y-3586800D02*
X14066200Y-3626800D01*
X14066200Y-3586800D02*
X14026200Y-3626800D01*
X14038900Y-3388680D02*
X14078900Y-3428680D01*
X14078900Y-3388680D02*
X14038900Y-3428680D01*
X14051600Y-7066600D02*
X14091600Y-7106600D01*
X14091600Y-7066600D02*
X14051600Y-7106600D01*
X14077000Y-8298500D02*
X14117000Y-8338500D01*
X14117000Y-8298500D02*
X14077000Y-8338500D01*
X14086207Y-3175320D02*
X14126207Y-3215320D01*
X14126207Y-3175320D02*
X14086207Y-3215320D01*
X14102400Y-7904800D02*
X14142400Y-7944800D01*
X14142400Y-7904800D02*
X14102400Y-7944800D01*
X14130000Y-4830000D02*
X14170000Y-4870000D01*
X14170000Y-4830000D02*
X14130000Y-4870000D01*
X14140000Y-5440000D02*
X14180000Y-5480000D01*
X14180000Y-5440000D02*
X14140000Y-5480000D01*
X14165900Y-3586800D02*
X14205900Y-3626800D01*
X14205900Y-3586800D02*
X14165900Y-3626800D01*
X14165900Y-10559100D02*
X14205900Y-10599100D01*
X14205900Y-10559100D02*
X14165900Y-10599100D01*
X14170000Y-6010000D02*
X14210000Y-6050000D01*
X14210000Y-6010000D02*
X14170000Y-6050000D01*
X14178600Y-9936800D02*
X14218600Y-9976800D01*
X14218600Y-9936800D02*
X14178600Y-9976800D01*
X14178600Y-11105200D02*
X14218600Y-11145200D01*
X14218600Y-11105200D02*
X14178600Y-11145200D01*
X14180000Y-4180000D02*
X14220000Y-4220000D01*
X14220000Y-4180000D02*
X14180000Y-4220000D01*
X14191300Y-8298500D02*
X14231300Y-8338500D01*
X14231300Y-8298500D02*
X14191300Y-8338500D01*
X14191300Y-9098600D02*
X14231300Y-9138600D01*
X14231300Y-9098600D02*
X14191300Y-9138600D01*
X14191300Y-9276400D02*
X14231300Y-9316400D01*
X14231300Y-9276400D02*
X14191300Y-9316400D01*
X14191300Y-9479600D02*
X14231300Y-9519600D01*
X14231300Y-9479600D02*
X14191300Y-9519600D01*
X14191300Y-9644700D02*
X14231300Y-9684700D01*
X14231300Y-9644700D02*
X14191300Y-9684700D01*
X14191300Y-10835960D02*
X14231300Y-10875960D01*
X14231300Y-10835960D02*
X14191300Y-10875960D01*
X14210350Y-2951800D02*
X14250350Y-2991800D01*
X14250350Y-2951800D02*
X14210350Y-2991800D01*
X14247180Y-5505000D02*
X14287180Y-5545000D01*
X14287180Y-5505000D02*
X14247180Y-5545000D01*
X14254800Y-6545900D02*
X14294800Y-6585900D01*
X14294800Y-6545900D02*
X14254800Y-6585900D01*
X14255000Y-5630000D02*
X14295000Y-5670000D01*
X14295000Y-5630000D02*
X14255000Y-5670000D01*
X14264960Y-4008440D02*
X14304960Y-4048440D01*
X14304960Y-4008440D02*
X14264960Y-4048440D01*
X14267500Y-5847400D02*
X14307500Y-5887400D01*
X14307500Y-5847400D02*
X14267500Y-5887400D01*
X14280200Y-3790000D02*
X14320200Y-3830000D01*
X14320200Y-3790000D02*
X14280200Y-3830000D01*
X14316395Y-3175320D02*
X14356395Y-3215320D01*
X14356395Y-3175320D02*
X14316395Y-3215320D01*
X14343700Y-6838000D02*
X14383700Y-6878000D01*
X14383700Y-6838000D02*
X14343700Y-6878000D01*
X14343700Y-7028500D02*
X14383700Y-7068500D01*
X14383700Y-7028500D02*
X14343700Y-7068500D01*
X14343700Y-7231700D02*
X14383700Y-7271700D01*
X14383700Y-7231700D02*
X14343700Y-7271700D01*
X14343700Y-9911400D02*
X14383700Y-9951400D01*
X14383700Y-9911400D02*
X14343700Y-9951400D01*
X14355000Y-4855000D02*
X14395000Y-4895000D01*
X14395000Y-4855000D02*
X14355000Y-4895000D01*
X14356400Y-3388680D02*
X14396400Y-3428680D01*
X14396400Y-3388680D02*
X14356400Y-3428680D01*
X14369100Y-8539800D02*
X14409100Y-8579800D01*
X14409100Y-8539800D02*
X14369100Y-8579800D01*
X14369100Y-10457500D02*
X14409100Y-10497500D01*
X14409100Y-10457500D02*
X14369100Y-10497500D01*
X14380000Y-3582500D02*
X14420000Y-3622500D01*
X14420000Y-3582500D02*
X14380000Y-3622500D01*
X14381800Y-7714300D02*
X14421800Y-7754300D01*
X14421800Y-7714300D02*
X14381800Y-7754300D01*
X14390000Y-6010000D02*
X14430000Y-6050000D01*
X14430000Y-6010000D02*
X14390000Y-6050000D01*
X14390871Y-10825800D02*
X14430871Y-10865800D01*
X14430871Y-10825800D02*
X14390871Y-10865800D01*
X14394500Y-11105200D02*
X14434500Y-11145200D01*
X14434500Y-11105200D02*
X14394500Y-11145200D01*
X14400000Y-5440000D02*
X14440000Y-5480000D01*
X14440000Y-5440000D02*
X14400000Y-5480000D01*
X14432600Y-9085900D02*
X14472600Y-9125900D01*
X14472600Y-9085900D02*
X14432600Y-9125900D01*
X14440537Y-2951800D02*
X14480537Y-2991800D01*
X14480537Y-2951800D02*
X14440537Y-2991800D01*
X14458000Y-7892100D02*
X14498000Y-7932100D01*
X14498000Y-7892100D02*
X14458000Y-7932100D01*
X14458000Y-8019100D02*
X14498000Y-8059100D01*
X14498000Y-8019100D02*
X14458000Y-8059100D01*
X14458000Y-9517700D02*
X14498000Y-9557700D01*
X14498000Y-9517700D02*
X14458000Y-9557700D01*
X14496100Y-8806500D02*
X14536100Y-8846500D01*
X14536100Y-8806500D02*
X14496100Y-8846500D01*
X14496100Y-10190800D02*
X14536100Y-10230800D01*
X14536100Y-10190800D02*
X14496100Y-10230800D01*
X14527500Y-3587500D02*
X14567500Y-3627500D01*
X14567500Y-3587500D02*
X14527500Y-3627500D01*
X14534200Y-7028500D02*
X14574200Y-7068500D01*
X14574200Y-7028500D02*
X14534200Y-7068500D01*
X14546582Y-3175320D02*
X14586582Y-3215320D01*
X14586582Y-3175320D02*
X14546582Y-3215320D01*
X14554157Y-10813100D02*
X14594157Y-10853100D01*
X14594157Y-10813100D02*
X14554157Y-10853100D01*
X14559600Y-6545900D02*
X14599600Y-6585900D01*
X14599600Y-6545900D02*
X14559600Y-6585900D01*
X14580000Y-4060000D02*
X14620000Y-4100000D01*
X14620000Y-4060000D02*
X14580000Y-4100000D01*
X14580000Y-4980000D02*
X14620000Y-5020000D01*
X14620000Y-4980000D02*
X14580000Y-5020000D01*
X14580000Y-5130000D02*
X14620000Y-5170000D01*
X14620000Y-5130000D02*
X14580000Y-5170000D01*
X14580000Y-5600000D02*
X14620000Y-5640000D01*
X14620000Y-5600000D02*
X14580000Y-5640000D01*
X14590000Y-5810000D02*
X14630000Y-5850000D01*
X14630000Y-5810000D02*
X14590000Y-5850000D01*
X14602845Y-11109079D02*
X14642845Y-11149079D01*
X14642845Y-11109079D02*
X14602845Y-11149079D01*
X14610000Y-4390000D02*
X14650000Y-4430000D01*
X14650000Y-4390000D02*
X14610000Y-4430000D01*
X14610400Y-10457500D02*
X14650400Y-10497500D01*
X14650400Y-10457500D02*
X14610400Y-10497500D01*
X14628180Y-4493580D02*
X14668180Y-4533580D01*
X14668180Y-4493580D02*
X14628180Y-4533580D01*
X14630720Y-3861120D02*
X14670720Y-3901120D01*
X14670720Y-3861120D02*
X14630720Y-3901120D01*
X14635800Y-8539800D02*
X14675800Y-8579800D01*
X14675800Y-8539800D02*
X14635800Y-8579800D01*
X14635800Y-9911400D02*
X14675800Y-9951400D01*
X14675800Y-9911400D02*
X14635800Y-9951400D01*
X14640880Y-4729800D02*
X14680880Y-4769800D01*
X14680880Y-4729800D02*
X14640880Y-4769800D01*
X14648500Y-5400360D02*
X14688500Y-5440360D01*
X14688500Y-5400360D02*
X14648500Y-5440360D01*
X14648500Y-8120700D02*
X14688500Y-8160700D01*
X14688500Y-8120700D02*
X14648500Y-8160700D01*
X14650000Y-4140000D02*
X14690000Y-4180000D01*
X14690000Y-4140000D02*
X14650000Y-4180000D01*
X14655000Y-4855000D02*
X14695000Y-4895000D01*
X14695000Y-4855000D02*
X14655000Y-4895000D01*
X14661200Y-7028500D02*
X14701200Y-7068500D01*
X14701200Y-7028500D02*
X14661200Y-7068500D01*
X14670725Y-2951800D02*
X14710725Y-2991800D01*
X14710725Y-2951800D02*
X14670725Y-2991800D01*
X14673900Y-9517700D02*
X14713900Y-9557700D01*
X14713900Y-9517700D02*
X14673900Y-9557700D01*
X14686600Y-7714300D02*
X14726600Y-7754300D01*
X14726600Y-7714300D02*
X14686600Y-7754300D01*
X14686600Y-9085900D02*
X14726600Y-9125900D01*
X14726600Y-9085900D02*
X14686600Y-9125900D01*
X14712000Y-3388680D02*
X14752000Y-3428680D01*
X14752000Y-3388680D02*
X14712000Y-3428680D01*
X14717443Y-10813100D02*
X14757443Y-10853100D01*
X14757443Y-10813100D02*
X14717443Y-10853100D01*
X14740000Y-4050000D02*
X14780000Y-4090000D01*
X14780000Y-4050000D02*
X14740000Y-4090000D01*
X14750000Y-4210000D02*
X14790000Y-4250000D01*
X14790000Y-4210000D02*
X14750000Y-4250000D01*
X14757500Y-3595000D02*
X14797500Y-3635000D01*
X14797500Y-3595000D02*
X14757500Y-3635000D01*
X14776770Y-3175320D02*
X14816770Y-3215320D01*
X14816770Y-3175320D02*
X14776770Y-3215320D01*
X14813600Y-7028500D02*
X14853600Y-7068500D01*
X14853600Y-7028500D02*
X14813600Y-7068500D01*
X14844080Y-6243640D02*
X14884080Y-6283640D01*
X14884080Y-6243640D02*
X14844080Y-6283640D01*
X14860000Y-4290000D02*
X14900000Y-4330000D01*
X14900000Y-4290000D02*
X14860000Y-4330000D01*
X14860000Y-4420000D02*
X14900000Y-4460000D01*
X14900000Y-4420000D02*
X14860000Y-4460000D01*
X14880729Y-10813100D02*
X14920729Y-10853100D01*
X14920729Y-10813100D02*
X14880729Y-10853100D01*
X14884720Y-3850960D02*
X14924720Y-3890960D01*
X14924720Y-3850960D02*
X14884720Y-3890960D01*
X14889800Y-9517700D02*
X14929800Y-9557700D01*
X14929800Y-9517700D02*
X14889800Y-9557700D01*
X14900912Y-2951800D02*
X14940912Y-2991800D01*
X14940912Y-2951800D02*
X14900912Y-2991800D01*
X14902500Y-8793800D02*
X14942500Y-8833800D01*
X14942500Y-8793800D02*
X14902500Y-8833800D01*
X14902500Y-10178100D02*
X14942500Y-10218100D01*
X14942500Y-10178100D02*
X14902500Y-10218100D01*
X14915200Y-5146360D02*
X14955200Y-5186360D01*
X14955200Y-5146360D02*
X14915200Y-5186360D01*
X14932133Y-8120700D02*
X14972133Y-8160700D01*
X14972133Y-8120700D02*
X14932133Y-8160700D01*
X14934250Y-11067100D02*
X14974250Y-11107100D01*
X14974250Y-11067100D02*
X14934250Y-11107100D01*
X14966000Y-7866700D02*
X15006000Y-7906700D01*
X15006000Y-7866700D02*
X14966000Y-7906700D01*
X14991400Y-7396800D02*
X15031400Y-7436800D01*
X15031400Y-7396800D02*
X14991400Y-7436800D01*
X15006957Y-3175320D02*
X15046957Y-3215320D01*
X15046957Y-3175320D02*
X15006957Y-3215320D01*
X15016800Y-6106480D02*
X15056800Y-6146480D01*
X15056800Y-6106480D02*
X15016800Y-6146480D01*
X15016800Y-7612700D02*
X15056800Y-7652700D01*
X15056800Y-7612700D02*
X15016800Y-7652700D01*
X15042200Y-9225600D02*
X15082200Y-9265600D01*
X15082200Y-9225600D02*
X15042200Y-9265600D01*
X15042200Y-9797100D02*
X15082200Y-9837100D01*
X15082200Y-9797100D02*
X15042200Y-9837100D01*
X15044014Y-10813100D02*
X15084014Y-10853100D01*
X15084014Y-10813100D02*
X15044014Y-10853100D01*
X15054900Y-8400100D02*
X15094900Y-8440100D01*
X15094900Y-8400100D02*
X15054900Y-8440100D01*
X15067600Y-3388680D02*
X15107600Y-3428680D01*
X15107600Y-3388680D02*
X15067600Y-3428680D01*
X15105700Y-9517700D02*
X15145700Y-9557700D01*
X15145700Y-9517700D02*
X15105700Y-9557700D01*
X15131100Y-2951800D02*
X15171100Y-2991800D01*
X15171100Y-2951800D02*
X15131100Y-2991800D01*
X15164437Y-11067100D02*
X15204437Y-11107100D01*
X15204437Y-11067100D02*
X15164437Y-11107100D01*
X15169200Y-7396800D02*
X15209200Y-7436800D01*
X15209200Y-7396800D02*
X15169200Y-7436800D01*
X15180000Y-4430000D02*
X15220000Y-4470000D01*
X15220000Y-4430000D02*
X15180000Y-4470000D01*
X15207300Y-10813100D02*
X15247300Y-10853100D01*
X15247300Y-10813100D02*
X15207300Y-10853100D01*
X15215767Y-8120700D02*
X15255767Y-8160700D01*
X15255767Y-8120700D02*
X15215767Y-8160700D01*
X15230000Y-4042650D02*
X15270000Y-4082650D01*
X15270000Y-4042650D02*
X15230000Y-4082650D01*
X15232700Y-5148900D02*
X15272700Y-5188900D01*
X15272700Y-5148900D02*
X15232700Y-5188900D01*
X15232700Y-6685600D02*
X15272700Y-6725600D01*
X15272700Y-6685600D02*
X15232700Y-6725600D01*
X15237145Y-3175320D02*
X15277145Y-3215320D01*
X15277145Y-3175320D02*
X15237145Y-3215320D01*
X15245400Y-4866960D02*
X15285400Y-4906960D01*
X15285400Y-4866960D02*
X15245400Y-4906960D01*
X15266567Y-7612700D02*
X15306567Y-7652700D01*
X15306567Y-7612700D02*
X15266567Y-7652700D01*
X15270000Y-4210000D02*
X15310000Y-4250000D01*
X15310000Y-4210000D02*
X15270000Y-4250000D01*
X15283500Y-5669600D02*
X15323500Y-5709600D01*
X15323500Y-5669600D02*
X15283500Y-5709600D01*
X15283500Y-7866700D02*
X15323500Y-7906700D01*
X15323500Y-7866700D02*
X15283500Y-7906700D01*
X15308900Y-6253800D02*
X15348900Y-6293800D01*
X15348900Y-6253800D02*
X15308900Y-6293800D01*
X15308900Y-10178100D02*
X15348900Y-10218100D01*
X15348900Y-10178100D02*
X15308900Y-10218100D01*
X15321600Y-8806500D02*
X15361600Y-8846500D01*
X15361600Y-8806500D02*
X15321600Y-8846500D01*
X15334300Y-9428800D02*
X15374300Y-9468800D01*
X15374300Y-9428800D02*
X15334300Y-9468800D01*
X15334300Y-9568500D02*
X15374300Y-9608500D01*
X15374300Y-9568500D02*
X15334300Y-9608500D01*
X15359700Y-3434400D02*
X15399700Y-3474400D01*
X15399700Y-3434400D02*
X15359700Y-3474400D01*
X15359700Y-7396800D02*
X15399700Y-7436800D01*
X15399700Y-7396800D02*
X15359700Y-7436800D01*
X15361287Y-2951800D02*
X15401287Y-2991800D01*
X15401287Y-2951800D02*
X15361287Y-2991800D01*
X15370586Y-10813100D02*
X15410586Y-10853100D01*
X15410586Y-10813100D02*
X15370586Y-10853100D01*
X15372400Y-3891600D02*
X15412400Y-3931600D01*
X15412400Y-3891600D02*
X15372400Y-3931600D01*
X15394625Y-11067100D02*
X15434625Y-11107100D01*
X15434625Y-11067100D02*
X15394625Y-11107100D01*
X15402880Y-4496120D02*
X15442880Y-4536120D01*
X15442880Y-4496120D02*
X15402880Y-4536120D01*
X15402880Y-5659440D02*
X15442880Y-5699440D01*
X15442880Y-5659440D02*
X15402880Y-5699440D01*
X15423200Y-4714560D02*
X15463200Y-4754560D01*
X15463200Y-4714560D02*
X15423200Y-4754560D01*
X15435900Y-6139500D02*
X15475900Y-6179500D01*
X15475900Y-6139500D02*
X15435900Y-6179500D01*
X15458760Y-3983040D02*
X15498760Y-4023040D01*
X15498760Y-3983040D02*
X15458760Y-4023040D01*
X15467332Y-3175320D02*
X15507332Y-3215320D01*
X15507332Y-3175320D02*
X15467332Y-3215320D01*
X15486700Y-9428800D02*
X15526700Y-9468800D01*
X15526700Y-9428800D02*
X15486700Y-9468800D01*
X15486700Y-9568500D02*
X15526700Y-9608500D01*
X15526700Y-9568500D02*
X15486700Y-9608500D01*
X15499400Y-8120700D02*
X15539400Y-8160700D01*
X15539400Y-8120700D02*
X15499400Y-8160700D01*
X15512100Y-5148900D02*
X15552100Y-5188900D01*
X15552100Y-5148900D02*
X15512100Y-5188900D01*
X15516333Y-7612700D02*
X15556333Y-7652700D01*
X15556333Y-7612700D02*
X15516333Y-7652700D01*
X15524800Y-7866700D02*
X15564800Y-7906700D01*
X15564800Y-7866700D02*
X15524800Y-7906700D01*
X15533871Y-10813100D02*
X15573871Y-10853100D01*
X15573871Y-10813100D02*
X15533871Y-10853100D01*
X15550000Y-9900000D02*
X15590000Y-9940000D01*
X15590000Y-9900000D02*
X15550000Y-9940000D01*
X15550000Y-10435000D02*
X15590000Y-10475000D01*
X15590000Y-10435000D02*
X15550000Y-10475000D01*
X15550200Y-4064320D02*
X15590200Y-4104320D01*
X15590200Y-4064320D02*
X15550200Y-4104320D01*
X15550200Y-6812600D02*
X15590200Y-6852600D01*
X15590200Y-6812600D02*
X15550200Y-6852600D01*
X15550200Y-7155500D02*
X15590200Y-7195500D01*
X15590200Y-7155500D02*
X15550200Y-7195500D01*
X15560000Y-10170000D02*
X15600000Y-10210000D01*
X15600000Y-10170000D02*
X15560000Y-10210000D01*
X15562900Y-5999800D02*
X15602900Y-6039800D01*
X15602900Y-5999800D02*
X15562900Y-6039800D01*
X15590000Y-9520000D02*
X15630000Y-9560000D01*
X15630000Y-9520000D02*
X15590000Y-9560000D01*
X15591475Y-2951800D02*
X15631475Y-2991800D01*
X15631475Y-2951800D02*
X15591475Y-2991800D01*
X15613700Y-3688400D02*
X15653700Y-3728400D01*
X15653700Y-3688400D02*
X15613700Y-3728400D01*
X15613700Y-8400100D02*
X15653700Y-8440100D01*
X15653700Y-8400100D02*
X15613700Y-8440100D01*
X15613700Y-8666800D02*
X15653700Y-8706800D01*
X15653700Y-8666800D02*
X15613700Y-8706800D01*
X15613700Y-8984300D02*
X15653700Y-9024300D01*
X15653700Y-8984300D02*
X15613700Y-9024300D01*
X15613700Y-9225600D02*
X15653700Y-9265600D01*
X15653700Y-9225600D02*
X15613700Y-9265600D01*
X15624812Y-11067100D02*
X15664812Y-11107100D01*
X15664812Y-11067100D02*
X15624812Y-11107100D01*
X15626400Y-5481640D02*
X15666400Y-5521640D01*
X15666400Y-5481640D02*
X15626400Y-5521640D01*
X15631480Y-4150680D02*
X15671480Y-4190680D01*
X15671480Y-4150680D02*
X15631480Y-4190680D01*
X15651800Y-4798380D02*
X15691800Y-4838380D01*
X15691800Y-4798380D02*
X15651800Y-4838380D01*
X15677200Y-6990400D02*
X15717200Y-7030400D01*
X15717200Y-6990400D02*
X15677200Y-7030400D01*
X15690000Y-9440000D02*
X15730000Y-9480000D01*
X15730000Y-9440000D02*
X15690000Y-9480000D01*
X15690000Y-9610000D02*
X15730000Y-9650000D01*
X15730000Y-9610000D02*
X15690000Y-9650000D01*
X15697520Y-3175320D02*
X15737520Y-3215320D01*
X15737520Y-3175320D02*
X15697520Y-3215320D01*
X15702600Y-6380800D02*
X15742600Y-6420800D01*
X15742600Y-6380800D02*
X15702600Y-6420800D01*
X15712760Y-4226880D02*
X15752760Y-4266880D01*
X15752760Y-4226880D02*
X15712760Y-4266880D01*
X15727766Y-4921596D02*
X15767766Y-4961596D01*
X15767766Y-4921596D02*
X15727766Y-4961596D01*
X15737500Y-5685000D02*
X15777500Y-5725000D01*
X15777500Y-5685000D02*
X15737500Y-5725000D01*
X15748320Y-3348040D02*
X15788320Y-3388040D01*
X15788320Y-3348040D02*
X15748320Y-3388040D01*
X15760000Y-7710000D02*
X15800000Y-7750000D01*
X15800000Y-7710000D02*
X15760000Y-7750000D01*
X15780000Y-10819354D02*
X15820000Y-10859354D01*
X15820000Y-10819354D02*
X15780000Y-10859354D01*
X15783880Y-4303080D02*
X15823880Y-4343080D01*
X15823880Y-4303080D02*
X15783880Y-4343080D01*
X15785100Y-6079148D02*
X15825100Y-6119148D01*
X15825100Y-6079148D02*
X15785100Y-6119148D01*
X15804200Y-3891600D02*
X15844200Y-3931600D01*
X15844200Y-3891600D02*
X15804200Y-3931600D01*
X15817500Y-5560000D02*
X15857500Y-5600000D01*
X15857500Y-5560000D02*
X15817500Y-5600000D01*
X15821662Y-2951800D02*
X15861662Y-2991800D01*
X15861662Y-2951800D02*
X15821662Y-2991800D01*
X15855000Y-11067100D02*
X15895000Y-11107100D01*
X15895000Y-11067100D02*
X15855000Y-11107100D01*
X15860080Y-4374200D02*
X15900080Y-4414200D01*
X15900080Y-4374200D02*
X15860080Y-4414200D01*
X15890066Y-7498283D02*
X15930066Y-7538283D01*
X15930066Y-7498283D02*
X15890066Y-7538283D01*
X15890560Y-3469960D02*
X15930560Y-3509960D01*
X15930560Y-3469960D02*
X15890560Y-3509960D01*
X15905000Y-10437500D02*
X15945000Y-10477500D01*
X15945000Y-10437500D02*
X15905000Y-10477500D01*
X15918500Y-6634800D02*
X15958500Y-6674800D01*
X15958500Y-6634800D02*
X15918500Y-6674800D01*
X15918500Y-9759000D02*
X15958500Y-9799000D01*
X15958500Y-9759000D02*
X15918500Y-9799000D01*
X15918500Y-9962200D02*
X15958500Y-10002200D01*
X15958500Y-9962200D02*
X15918500Y-10002200D01*
X15930000Y-8810000D02*
X15970000Y-8850000D01*
X15970000Y-8810000D02*
X15930000Y-8850000D01*
X15931200Y-6380800D02*
X15971200Y-6420800D01*
X15971200Y-6380800D02*
X15931200Y-6420800D01*
X15931200Y-8666800D02*
X15971200Y-8706800D01*
X15971200Y-8666800D02*
X15931200Y-8706800D01*
X15931200Y-8971600D02*
X15971200Y-9011600D01*
X15971200Y-8971600D02*
X15931200Y-9011600D01*
X15931200Y-9225600D02*
X15971200Y-9265600D01*
X15971200Y-9225600D02*
X15931200Y-9265600D01*
X15935000Y-10607500D02*
X15975000Y-10647500D01*
X15975000Y-10607500D02*
X15935000Y-10647500D01*
X15941360Y-4455480D02*
X15981360Y-4495480D01*
X15981360Y-4455480D02*
X15941360Y-4495480D01*
X15943900Y-8400100D02*
X15983900Y-8440100D01*
X15983900Y-8400100D02*
X15943900Y-8440100D01*
X15990000Y-10819354D02*
X16030000Y-10859354D01*
X16030000Y-10819354D02*
X15990000Y-10859354D01*
X15997240Y-3576640D02*
X16037240Y-3616640D01*
X16037240Y-3576640D02*
X15997240Y-3616640D01*
X16013450Y-5725000D02*
X16053450Y-5765000D01*
X16053450Y-5725000D02*
X16013450Y-5765000D01*
X16020100Y-4082100D02*
X16060100Y-4122100D01*
X16060100Y-4082100D02*
X16020100Y-4122100D01*
X16030000Y-7680000D02*
X16070000Y-7720000D01*
X16070000Y-7680000D02*
X16030000Y-7720000D01*
X16032800Y-4526600D02*
X16072800Y-4566600D01*
X16072800Y-4526600D02*
X16032800Y-4566600D01*
X16032800Y-6238560D02*
X16072800Y-6278560D01*
X16072800Y-6238560D02*
X16032800Y-6278560D01*
X16043010Y-7542443D02*
X16083010Y-7582443D01*
X16083010Y-7542443D02*
X16043010Y-7582443D01*
X16050000Y-5572500D02*
X16090000Y-5612500D01*
X16090000Y-5572500D02*
X16050000Y-5612500D01*
X16050000Y-7792500D02*
X16090000Y-7832500D01*
X16090000Y-7792500D02*
X16050000Y-7832500D01*
X16051850Y-2951800D02*
X16091850Y-2991800D01*
X16091850Y-2951800D02*
X16051850Y-2991800D01*
X16070900Y-9619300D02*
X16110900Y-9659300D01*
X16110900Y-9619300D02*
X16070900Y-9659300D01*
X16070900Y-9847900D02*
X16110900Y-9887900D01*
X16110900Y-9847900D02*
X16070900Y-9887900D01*
X16085187Y-11067100D02*
X16125187Y-11107100D01*
X16125187Y-11067100D02*
X16085187Y-11107100D01*
X16109000Y-3683320D02*
X16149000Y-3723320D01*
X16149000Y-3683320D02*
X16109000Y-3723320D01*
X16130000Y-10810000D02*
X16170000Y-10850000D01*
X16170000Y-10810000D02*
X16130000Y-10850000D01*
X16136807Y-10646807D02*
X16176807Y-10686807D01*
X16176807Y-10646807D02*
X16136807Y-10686807D01*
X16150910Y-3129600D02*
X16190910Y-3169600D01*
X16190910Y-3129600D02*
X16150910Y-3169600D01*
X16167500Y-10477500D02*
X16207500Y-10517500D01*
X16207500Y-10477500D02*
X16167500Y-10517500D01*
X16188310Y-7665000D02*
X16228310Y-7705000D01*
X16228310Y-7665000D02*
X16188310Y-7705000D01*
X16190000Y-10075000D02*
X16230000Y-10115000D01*
X16230000Y-10075000D02*
X16190000Y-10115000D01*
X16205520Y-4709480D02*
X16245520Y-4749480D01*
X16245520Y-4709480D02*
X16205520Y-4749480D01*
X16230920Y-6223320D02*
X16270920Y-6263320D01*
X16270920Y-6223320D02*
X16230920Y-6263320D01*
X16236000Y-4259900D02*
X16276000Y-4299900D01*
X16276000Y-4259900D02*
X16236000Y-4299900D01*
X16236000Y-6609400D02*
X16276000Y-6649400D01*
X16276000Y-6609400D02*
X16236000Y-6649400D01*
X16282037Y-2951800D02*
X16322037Y-2991800D01*
X16322037Y-2951800D02*
X16282037Y-2991800D01*
X16290000Y-10810000D02*
X16330000Y-10850000D01*
X16330000Y-10810000D02*
X16290000Y-10850000D01*
X16315375Y-11067100D02*
X16355375Y-11107100D01*
X16355375Y-11067100D02*
X16315375Y-11107100D01*
X16322360Y-7103690D02*
X16362360Y-7143690D01*
X16362360Y-7103690D02*
X16322360Y-7143690D01*
X16342680Y-6949760D02*
X16382680Y-6989760D01*
X16382680Y-6949760D02*
X16342680Y-6989760D01*
X16352840Y-3723960D02*
X16392840Y-3763960D01*
X16392840Y-3723960D02*
X16352840Y-3763960D01*
X16368080Y-4836480D02*
X16408080Y-4876480D01*
X16408080Y-4836480D02*
X16368080Y-4876480D01*
X16373160Y-5588320D02*
X16413160Y-5628320D01*
X16413160Y-5588320D02*
X16373160Y-5628320D01*
X16375700Y-3129600D02*
X16415700Y-3169600D01*
X16415700Y-3129600D02*
X16375700Y-3169600D01*
X16376000Y-4527800D02*
X16416000Y-4567800D01*
X16416000Y-4527800D02*
X16376000Y-4567800D01*
X16413800Y-6177600D02*
X16453800Y-6217600D01*
X16453800Y-6177600D02*
X16413800Y-6217600D01*
X16426500Y-8362000D02*
X16466500Y-8402000D01*
X16466500Y-8362000D02*
X16426500Y-8402000D01*
X16426500Y-8518633D02*
X16466500Y-8558633D01*
X16466500Y-8518633D02*
X16426500Y-8558633D01*
X16426500Y-8675267D02*
X16466500Y-8715267D01*
X16466500Y-8675267D02*
X16426500Y-8715267D01*
X16426500Y-8831900D02*
X16466500Y-8871900D01*
X16466500Y-8831900D02*
X16426500Y-8871900D01*
X16426500Y-9009700D02*
X16466500Y-9049700D01*
X16466500Y-9009700D02*
X16426500Y-9049700D01*
X16426500Y-9166333D02*
X16466500Y-9206333D01*
X16466500Y-9166333D02*
X16426500Y-9206333D01*
X16426500Y-9322967D02*
X16466500Y-9362967D01*
X16466500Y-9322967D02*
X16426500Y-9362967D01*
X16426500Y-9479600D02*
X16466500Y-9519600D01*
X16466500Y-9479600D02*
X16426500Y-9519600D01*
X16426500Y-9657400D02*
X16466500Y-9697400D01*
X16466500Y-9657400D02*
X16426500Y-9697400D01*
X16426500Y-9814033D02*
X16466500Y-9854033D01*
X16466500Y-9814033D02*
X16426500Y-9854033D01*
X16426500Y-9970667D02*
X16466500Y-10010667D01*
X16466500Y-9970667D02*
X16426500Y-10010667D01*
X16426500Y-10127300D02*
X16466500Y-10167300D01*
X16466500Y-10127300D02*
X16426500Y-10167300D01*
X16426500Y-10292400D02*
X16466500Y-10332400D01*
X16466500Y-10292400D02*
X16426500Y-10332400D01*
X16426500Y-10449033D02*
X16466500Y-10489033D01*
X16466500Y-10449033D02*
X16426500Y-10489033D01*
X16426500Y-10605667D02*
X16466500Y-10645667D01*
X16466500Y-10605667D02*
X16426500Y-10645667D01*
X16426500Y-10762300D02*
X16466500Y-10802300D01*
X16466500Y-10762300D02*
X16426500Y-10802300D01*
X16437500Y-7492500D02*
X16477500Y-7532500D01*
X16477500Y-7492500D02*
X16437500Y-7532500D01*
X16439200Y-4259900D02*
X16479200Y-4299900D01*
X16479200Y-4259900D02*
X16439200Y-4299900D01*
X16450000Y-7700000D02*
X16490000Y-7740000D01*
X16490000Y-7700000D02*
X16450000Y-7740000D01*
X16464600Y-6771960D02*
X16504600Y-6811960D01*
X16504600Y-6771960D02*
X16464600Y-6811960D01*
X16479840Y-6091240D02*
X16519840Y-6131240D01*
X16519840Y-6091240D02*
X16479840Y-6131240D01*
X16480000Y-7050000D02*
X16520000Y-7090000D01*
X16520000Y-7050000D02*
X16480000Y-7090000D01*
X16512225Y-2951800D02*
X16552225Y-2991800D01*
X16552225Y-2951800D02*
X16512225Y-2991800D01*
X16528100Y-3574100D02*
X16568100Y-3614100D01*
X16568100Y-3574100D02*
X16528100Y-3614100D01*
X16528100Y-3739200D02*
X16568100Y-3779200D01*
X16568100Y-3739200D02*
X16528100Y-3779200D01*
X16540800Y-4958400D02*
X16580800Y-4998400D01*
X16580800Y-4958400D02*
X16540800Y-4998400D01*
X16545562Y-11067100D02*
X16585562Y-11107100D01*
X16585562Y-11067100D02*
X16545562Y-11107100D01*
X16566200Y-7561900D02*
X16606200Y-7601900D01*
X16606200Y-7561900D02*
X16566200Y-7601900D01*
X16583133Y-8184200D02*
X16623133Y-8224200D01*
X16623133Y-8184200D02*
X16583133Y-8224200D01*
X16591600Y-5644200D02*
X16631600Y-5684200D01*
X16631600Y-5644200D02*
X16591600Y-5684200D01*
X16592500Y-5455000D02*
X16632500Y-5495000D01*
X16632500Y-5455000D02*
X16592500Y-5495000D01*
X16605887Y-3129600D02*
X16645887Y-3169600D01*
X16645887Y-3129600D02*
X16605887Y-3169600D01*
X16622080Y-6766880D02*
X16662080Y-6806880D01*
X16662080Y-6766880D02*
X16622080Y-6806880D01*
X16637320Y-7081840D02*
X16677320Y-7121840D01*
X16677320Y-7081840D02*
X16637320Y-7121840D01*
X16677960Y-4963480D02*
X16717960Y-5003480D01*
X16717960Y-4963480D02*
X16677960Y-5003480D01*
X16693200Y-5885500D02*
X16733200Y-5925500D01*
X16733200Y-5885500D02*
X16693200Y-5925500D01*
X16737500Y-3420000D02*
X16777500Y-3460000D01*
X16777500Y-3420000D02*
X16737500Y-3460000D01*
X16739767Y-8184200D02*
X16779767Y-8224200D01*
X16779767Y-8184200D02*
X16739767Y-8224200D01*
X16742412Y-2951800D02*
X16782413Y-2991800D01*
X16782413Y-2951800D02*
X16742412Y-2991800D01*
X16775750Y-11067100D02*
X16815750Y-11107100D01*
X16815750Y-11067100D02*
X16775750Y-11107100D01*
X16779560Y-6086160D02*
X16819560Y-6126160D01*
X16819560Y-6086160D02*
X16779560Y-6126160D01*
X16836075Y-3129600D02*
X16876075Y-3169600D01*
X16876075Y-3129600D02*
X16836075Y-3169600D01*
X16845600Y-10800400D02*
X16885600Y-10840400D01*
X16885600Y-10800400D02*
X16845600Y-10840400D01*
X16855760Y-5740720D02*
X16895760Y-5780720D01*
X16895760Y-5740720D02*
X16855760Y-5780720D01*
X16896400Y-8184200D02*
X16936400Y-8224200D01*
X16936400Y-8184200D02*
X16896400Y-8224200D01*
X16934500Y-7600000D02*
X16974500Y-7640000D01*
X16974500Y-7600000D02*
X16934500Y-7640000D01*
X16947200Y-4501200D02*
X16987200Y-4541200D01*
X16987200Y-4501200D02*
X16947200Y-4541200D01*
X16947200Y-7282500D02*
X16987200Y-7322500D01*
X16987200Y-7282500D02*
X16947200Y-7322500D01*
X16962440Y-3713800D02*
X17002440Y-3753800D01*
X17002440Y-3713800D02*
X16962440Y-3753800D01*
X16972600Y-2951800D02*
X17012600Y-2991800D01*
X17012600Y-2951800D02*
X16972600Y-2991800D01*
X16985300Y-10686100D02*
X17025300Y-10726100D01*
X17025300Y-10686100D02*
X16985300Y-10726100D01*
X16998000Y-4927920D02*
X17038000Y-4967920D01*
X17038000Y-4927920D02*
X16998000Y-4967920D01*
X16998000Y-5237800D02*
X17038000Y-5277800D01*
X17038000Y-5237800D02*
X16998000Y-5277800D01*
X16998000Y-5580700D02*
X17038000Y-5620700D01*
X17038000Y-5580700D02*
X16998000Y-5620700D01*
X16998000Y-5910900D02*
X17038000Y-5950900D01*
X17038000Y-5910900D02*
X16998000Y-5950900D01*
X17005938Y-11067100D02*
X17045938Y-11107100D01*
X17045938Y-11067100D02*
X17005938Y-11107100D01*
X17061500Y-6917750D02*
X17101500Y-6957750D01*
X17101500Y-6917750D02*
X17061500Y-6957750D01*
X17066263Y-3129600D02*
X17106263Y-3169600D01*
X17106263Y-3129600D02*
X17066263Y-3169600D01*
X17099600Y-10533700D02*
X17139600Y-10573700D01*
X17139600Y-10533700D02*
X17099600Y-10573700D01*
X17112300Y-7092000D02*
X17152300Y-7132000D01*
X17152300Y-7092000D02*
X17112300Y-7132000D01*
X17112300Y-9124000D02*
X17152300Y-9164000D01*
X17152300Y-9124000D02*
X17112300Y-9164000D01*
X17119920Y-4511360D02*
X17159920Y-4551360D01*
X17159920Y-4511360D02*
X17119920Y-4551360D01*
X17202788Y-2951800D02*
X17242788Y-2991800D01*
X17242788Y-2951800D02*
X17202788Y-2991800D01*
X17236125Y-11067100D02*
X17276125Y-11107100D01*
X17276125Y-11067100D02*
X17236125Y-11107100D01*
X17239300Y-6917750D02*
X17279300Y-6957750D01*
X17279300Y-6917750D02*
X17239300Y-6957750D01*
X17239300Y-7612700D02*
X17279300Y-7652700D01*
X17279300Y-7612700D02*
X17239300Y-7652700D01*
X17239300Y-7815900D02*
X17279300Y-7855900D01*
X17279300Y-7815900D02*
X17239300Y-7855900D01*
X17264700Y-9124000D02*
X17304700Y-9164000D01*
X17304700Y-9124000D02*
X17264700Y-9164000D01*
X17264700Y-10381300D02*
X17304700Y-10421300D01*
X17304700Y-10381300D02*
X17264700Y-10421300D01*
X17290100Y-5402900D02*
X17330100Y-5442900D01*
X17330100Y-5402900D02*
X17290100Y-5442900D01*
X17302800Y-3129600D02*
X17342800Y-3169600D01*
X17342800Y-3129600D02*
X17302800Y-3169600D01*
X17302800Y-5695000D02*
X17342800Y-5735000D01*
X17342800Y-5695000D02*
X17302800Y-5735000D01*
X17315500Y-7295200D02*
X17355500Y-7335200D01*
X17355500Y-7295200D02*
X17315500Y-7335200D01*
X17328200Y-6088700D02*
X17368200Y-6128700D01*
X17368200Y-6088700D02*
X17328200Y-6128700D01*
X17353600Y-7092000D02*
X17393600Y-7132000D01*
X17393600Y-7092000D02*
X17353600Y-7132000D01*
X17361220Y-4485960D02*
X17401220Y-4525960D01*
X17401220Y-4485960D02*
X17361220Y-4525960D01*
X17404400Y-6177600D02*
X17444400Y-6217600D01*
X17444400Y-6177600D02*
X17404400Y-6217600D01*
X17417100Y-9124000D02*
X17457100Y-9164000D01*
X17457100Y-9124000D02*
X17417100Y-9164000D01*
X17417100Y-10228900D02*
X17457100Y-10268900D01*
X17457100Y-10228900D02*
X17417100Y-10268900D01*
X17432975Y-2951800D02*
X17472975Y-2991800D01*
X17472975Y-2951800D02*
X17432975Y-2991800D01*
X17455200Y-7371400D02*
X17495200Y-7411400D01*
X17495200Y-7371400D02*
X17455200Y-7411400D01*
X17466313Y-11067100D02*
X17506313Y-11107100D01*
X17506313Y-11067100D02*
X17466313Y-11107100D01*
X17470440Y-4978720D02*
X17510440Y-5018720D01*
X17510440Y-4978720D02*
X17470440Y-5018720D01*
X17518700Y-6164900D02*
X17558700Y-6204900D01*
X17558700Y-6164900D02*
X17518700Y-6204900D01*
X17526320Y-4094800D02*
X17566320Y-4134800D01*
X17566320Y-4094800D02*
X17526320Y-4134800D01*
X17544100Y-3142300D02*
X17584100Y-3182300D01*
X17584100Y-3142300D02*
X17544100Y-3182300D01*
X17551720Y-4485960D02*
X17591720Y-4525960D01*
X17591720Y-4485960D02*
X17551720Y-4525960D01*
X17556800Y-7092000D02*
X17596800Y-7132000D01*
X17596800Y-7092000D02*
X17556800Y-7132000D01*
X17569500Y-10051100D02*
X17609500Y-10091100D01*
X17609500Y-10051100D02*
X17569500Y-10091100D01*
X17582200Y-9124000D02*
X17622200Y-9164000D01*
X17622200Y-9124000D02*
X17582200Y-9164000D01*
X17597440Y-3464880D02*
X17637440Y-3504880D01*
X17637440Y-3464880D02*
X17597440Y-3504880D01*
X17607600Y-7460300D02*
X17647600Y-7500300D01*
X17647600Y-7460300D02*
X17607600Y-7500300D01*
X17658400Y-5936300D02*
X17698400Y-5976300D01*
X17698400Y-5936300D02*
X17658400Y-5976300D01*
X17663163Y-2951800D02*
X17703163Y-2991800D01*
X17703163Y-2951800D02*
X17663163Y-2991800D01*
X17696500Y-4983800D02*
X17736500Y-5023800D01*
X17736500Y-4983800D02*
X17696500Y-5023800D01*
X17696500Y-5161600D02*
X17736500Y-5201600D01*
X17736500Y-5161600D02*
X17696500Y-5201600D01*
X17696500Y-5377500D02*
X17736500Y-5417500D01*
X17736500Y-5377500D02*
X17696500Y-5417500D01*
X17696500Y-11067100D02*
X17736500Y-11107100D01*
X17736500Y-11067100D02*
X17696500Y-11107100D01*
X17712500Y-3335000D02*
X17752500Y-3375000D01*
X17752500Y-3335000D02*
X17712500Y-3375000D01*
X17747300Y-7790500D02*
X17787300Y-7830500D01*
X17787300Y-7790500D02*
X17747300Y-7830500D01*
X17747300Y-7981000D02*
X17787300Y-8021000D01*
X17787300Y-7981000D02*
X17747300Y-8021000D01*
X17747300Y-8146100D02*
X17787300Y-8186100D01*
X17787300Y-8146100D02*
X17747300Y-8186100D01*
X17747300Y-8323900D02*
X17787300Y-8363900D01*
X17787300Y-8323900D02*
X17747300Y-8363900D01*
X17747300Y-9124000D02*
X17787300Y-9164000D01*
X17787300Y-9124000D02*
X17747300Y-9164000D01*
X17754920Y-4485960D02*
X17794920Y-4525960D01*
X17794920Y-4485960D02*
X17754920Y-4525960D01*
X17785400Y-9987600D02*
X17825400Y-10027600D01*
X17825400Y-9987600D02*
X17785400Y-10027600D01*
X17802500Y-5560000D02*
X17842500Y-5600000D01*
X17842500Y-5560000D02*
X17802500Y-5600000D01*
X17851440Y-6802440D02*
X17891440Y-6842440D01*
X17891440Y-6802440D02*
X17851440Y-6842440D01*
X17881920Y-3149920D02*
X17921920Y-3189920D01*
X17921920Y-3149920D02*
X17881920Y-3189920D01*
X17893350Y-2951800D02*
X17933350Y-2991800D01*
X17933350Y-2951800D02*
X17893350Y-2991800D01*
X17899700Y-7282500D02*
X17939700Y-7322500D01*
X17939700Y-7282500D02*
X17899700Y-7322500D01*
X17899700Y-9124000D02*
X17939700Y-9164000D01*
X17939700Y-9124000D02*
X17899700Y-9164000D01*
X17926688Y-11067100D02*
X17966688Y-11107100D01*
X17966688Y-11067100D02*
X17926688Y-11107100D01*
X17983520Y-4485960D02*
X18023520Y-4525960D01*
X18023520Y-4485960D02*
X17983520Y-4525960D01*
X18052100Y-9124000D02*
X18092100Y-9164000D01*
X18092100Y-9124000D02*
X18052100Y-9164000D01*
X18090200Y-4841560D02*
X18130200Y-4881560D01*
X18130200Y-4841560D02*
X18090200Y-4881560D01*
X18091525Y-6201675D02*
X18131525Y-6241675D01*
X18131525Y-6201675D02*
X18091525Y-6241675D01*
X18100360Y-3322640D02*
X18140360Y-3362640D01*
X18140360Y-3322640D02*
X18100360Y-3362640D01*
X18123538Y-2951800D02*
X18163538Y-2991800D01*
X18163538Y-2951800D02*
X18123538Y-2991800D01*
X18153700Y-5466400D02*
X18193700Y-5506400D01*
X18193700Y-5466400D02*
X18153700Y-5506400D01*
X18156875Y-11067100D02*
X18196875Y-11107100D01*
X18196875Y-11067100D02*
X18156875Y-11107100D01*
X18217200Y-9124000D02*
X18257200Y-9164000D01*
X18257200Y-9124000D02*
X18217200Y-9164000D01*
X18227360Y-4333560D02*
X18267360Y-4373560D01*
X18267360Y-4333560D02*
X18227360Y-4373560D01*
X18242600Y-7447600D02*
X18282600Y-7487600D01*
X18282600Y-7447600D02*
X18242600Y-7487600D01*
X18278160Y-3094040D02*
X18318160Y-3134040D01*
X18318160Y-3094040D02*
X18278160Y-3134040D01*
X18278160Y-5065080D02*
X18318160Y-5105080D01*
X18318160Y-5065080D02*
X18278160Y-5105080D01*
X18293400Y-7193600D02*
X18333400Y-7233600D01*
X18333400Y-7193600D02*
X18293400Y-7233600D01*
X18323880Y-3530920D02*
X18363880Y-3570920D01*
X18363880Y-3530920D02*
X18323880Y-3570920D01*
X18356900Y-6228400D02*
X18396900Y-6268400D01*
X18396900Y-6228400D02*
X18356900Y-6268400D01*
X18369600Y-5898200D02*
X18409600Y-5938200D01*
X18409600Y-5898200D02*
X18369600Y-5938200D01*
X18387063Y-11067100D02*
X18427063Y-11107100D01*
X18427063Y-11067100D02*
X18387063Y-11107100D01*
X18392460Y-3233740D02*
X18432460Y-3273740D01*
X18432460Y-3233740D02*
X18392460Y-3273740D01*
X18395000Y-5733100D02*
X18435000Y-5773100D01*
X18435000Y-5733100D02*
X18395000Y-5773100D01*
X18420400Y-7447600D02*
X18460400Y-7487600D01*
X18460400Y-7447600D02*
X18420400Y-7487600D01*
X18433100Y-5199700D02*
X18473100Y-5239700D01*
X18473100Y-5199700D02*
X18433100Y-5239700D01*
X18486440Y-4384360D02*
X18526440Y-4424360D01*
X18526440Y-4384360D02*
X18486440Y-4424360D01*
X18522000Y-7180900D02*
X18562000Y-7220900D01*
X18562000Y-7180900D02*
X18522000Y-7220900D01*
X18527080Y-4811080D02*
X18567080Y-4851080D01*
X18567080Y-4811080D02*
X18527080Y-4851080D01*
X18547400Y-6495100D02*
X18587400Y-6535100D01*
X18587400Y-6495100D02*
X18547400Y-6535100D01*
X18547400Y-6596700D02*
X18587400Y-6636700D01*
X18587400Y-6596700D02*
X18547400Y-6636700D01*
X18547400Y-6723700D02*
X18587400Y-6763700D01*
X18587400Y-6723700D02*
X18547400Y-6763700D01*
X18547400Y-6825300D02*
X18587400Y-6865300D01*
X18587400Y-6825300D02*
X18547400Y-6865300D01*
X18585500Y-7790500D02*
X18625500Y-7830500D01*
X18625500Y-7790500D02*
X18585500Y-7830500D01*
X18585500Y-9073200D02*
X18625500Y-9113200D01*
X18625500Y-9073200D02*
X18585500Y-9113200D01*
X18623600Y-5479100D02*
X18663600Y-5519100D01*
X18663600Y-5479100D02*
X18623600Y-5519100D01*
X18623600Y-5898200D02*
X18663600Y-5938200D01*
X18663600Y-5898200D02*
X18623600Y-5938200D01*
X18636300Y-7447600D02*
X18676300Y-7487600D01*
X18676300Y-7447600D02*
X18636300Y-7487600D01*
X18649000Y-5060000D02*
X18689000Y-5100000D01*
X18689000Y-5060000D02*
X18649000Y-5100000D01*
X18649000Y-8222300D02*
X18689000Y-8262300D01*
X18689000Y-8222300D02*
X18649000Y-8262300D01*
X18649000Y-8641400D02*
X18689000Y-8681400D01*
X18689000Y-8641400D02*
X18649000Y-8681400D01*
X18659160Y-4694240D02*
X18699160Y-4734240D01*
X18699160Y-4694240D02*
X18659160Y-4734240D01*
X18725200Y-7790500D02*
X18765200Y-7830500D01*
X18765200Y-7790500D02*
X18725200Y-7830500D01*
X18737900Y-9073200D02*
X18777900Y-9113200D01*
X18777900Y-9073200D02*
X18737900Y-9113200D01*
X18763300Y-4209100D02*
X18803300Y-4249100D01*
X18803300Y-4209100D02*
X18763300Y-4249100D01*
X18763300Y-4386900D02*
X18803300Y-4426900D01*
X18803300Y-4386900D02*
X18763300Y-4426900D01*
X18763300Y-4552000D02*
X18803300Y-4592000D01*
X18803300Y-4552000D02*
X18763300Y-4592000D01*
X18788700Y-3739200D02*
X18828700Y-3779200D01*
X18828700Y-3739200D02*
X18788700Y-3779200D01*
X18788700Y-5898200D02*
X18828700Y-5938200D01*
X18828700Y-5898200D02*
X18788700Y-5938200D01*
X18814100Y-5479100D02*
X18854100Y-5519100D01*
X18854100Y-5479100D02*
X18814100Y-5519100D01*
X18826800Y-8222300D02*
X18866800Y-8262300D01*
X18866800Y-8222300D02*
X18826800Y-8262300D01*
X18839500Y-5060000D02*
X18879500Y-5100000D01*
X18879500Y-5060000D02*
X18839500Y-5100000D01*
X18839500Y-7447600D02*
X18879500Y-7487600D01*
X18879500Y-7447600D02*
X18839500Y-7487600D01*
X18852200Y-8641400D02*
X18892200Y-8681400D01*
X18892200Y-8641400D02*
X18852200Y-8681400D01*
X18864900Y-7790500D02*
X18904900Y-7830500D01*
X18904900Y-7790500D02*
X18864900Y-7830500D01*
X18890300Y-9073200D02*
X18930300Y-9113200D01*
X18930300Y-9073200D02*
X18890300Y-9113200D01*
X18915700Y-3840800D02*
X18955700Y-3880800D01*
X18955700Y-3840800D02*
X18915700Y-3880800D01*
X18941100Y-5898200D02*
X18981100Y-5938200D01*
X18981100Y-5898200D02*
X18941100Y-5938200D01*
X18991900Y-5479100D02*
X19031900Y-5519100D01*
X19031900Y-5479100D02*
X18991900Y-5519100D01*
X19004600Y-7790500D02*
X19044600Y-7830500D01*
X19044600Y-7790500D02*
X19004600Y-7830500D01*
X19017300Y-5060000D02*
X19057300Y-5100000D01*
X19057300Y-5060000D02*
X19017300Y-5100000D01*
X19017300Y-8222300D02*
X19057300Y-8262300D01*
X19057300Y-8222300D02*
X19017300Y-8262300D01*
X19030000Y-8641400D02*
X19070000Y-8681400D01*
X19070000Y-8641400D02*
X19030000Y-8681400D01*
X19055400Y-9073200D02*
X19095400Y-9113200D01*
X19095400Y-9073200D02*
X19055400Y-9113200D01*
X19182400Y-3753487D02*
X19222400Y-3793487D01*
X19222400Y-3753487D02*
X19182400Y-3793487D01*
X19182400Y-3983675D02*
X19222400Y-4023675D01*
X19222400Y-3983675D02*
X19182400Y-4023675D01*
X19182400Y-4213863D02*
X19222400Y-4253863D01*
X19222400Y-4213863D02*
X19182400Y-4253863D01*
X19182400Y-4444050D02*
X19222400Y-4484050D01*
X19222400Y-4444050D02*
X19182400Y-4484050D01*
X19182400Y-4674238D02*
X19222400Y-4714238D01*
X19222400Y-4674238D02*
X19182400Y-4714238D01*
X19182400Y-4904425D02*
X19222400Y-4944425D01*
X19222400Y-4904425D02*
X19182400Y-4944425D01*
X19182400Y-5134613D02*
X19222400Y-5174613D01*
X19222400Y-5134613D02*
X19182400Y-5174613D01*
X19182400Y-5364800D02*
X19222400Y-5404800D01*
X19222400Y-5364800D02*
X19182400Y-5404800D01*
X19182400Y-5594987D02*
X19222400Y-5634987D01*
X19222400Y-5594987D02*
X19182400Y-5634987D01*
X19182400Y-5825175D02*
X19222400Y-5865175D01*
X19222400Y-5825175D02*
X19182400Y-5865175D01*
X19182400Y-6055362D02*
X19222400Y-6095362D01*
X19222400Y-6055362D02*
X19182400Y-6095362D01*
X19182400Y-6285550D02*
X19222400Y-6325550D01*
X19222400Y-6285550D02*
X19182400Y-6325550D01*
X19182400Y-6515737D02*
X19222400Y-6555737D01*
X19222400Y-6515737D02*
X19182400Y-6555737D01*
X19182400Y-6745925D02*
X19222400Y-6785925D01*
X19222400Y-6745925D02*
X19182400Y-6785925D01*
X19182400Y-6976112D02*
X19222400Y-7016112D01*
X19222400Y-6976112D02*
X19182400Y-7016112D01*
X19182400Y-7206300D02*
X19222400Y-7246300D01*
X19222400Y-7206300D02*
X19182400Y-7246300D01*
X19182400Y-7436487D02*
X19222400Y-7476487D01*
X19222400Y-7436487D02*
X19182400Y-7476487D01*
X19182400Y-7666675D02*
X19222400Y-7706675D01*
X19222400Y-7666675D02*
X19182400Y-7706675D01*
X19182400Y-7896862D02*
X19222400Y-7936862D01*
X19222400Y-7896862D02*
X19182400Y-7936862D01*
X19182400Y-8127050D02*
X19222400Y-8167050D01*
X19222400Y-8127050D02*
X19182400Y-8167050D01*
X19182400Y-8357237D02*
X19222400Y-8397238D01*
X19222400Y-8357237D02*
X19182400Y-8397238D01*
X19182400Y-8587425D02*
X19222400Y-8627425D01*
X19222400Y-8587425D02*
X19182400Y-8627425D01*
X19182400Y-8817613D02*
X19222400Y-8857613D01*
X19222400Y-8817613D02*
X19182400Y-8857613D01*
X19182400Y-9047800D02*
X19222400Y-9087800D01*
X19222400Y-9047800D02*
X19182400Y-9087800D01*
X19182400Y-9277988D02*
X19222400Y-9317988D01*
X19222400Y-9277988D02*
X19182400Y-9317988D01*
X19182400Y-9508175D02*
X19222400Y-9548175D01*
X19222400Y-9508175D02*
X19182400Y-9548175D01*
X19182400Y-9738363D02*
X19222400Y-9778363D01*
X19222400Y-9738363D02*
X19182400Y-9778363D01*
X19182400Y-9968550D02*
X19222400Y-10008550D01*
X19222400Y-9968550D02*
X19182400Y-10008550D01*
X19182400Y-10198738D02*
X19222400Y-10238738D01*
X19222400Y-10198738D02*
X19182400Y-10238738D01*
X19182400Y-10428925D02*
X19222400Y-10468925D01*
X19222400Y-10428925D02*
X19182400Y-10468925D01*
D13*
X11668200Y-8407400D02*
G75*
G03*
X11668200Y-8407400I-30000J0D01*
G01*
X11668200Y-8559800D02*
G75*
G03*
X11668200Y-8559800I-30000J0D01*
G01*
X12666500Y-6146800D02*
G75*
G03*
X12666500Y-6146800I-30000J0D01*
G01*
X15505000Y-5045000D02*
G75*
G03*
X15505000Y-5045000I-30000J0D01*
G01*
X16291080Y-3860800D02*
G75*
G03*
X16291080Y-3860800I-30000J0D01*
G01*
X16397760Y-4683760D02*
G75*
G03*
X16397760Y-4683760I-30000J0D01*
G01*
X17556000Y-6515100D02*
G75*
G03*
X17556000Y-6515100I-30000J0D01*
G01*
X17627120Y-3637280D02*
G75*
G03*
X17627120Y-3637280I-30000J0D01*
G01*
X17931920Y-3362960D02*
G75*
G03*
X17931920Y-3362960I-30000J0D01*
G01*
D14*
X17459400Y-7581900D02*
X17459400Y-7658100D01*
X17421300Y-7620000D02*
X17497500Y-7620000D01*
X17459400Y-7881900D02*
X17459400Y-7958100D01*
X17421300Y-7920000D02*
X17497500Y-7920000D01*
X17459400Y-8181900D02*
X17459400Y-8258100D01*
X17421300Y-8220000D02*
X17497500Y-8220000D01*
X17484800Y-5216600D02*
X17484800Y-5292800D01*
X17446700Y-5254700D02*
X17522900Y-5254700D01*
X17484800Y-5516600D02*
X17484800Y-5592800D01*
X17446700Y-5554700D02*
X17522900Y-5554700D01*
X17484800Y-5816600D02*
X17484800Y-5892800D01*
X17446700Y-5854700D02*
X17522900Y-5854700D01*
X18059400Y-7581900D02*
X18059400Y-7658100D01*
X18021300Y-7620000D02*
X18097500Y-7620000D01*
X18059400Y-8181900D02*
X18059400Y-8258100D01*
X18021300Y-8220000D02*
X18097500Y-8220000D01*
X18084800Y-5216600D02*
X18084800Y-5292800D01*
X18046700Y-5254700D02*
X18122900Y-5254700D01*
X18084800Y-5816600D02*
X18084800Y-5892800D01*
X18046700Y-5854700D02*
X18122900Y-5854700D01*
D15*
X13388684Y-10480385D02*
X13388684Y-10423816D01*
X13332115Y-10423816D01*
X13332115Y-10480385D01*
X13388684Y-10480385D01*
X14404684Y-7521284D02*
X14404684Y-7464715D01*
X14348115Y-7464715D01*
X14348115Y-7521284D01*
X14404684Y-7521284D01*
X15179384Y-6441784D02*
X15179384Y-6385215D01*
X15122815Y-6385215D01*
X15122815Y-6441784D01*
X15179384Y-6441784D01*
X15395284Y-5882984D02*
X15395284Y-5826415D01*
X15338715Y-5826415D01*
X15338715Y-5882984D01*
X15395284Y-5882984D01*
X15865184Y-6517984D02*
X15865184Y-6461415D01*
X15808615Y-6461415D01*
X15808615Y-6517984D01*
X15865184Y-6517984D01*
D16*
X10800000Y-3510000D02*
X10960000Y-3350000D01*
X10800000Y-3190000D01*
X10640000Y-3350000D01*
X10800000Y-3510000D01*
X10800000Y-10860000D02*
X10960000Y-10700000D01*
X10800000Y-10540000D01*
X10640000Y-10700000D01*
X10800000Y-10860000D01*
X18800000Y-3510000D02*
X18960000Y-3350000D01*
X18800000Y-3190000D01*
X18640000Y-3350000D01*
X18800000Y-3510000D01*
X18800000Y-10860000D02*
X18960000Y-10700000D01*
X18800000Y-10540000D01*
X18640000Y-10700000D01*
X18800000Y-10860000D01*
D11*
X10555103Y-12336984D02*
X10555103Y-12136984D01*
X10555103Y-12136984D02*
X10602722Y-12136984D01*
X10602722Y-12136984D02*
X10631293Y-12146508D01*
X10631293Y-12146508D02*
X10650341Y-12165555D01*
X10650341Y-12165555D02*
X10659865Y-12184603D01*
X10659865Y-12184603D02*
X10669389Y-12222698D01*
X10669389Y-12222698D02*
X10669389Y-12251269D01*
X10669389Y-12251269D02*
X10659865Y-12289365D01*
X10659865Y-12289365D02*
X10650341Y-12308412D01*
X10650341Y-12308412D02*
X10631293Y-12327460D01*
X10631293Y-12327460D02*
X10602722Y-12336984D01*
X10602722Y-12336984D02*
X10555103Y-12336984D01*
X10755103Y-12336984D02*
X10755103Y-12203650D01*
X10755103Y-12241746D02*
X10764627Y-12222698D01*
X10764627Y-12222698D02*
X10774151Y-12213174D01*
X10774151Y-12213174D02*
X10793198Y-12203650D01*
X10793198Y-12203650D02*
X10812246Y-12203650D01*
X10878912Y-12336984D02*
X10878912Y-12203650D01*
X10878912Y-12136984D02*
X10869389Y-12146508D01*
X10869389Y-12146508D02*
X10878912Y-12156031D01*
X10878912Y-12156031D02*
X10888436Y-12146508D01*
X10888436Y-12146508D02*
X10878912Y-12136984D01*
X10878912Y-12136984D02*
X10878912Y-12156031D01*
X11002722Y-12336984D02*
X10983674Y-12327460D01*
X10983674Y-12327460D02*
X10974151Y-12308412D01*
X10974151Y-12308412D02*
X10974151Y-12136984D01*
X11107484Y-12336984D02*
X11088436Y-12327460D01*
X11088436Y-12327460D02*
X11078912Y-12308412D01*
X11078912Y-12308412D02*
X11078912Y-12136984D01*
X11336055Y-12336984D02*
X11336055Y-12136984D01*
X11336055Y-12136984D02*
X11402722Y-12279841D01*
X11402722Y-12279841D02*
X11469389Y-12136984D01*
X11469389Y-12136984D02*
X11469389Y-12336984D01*
X11650341Y-12336984D02*
X11650341Y-12232222D01*
X11650341Y-12232222D02*
X11640817Y-12213174D01*
X11640817Y-12213174D02*
X11621770Y-12203650D01*
X11621770Y-12203650D02*
X11583674Y-12203650D01*
X11583674Y-12203650D02*
X11564627Y-12213174D01*
X11650341Y-12327460D02*
X11631293Y-12336984D01*
X11631293Y-12336984D02*
X11583674Y-12336984D01*
X11583674Y-12336984D02*
X11564627Y-12327460D01*
X11564627Y-12327460D02*
X11555103Y-12308412D01*
X11555103Y-12308412D02*
X11555103Y-12289365D01*
X11555103Y-12289365D02*
X11564627Y-12270317D01*
X11564627Y-12270317D02*
X11583674Y-12260793D01*
X11583674Y-12260793D02*
X11631293Y-12260793D01*
X11631293Y-12260793D02*
X11650341Y-12251269D01*
X11745579Y-12203650D02*
X11745579Y-12403650D01*
X11745579Y-12213174D02*
X11764627Y-12203650D01*
X11764627Y-12203650D02*
X11802722Y-12203650D01*
X11802722Y-12203650D02*
X11821770Y-12213174D01*
X11821770Y-12213174D02*
X11831293Y-12222698D01*
X11831293Y-12222698D02*
X11840817Y-12241746D01*
X11840817Y-12241746D02*
X11840817Y-12298888D01*
X11840817Y-12298888D02*
X11831293Y-12317936D01*
X11831293Y-12317936D02*
X11821770Y-12327460D01*
X11821770Y-12327460D02*
X11802722Y-12336984D01*
X11802722Y-12336984D02*
X11764627Y-12336984D01*
X11764627Y-12336984D02*
X11745579Y-12327460D01*
X11926531Y-12317936D02*
X11936055Y-12327460D01*
X11936055Y-12327460D02*
X11926531Y-12336984D01*
X11926531Y-12336984D02*
X11917008Y-12327460D01*
X11917008Y-12327460D02*
X11926531Y-12317936D01*
X11926531Y-12317936D02*
X11926531Y-12336984D01*
X11926531Y-12213174D02*
X11936055Y-12222698D01*
X11936055Y-12222698D02*
X11926531Y-12232222D01*
X11926531Y-12232222D02*
X11917008Y-12222698D01*
X11917008Y-12222698D02*
X11926531Y-12213174D01*
X11926531Y-12213174D02*
X11926531Y-12232222D01*
D12*
X10254326Y-12645500D02*
X10294326Y-12685500D01*
X10294326Y-12645500D02*
X10254326Y-12685500D01*
D11*
X10593198Y-12556984D02*
X10612246Y-12556984D01*
X10612246Y-12556984D02*
X10631293Y-12566508D01*
X10631293Y-12566508D02*
X10640817Y-12576031D01*
X10640817Y-12576031D02*
X10650341Y-12595079D01*
X10650341Y-12595079D02*
X10659865Y-12633174D01*
X10659865Y-12633174D02*
X10659865Y-12680793D01*
X10659865Y-12680793D02*
X10650341Y-12718888D01*
X10650341Y-12718888D02*
X10640817Y-12737936D01*
X10640817Y-12737936D02*
X10631293Y-12747460D01*
X10631293Y-12747460D02*
X10612246Y-12756984D01*
X10612246Y-12756984D02*
X10593198Y-12756984D01*
X10593198Y-12756984D02*
X10574151Y-12747460D01*
X10574151Y-12747460D02*
X10564627Y-12737936D01*
X10564627Y-12737936D02*
X10555103Y-12718888D01*
X10555103Y-12718888D02*
X10545579Y-12680793D01*
X10545579Y-12680793D02*
X10545579Y-12633174D01*
X10545579Y-12633174D02*
X10555103Y-12595079D01*
X10555103Y-12595079D02*
X10564627Y-12576031D01*
X10564627Y-12576031D02*
X10574151Y-12566508D01*
X10574151Y-12566508D02*
X10593198Y-12556984D01*
X10745579Y-12737936D02*
X10755103Y-12747460D01*
X10755103Y-12747460D02*
X10745579Y-12756984D01*
X10745579Y-12756984D02*
X10736055Y-12747460D01*
X10736055Y-12747460D02*
X10745579Y-12737936D01*
X10745579Y-12737936D02*
X10745579Y-12756984D01*
X10926532Y-12623650D02*
X10926532Y-12756984D01*
X10878912Y-12547460D02*
X10831293Y-12690317D01*
X10831293Y-12690317D02*
X10955103Y-12690317D01*
X11069389Y-12556984D02*
X11088436Y-12556984D01*
X11088436Y-12556984D02*
X11107484Y-12566508D01*
X11107484Y-12566508D02*
X11117008Y-12576031D01*
X11117008Y-12576031D02*
X11126532Y-12595079D01*
X11126532Y-12595079D02*
X11136055Y-12633174D01*
X11136055Y-12633174D02*
X11136055Y-12680793D01*
X11136055Y-12680793D02*
X11126532Y-12718888D01*
X11126532Y-12718888D02*
X11117008Y-12737936D01*
X11117008Y-12737936D02*
X11107484Y-12747460D01*
X11107484Y-12747460D02*
X11088436Y-12756984D01*
X11088436Y-12756984D02*
X11069389Y-12756984D01*
X11069389Y-12756984D02*
X11050341Y-12747460D01*
X11050341Y-12747460D02*
X11040817Y-12737936D01*
X11040817Y-12737936D02*
X11031293Y-12718888D01*
X11031293Y-12718888D02*
X11021770Y-12680793D01*
X11021770Y-12680793D02*
X11021770Y-12633174D01*
X11021770Y-12633174D02*
X11031293Y-12595079D01*
X11031293Y-12595079D02*
X11040817Y-12576031D01*
X11040817Y-12576031D02*
X11050341Y-12566508D01*
X11050341Y-12566508D02*
X11069389Y-12556984D01*
X11259865Y-12556984D02*
X11278912Y-12556984D01*
X11278912Y-12556984D02*
X11297960Y-12566508D01*
X11297960Y-12566508D02*
X11307484Y-12576031D01*
X11307484Y-12576031D02*
X11317008Y-12595079D01*
X11317008Y-12595079D02*
X11326531Y-12633174D01*
X11326531Y-12633174D02*
X11326531Y-12680793D01*
X11326531Y-12680793D02*
X11317008Y-12718888D01*
X11317008Y-12718888D02*
X11307484Y-12737936D01*
X11307484Y-12737936D02*
X11297960Y-12747460D01*
X11297960Y-12747460D02*
X11278912Y-12756984D01*
X11278912Y-12756984D02*
X11259865Y-12756984D01*
X11259865Y-12756984D02*
X11240817Y-12747460D01*
X11240817Y-12747460D02*
X11231293Y-12737936D01*
X11231293Y-12737936D02*
X11221770Y-12718888D01*
X11221770Y-12718888D02*
X11212246Y-12680793D01*
X11212246Y-12680793D02*
X11212246Y-12633174D01*
X11212246Y-12633174D02*
X11221770Y-12595079D01*
X11221770Y-12595079D02*
X11231293Y-12576031D01*
X11231293Y-12576031D02*
X11240817Y-12566508D01*
X11240817Y-12566508D02*
X11259865Y-12556984D01*
X11412246Y-12756984D02*
X11412246Y-12623650D01*
X11412246Y-12642698D02*
X11421770Y-12633174D01*
X11421770Y-12633174D02*
X11440817Y-12623650D01*
X11440817Y-12623650D02*
X11469389Y-12623650D01*
X11469389Y-12623650D02*
X11488436Y-12633174D01*
X11488436Y-12633174D02*
X11497960Y-12652222D01*
X11497960Y-12652222D02*
X11497960Y-12756984D01*
X11497960Y-12652222D02*
X11507484Y-12633174D01*
X11507484Y-12633174D02*
X11526531Y-12623650D01*
X11526531Y-12623650D02*
X11555103Y-12623650D01*
X11555103Y-12623650D02*
X11574151Y-12633174D01*
X11574151Y-12633174D02*
X11583674Y-12652222D01*
X11583674Y-12652222D02*
X11583674Y-12756984D01*
X11678912Y-12756984D02*
X11678912Y-12623650D01*
X11678912Y-12642698D02*
X11688436Y-12633174D01*
X11688436Y-12633174D02*
X11707484Y-12623650D01*
X11707484Y-12623650D02*
X11736055Y-12623650D01*
X11736055Y-12623650D02*
X11755103Y-12633174D01*
X11755103Y-12633174D02*
X11764627Y-12652222D01*
X11764627Y-12652222D02*
X11764627Y-12756984D01*
X11764627Y-12652222D02*
X11774151Y-12633174D01*
X11774151Y-12633174D02*
X11793198Y-12623650D01*
X11793198Y-12623650D02*
X11821770Y-12623650D01*
X11821770Y-12623650D02*
X11840817Y-12633174D01*
X11840817Y-12633174D02*
X11850341Y-12652222D01*
X11850341Y-12652222D02*
X11850341Y-12756984D01*
X12240817Y-12547460D02*
X12069389Y-12804603D01*
X12497960Y-12556984D02*
X12517008Y-12556984D01*
X12517008Y-12556984D02*
X12536055Y-12566508D01*
X12536055Y-12566508D02*
X12545579Y-12576031D01*
X12545579Y-12576031D02*
X12555103Y-12595079D01*
X12555103Y-12595079D02*
X12564627Y-12633174D01*
X12564627Y-12633174D02*
X12564627Y-12680793D01*
X12564627Y-12680793D02*
X12555103Y-12718888D01*
X12555103Y-12718888D02*
X12545579Y-12737936D01*
X12545579Y-12737936D02*
X12536055Y-12747460D01*
X12536055Y-12747460D02*
X12517008Y-12756984D01*
X12517008Y-12756984D02*
X12497960Y-12756984D01*
X12497960Y-12756984D02*
X12478913Y-12747460D01*
X12478913Y-12747460D02*
X12469389Y-12737936D01*
X12469389Y-12737936D02*
X12459865Y-12718888D01*
X12459865Y-12718888D02*
X12450341Y-12680793D01*
X12450341Y-12680793D02*
X12450341Y-12633174D01*
X12450341Y-12633174D02*
X12459865Y-12595079D01*
X12459865Y-12595079D02*
X12469389Y-12576031D01*
X12469389Y-12576031D02*
X12478913Y-12566508D01*
X12478913Y-12566508D02*
X12497960Y-12556984D01*
X12650341Y-12737936D02*
X12659865Y-12747460D01*
X12659865Y-12747460D02*
X12650341Y-12756984D01*
X12650341Y-12756984D02*
X12640817Y-12747460D01*
X12640817Y-12747460D02*
X12650341Y-12737936D01*
X12650341Y-12737936D02*
X12650341Y-12756984D01*
X12783674Y-12556984D02*
X12802722Y-12556984D01*
X12802722Y-12556984D02*
X12821770Y-12566508D01*
X12821770Y-12566508D02*
X12831294Y-12576031D01*
X12831294Y-12576031D02*
X12840817Y-12595079D01*
X12840817Y-12595079D02*
X12850341Y-12633174D01*
X12850341Y-12633174D02*
X12850341Y-12680793D01*
X12850341Y-12680793D02*
X12840817Y-12718888D01*
X12840817Y-12718888D02*
X12831294Y-12737936D01*
X12831294Y-12737936D02*
X12821770Y-12747460D01*
X12821770Y-12747460D02*
X12802722Y-12756984D01*
X12802722Y-12756984D02*
X12783674Y-12756984D01*
X12783674Y-12756984D02*
X12764627Y-12747460D01*
X12764627Y-12747460D02*
X12755103Y-12737936D01*
X12755103Y-12737936D02*
X12745579Y-12718888D01*
X12745579Y-12718888D02*
X12736055Y-12680793D01*
X12736055Y-12680793D02*
X12736055Y-12633174D01*
X12736055Y-12633174D02*
X12745579Y-12595079D01*
X12745579Y-12595079D02*
X12755103Y-12576031D01*
X12755103Y-12576031D02*
X12764627Y-12566508D01*
X12764627Y-12566508D02*
X12783674Y-12556984D01*
X13040817Y-12756984D02*
X12926532Y-12756984D01*
X12983674Y-12756984D02*
X12983674Y-12556984D01*
X12983674Y-12556984D02*
X12964627Y-12585555D01*
X12964627Y-12585555D02*
X12945579Y-12604603D01*
X12945579Y-12604603D02*
X12926532Y-12614127D01*
X13221770Y-12556984D02*
X13126532Y-12556984D01*
X13126532Y-12556984D02*
X13117008Y-12652222D01*
X13117008Y-12652222D02*
X13126532Y-12642698D01*
X13126532Y-12642698D02*
X13145579Y-12633174D01*
X13145579Y-12633174D02*
X13193198Y-12633174D01*
X13193198Y-12633174D02*
X13212246Y-12642698D01*
X13212246Y-12642698D02*
X13221770Y-12652222D01*
X13221770Y-12652222D02*
X13231294Y-12671269D01*
X13231294Y-12671269D02*
X13231294Y-12718888D01*
X13231294Y-12718888D02*
X13221770Y-12737936D01*
X13221770Y-12737936D02*
X13212246Y-12747460D01*
X13212246Y-12747460D02*
X13193198Y-12756984D01*
X13193198Y-12756984D02*
X13145579Y-12756984D01*
X13145579Y-12756984D02*
X13126532Y-12747460D01*
X13126532Y-12747460D02*
X13117008Y-12737936D01*
X13297960Y-12556984D02*
X13431294Y-12556984D01*
X13431294Y-12556984D02*
X13345579Y-12756984D01*
X13497960Y-12556984D02*
X13497960Y-12595079D01*
X13574151Y-12556984D02*
X13574151Y-12595079D01*
X13869389Y-12833174D02*
X13859865Y-12823650D01*
X13859865Y-12823650D02*
X13840817Y-12795079D01*
X13840817Y-12795079D02*
X13831294Y-12776031D01*
X13831294Y-12776031D02*
X13821770Y-12747460D01*
X13821770Y-12747460D02*
X13812246Y-12699841D01*
X13812246Y-12699841D02*
X13812246Y-12661746D01*
X13812246Y-12661746D02*
X13821770Y-12614127D01*
X13821770Y-12614127D02*
X13831294Y-12585555D01*
X13831294Y-12585555D02*
X13840817Y-12566508D01*
X13840817Y-12566508D02*
X13859865Y-12537936D01*
X13859865Y-12537936D02*
X13869389Y-12528412D01*
X13926532Y-12556984D02*
X14059865Y-12556984D01*
X14059865Y-12556984D02*
X13974151Y-12756984D01*
X14117008Y-12556984D02*
X14250341Y-12556984D01*
X14250341Y-12556984D02*
X14164627Y-12756984D01*
X14412246Y-12556984D02*
X14374151Y-12556984D01*
X14374151Y-12556984D02*
X14355103Y-12566508D01*
X14355103Y-12566508D02*
X14345579Y-12576031D01*
X14345579Y-12576031D02*
X14326532Y-12604603D01*
X14326532Y-12604603D02*
X14317008Y-12642698D01*
X14317008Y-12642698D02*
X14317008Y-12718888D01*
X14317008Y-12718888D02*
X14326532Y-12737936D01*
X14326532Y-12737936D02*
X14336056Y-12747460D01*
X14336056Y-12747460D02*
X14355103Y-12756984D01*
X14355103Y-12756984D02*
X14393198Y-12756984D01*
X14393198Y-12756984D02*
X14412246Y-12747460D01*
X14412246Y-12747460D02*
X14421770Y-12737936D01*
X14421770Y-12737936D02*
X14431294Y-12718888D01*
X14431294Y-12718888D02*
X14431294Y-12671269D01*
X14431294Y-12671269D02*
X14421770Y-12652222D01*
X14421770Y-12652222D02*
X14412246Y-12642698D01*
X14412246Y-12642698D02*
X14393198Y-12633174D01*
X14393198Y-12633174D02*
X14355103Y-12633174D01*
X14355103Y-12633174D02*
X14336056Y-12642698D01*
X14336056Y-12642698D02*
X14326532Y-12652222D01*
X14326532Y-12652222D02*
X14317008Y-12671269D01*
X14669389Y-12756984D02*
X14669389Y-12556984D01*
X14755103Y-12756984D02*
X14755103Y-12652222D01*
X14755103Y-12652222D02*
X14745579Y-12633174D01*
X14745579Y-12633174D02*
X14726532Y-12623650D01*
X14726532Y-12623650D02*
X14697960Y-12623650D01*
X14697960Y-12623650D02*
X14678913Y-12633174D01*
X14678913Y-12633174D02*
X14669389Y-12642698D01*
X14878913Y-12756984D02*
X14859865Y-12747460D01*
X14859865Y-12747460D02*
X14850341Y-12737936D01*
X14850341Y-12737936D02*
X14840818Y-12718888D01*
X14840818Y-12718888D02*
X14840818Y-12661746D01*
X14840818Y-12661746D02*
X14850341Y-12642698D01*
X14850341Y-12642698D02*
X14859865Y-12633174D01*
X14859865Y-12633174D02*
X14878913Y-12623650D01*
X14878913Y-12623650D02*
X14907484Y-12623650D01*
X14907484Y-12623650D02*
X14926532Y-12633174D01*
X14926532Y-12633174D02*
X14936056Y-12642698D01*
X14936056Y-12642698D02*
X14945579Y-12661746D01*
X14945579Y-12661746D02*
X14945579Y-12718888D01*
X14945579Y-12718888D02*
X14936056Y-12737936D01*
X14936056Y-12737936D02*
X14926532Y-12747460D01*
X14926532Y-12747460D02*
X14907484Y-12756984D01*
X14907484Y-12756984D02*
X14878913Y-12756984D01*
X15059865Y-12756984D02*
X15040818Y-12747460D01*
X15040818Y-12747460D02*
X15031294Y-12728412D01*
X15031294Y-12728412D02*
X15031294Y-12556984D01*
X15212246Y-12747460D02*
X15193199Y-12756984D01*
X15193199Y-12756984D02*
X15155103Y-12756984D01*
X15155103Y-12756984D02*
X15136056Y-12747460D01*
X15136056Y-12747460D02*
X15126532Y-12728412D01*
X15126532Y-12728412D02*
X15126532Y-12652222D01*
X15126532Y-12652222D02*
X15136056Y-12633174D01*
X15136056Y-12633174D02*
X15155103Y-12623650D01*
X15155103Y-12623650D02*
X15193199Y-12623650D01*
X15193199Y-12623650D02*
X15212246Y-12633174D01*
X15212246Y-12633174D02*
X15221770Y-12652222D01*
X15221770Y-12652222D02*
X15221770Y-12671269D01*
X15221770Y-12671269D02*
X15126532Y-12690317D01*
X15297960Y-12747460D02*
X15317008Y-12756984D01*
X15317008Y-12756984D02*
X15355103Y-12756984D01*
X15355103Y-12756984D02*
X15374151Y-12747460D01*
X15374151Y-12747460D02*
X15383675Y-12728412D01*
X15383675Y-12728412D02*
X15383675Y-12718888D01*
X15383675Y-12718888D02*
X15374151Y-12699841D01*
X15374151Y-12699841D02*
X15355103Y-12690317D01*
X15355103Y-12690317D02*
X15326532Y-12690317D01*
X15326532Y-12690317D02*
X15307484Y-12680793D01*
X15307484Y-12680793D02*
X15297960Y-12661746D01*
X15297960Y-12661746D02*
X15297960Y-12652222D01*
X15297960Y-12652222D02*
X15307484Y-12633174D01*
X15307484Y-12633174D02*
X15326532Y-12623650D01*
X15326532Y-12623650D02*
X15355103Y-12623650D01*
X15355103Y-12623650D02*
X15374151Y-12633174D01*
X15450341Y-12833174D02*
X15459865Y-12823650D01*
X15459865Y-12823650D02*
X15478913Y-12795079D01*
X15478913Y-12795079D02*
X15488437Y-12776031D01*
X15488437Y-12776031D02*
X15497960Y-12747460D01*
X15497960Y-12747460D02*
X15507484Y-12699841D01*
X15507484Y-12699841D02*
X15507484Y-12661746D01*
X15507484Y-12661746D02*
X15497960Y-12614127D01*
X15497960Y-12614127D02*
X15488437Y-12585555D01*
X15488437Y-12585555D02*
X15478913Y-12566508D01*
X15478913Y-12566508D02*
X15459865Y-12537936D01*
X15459865Y-12537936D02*
X15450341Y-12528412D01*
D13*
X10294326Y-12929500D02*
G75*
G03*
X10294326Y-12929500I-30000J0D01*
G01*
D11*
X10593198Y-12820984D02*
X10612246Y-12820984D01*
X10612246Y-12820984D02*
X10631293Y-12830508D01*
X10631293Y-12830508D02*
X10640817Y-12840031D01*
X10640817Y-12840031D02*
X10650341Y-12859079D01*
X10650341Y-12859079D02*
X10659865Y-12897174D01*
X10659865Y-12897174D02*
X10659865Y-12944793D01*
X10659865Y-12944793D02*
X10650341Y-12982888D01*
X10650341Y-12982888D02*
X10640817Y-13001936D01*
X10640817Y-13001936D02*
X10631293Y-13011460D01*
X10631293Y-13011460D02*
X10612246Y-13020984D01*
X10612246Y-13020984D02*
X10593198Y-13020984D01*
X10593198Y-13020984D02*
X10574151Y-13011460D01*
X10574151Y-13011460D02*
X10564627Y-13001936D01*
X10564627Y-13001936D02*
X10555103Y-12982888D01*
X10555103Y-12982888D02*
X10545579Y-12944793D01*
X10545579Y-12944793D02*
X10545579Y-12897174D01*
X10545579Y-12897174D02*
X10555103Y-12859079D01*
X10555103Y-12859079D02*
X10564627Y-12840031D01*
X10564627Y-12840031D02*
X10574151Y-12830508D01*
X10574151Y-12830508D02*
X10593198Y-12820984D01*
X10745579Y-13001936D02*
X10755103Y-13011460D01*
X10755103Y-13011460D02*
X10745579Y-13020984D01*
X10745579Y-13020984D02*
X10736055Y-13011460D01*
X10736055Y-13011460D02*
X10745579Y-13001936D01*
X10745579Y-13001936D02*
X10745579Y-13020984D01*
X10926532Y-12820984D02*
X10888436Y-12820984D01*
X10888436Y-12820984D02*
X10869389Y-12830508D01*
X10869389Y-12830508D02*
X10859865Y-12840031D01*
X10859865Y-12840031D02*
X10840817Y-12868603D01*
X10840817Y-12868603D02*
X10831293Y-12906698D01*
X10831293Y-12906698D02*
X10831293Y-12982888D01*
X10831293Y-12982888D02*
X10840817Y-13001936D01*
X10840817Y-13001936D02*
X10850341Y-13011460D01*
X10850341Y-13011460D02*
X10869389Y-13020984D01*
X10869389Y-13020984D02*
X10907484Y-13020984D01*
X10907484Y-13020984D02*
X10926532Y-13011460D01*
X10926532Y-13011460D02*
X10936055Y-13001936D01*
X10936055Y-13001936D02*
X10945579Y-12982888D01*
X10945579Y-12982888D02*
X10945579Y-12935269D01*
X10945579Y-12935269D02*
X10936055Y-12916222D01*
X10936055Y-12916222D02*
X10926532Y-12906698D01*
X10926532Y-12906698D02*
X10907484Y-12897174D01*
X10907484Y-12897174D02*
X10869389Y-12897174D01*
X10869389Y-12897174D02*
X10850341Y-12906698D01*
X10850341Y-12906698D02*
X10840817Y-12916222D01*
X10840817Y-12916222D02*
X10831293Y-12935269D01*
X11069389Y-12820984D02*
X11088436Y-12820984D01*
X11088436Y-12820984D02*
X11107484Y-12830508D01*
X11107484Y-12830508D02*
X11117008Y-12840031D01*
X11117008Y-12840031D02*
X11126532Y-12859079D01*
X11126532Y-12859079D02*
X11136055Y-12897174D01*
X11136055Y-12897174D02*
X11136055Y-12944793D01*
X11136055Y-12944793D02*
X11126532Y-12982888D01*
X11126532Y-12982888D02*
X11117008Y-13001936D01*
X11117008Y-13001936D02*
X11107484Y-13011460D01*
X11107484Y-13011460D02*
X11088436Y-13020984D01*
X11088436Y-13020984D02*
X11069389Y-13020984D01*
X11069389Y-13020984D02*
X11050341Y-13011460D01*
X11050341Y-13011460D02*
X11040817Y-13001936D01*
X11040817Y-13001936D02*
X11031293Y-12982888D01*
X11031293Y-12982888D02*
X11021770Y-12944793D01*
X11021770Y-12944793D02*
X11021770Y-12897174D01*
X11021770Y-12897174D02*
X11031293Y-12859079D01*
X11031293Y-12859079D02*
X11040817Y-12840031D01*
X11040817Y-12840031D02*
X11050341Y-12830508D01*
X11050341Y-12830508D02*
X11069389Y-12820984D01*
X11259865Y-12820984D02*
X11278912Y-12820984D01*
X11278912Y-12820984D02*
X11297960Y-12830508D01*
X11297960Y-12830508D02*
X11307484Y-12840031D01*
X11307484Y-12840031D02*
X11317008Y-12859079D01*
X11317008Y-12859079D02*
X11326531Y-12897174D01*
X11326531Y-12897174D02*
X11326531Y-12944793D01*
X11326531Y-12944793D02*
X11317008Y-12982888D01*
X11317008Y-12982888D02*
X11307484Y-13001936D01*
X11307484Y-13001936D02*
X11297960Y-13011460D01*
X11297960Y-13011460D02*
X11278912Y-13020984D01*
X11278912Y-13020984D02*
X11259865Y-13020984D01*
X11259865Y-13020984D02*
X11240817Y-13011460D01*
X11240817Y-13011460D02*
X11231293Y-13001936D01*
X11231293Y-13001936D02*
X11221770Y-12982888D01*
X11221770Y-12982888D02*
X11212246Y-12944793D01*
X11212246Y-12944793D02*
X11212246Y-12897174D01*
X11212246Y-12897174D02*
X11221770Y-12859079D01*
X11221770Y-12859079D02*
X11231293Y-12840031D01*
X11231293Y-12840031D02*
X11240817Y-12830508D01*
X11240817Y-12830508D02*
X11259865Y-12820984D01*
X11412246Y-13020984D02*
X11412246Y-12887650D01*
X11412246Y-12906698D02*
X11421770Y-12897174D01*
X11421770Y-12897174D02*
X11440817Y-12887650D01*
X11440817Y-12887650D02*
X11469389Y-12887650D01*
X11469389Y-12887650D02*
X11488436Y-12897174D01*
X11488436Y-12897174D02*
X11497960Y-12916222D01*
X11497960Y-12916222D02*
X11497960Y-13020984D01*
X11497960Y-12916222D02*
X11507484Y-12897174D01*
X11507484Y-12897174D02*
X11526531Y-12887650D01*
X11526531Y-12887650D02*
X11555103Y-12887650D01*
X11555103Y-12887650D02*
X11574151Y-12897174D01*
X11574151Y-12897174D02*
X11583674Y-12916222D01*
X11583674Y-12916222D02*
X11583674Y-13020984D01*
X11678912Y-13020984D02*
X11678912Y-12887650D01*
X11678912Y-12906698D02*
X11688436Y-12897174D01*
X11688436Y-12897174D02*
X11707484Y-12887650D01*
X11707484Y-12887650D02*
X11736055Y-12887650D01*
X11736055Y-12887650D02*
X11755103Y-12897174D01*
X11755103Y-12897174D02*
X11764627Y-12916222D01*
X11764627Y-12916222D02*
X11764627Y-13020984D01*
X11764627Y-12916222D02*
X11774151Y-12897174D01*
X11774151Y-12897174D02*
X11793198Y-12887650D01*
X11793198Y-12887650D02*
X11821770Y-12887650D01*
X11821770Y-12887650D02*
X11840817Y-12897174D01*
X11840817Y-12897174D02*
X11850341Y-12916222D01*
X11850341Y-12916222D02*
X11850341Y-13020984D01*
X12240817Y-12811460D02*
X12069389Y-13068603D01*
X12497960Y-12820984D02*
X12517008Y-12820984D01*
X12517008Y-12820984D02*
X12536055Y-12830508D01*
X12536055Y-12830508D02*
X12545579Y-12840031D01*
X12545579Y-12840031D02*
X12555103Y-12859079D01*
X12555103Y-12859079D02*
X12564627Y-12897174D01*
X12564627Y-12897174D02*
X12564627Y-12944793D01*
X12564627Y-12944793D02*
X12555103Y-12982888D01*
X12555103Y-12982888D02*
X12545579Y-13001936D01*
X12545579Y-13001936D02*
X12536055Y-13011460D01*
X12536055Y-13011460D02*
X12517008Y-13020984D01*
X12517008Y-13020984D02*
X12497960Y-13020984D01*
X12497960Y-13020984D02*
X12478913Y-13011460D01*
X12478913Y-13011460D02*
X12469389Y-13001936D01*
X12469389Y-13001936D02*
X12459865Y-12982888D01*
X12459865Y-12982888D02*
X12450341Y-12944793D01*
X12450341Y-12944793D02*
X12450341Y-12897174D01*
X12450341Y-12897174D02*
X12459865Y-12859079D01*
X12459865Y-12859079D02*
X12469389Y-12840031D01*
X12469389Y-12840031D02*
X12478913Y-12830508D01*
X12478913Y-12830508D02*
X12497960Y-12820984D01*
X12650341Y-13001936D02*
X12659865Y-13011460D01*
X12659865Y-13011460D02*
X12650341Y-13020984D01*
X12650341Y-13020984D02*
X12640817Y-13011460D01*
X12640817Y-13011460D02*
X12650341Y-13001936D01*
X12650341Y-13001936D02*
X12650341Y-13020984D01*
X12783674Y-12820984D02*
X12802722Y-12820984D01*
X12802722Y-12820984D02*
X12821770Y-12830508D01*
X12821770Y-12830508D02*
X12831294Y-12840031D01*
X12831294Y-12840031D02*
X12840817Y-12859079D01*
X12840817Y-12859079D02*
X12850341Y-12897174D01*
X12850341Y-12897174D02*
X12850341Y-12944793D01*
X12850341Y-12944793D02*
X12840817Y-12982888D01*
X12840817Y-12982888D02*
X12831294Y-13001936D01*
X12831294Y-13001936D02*
X12821770Y-13011460D01*
X12821770Y-13011460D02*
X12802722Y-13020984D01*
X12802722Y-13020984D02*
X12783674Y-13020984D01*
X12783674Y-13020984D02*
X12764627Y-13011460D01*
X12764627Y-13011460D02*
X12755103Y-13001936D01*
X12755103Y-13001936D02*
X12745579Y-12982888D01*
X12745579Y-12982888D02*
X12736055Y-12944793D01*
X12736055Y-12944793D02*
X12736055Y-12897174D01*
X12736055Y-12897174D02*
X12745579Y-12859079D01*
X12745579Y-12859079D02*
X12755103Y-12840031D01*
X12755103Y-12840031D02*
X12764627Y-12830508D01*
X12764627Y-12830508D02*
X12783674Y-12820984D01*
X12926532Y-12840031D02*
X12936055Y-12830508D01*
X12936055Y-12830508D02*
X12955103Y-12820984D01*
X12955103Y-12820984D02*
X13002722Y-12820984D01*
X13002722Y-12820984D02*
X13021770Y-12830508D01*
X13021770Y-12830508D02*
X13031294Y-12840031D01*
X13031294Y-12840031D02*
X13040817Y-12859079D01*
X13040817Y-12859079D02*
X13040817Y-12878127D01*
X13040817Y-12878127D02*
X13031294Y-12906698D01*
X13031294Y-12906698D02*
X12917008Y-13020984D01*
X12917008Y-13020984D02*
X13040817Y-13020984D01*
X13107484Y-12820984D02*
X13231294Y-12820984D01*
X13231294Y-12820984D02*
X13164627Y-12897174D01*
X13164627Y-12897174D02*
X13193198Y-12897174D01*
X13193198Y-12897174D02*
X13212246Y-12906698D01*
X13212246Y-12906698D02*
X13221770Y-12916222D01*
X13221770Y-12916222D02*
X13231294Y-12935269D01*
X13231294Y-12935269D02*
X13231294Y-12982888D01*
X13231294Y-12982888D02*
X13221770Y-13001936D01*
X13221770Y-13001936D02*
X13212246Y-13011460D01*
X13212246Y-13011460D02*
X13193198Y-13020984D01*
X13193198Y-13020984D02*
X13136055Y-13020984D01*
X13136055Y-13020984D02*
X13117008Y-13011460D01*
X13117008Y-13011460D02*
X13107484Y-13001936D01*
X13402722Y-12820984D02*
X13364627Y-12820984D01*
X13364627Y-12820984D02*
X13345579Y-12830508D01*
X13345579Y-12830508D02*
X13336055Y-12840031D01*
X13336055Y-12840031D02*
X13317008Y-12868603D01*
X13317008Y-12868603D02*
X13307484Y-12906698D01*
X13307484Y-12906698D02*
X13307484Y-12982888D01*
X13307484Y-12982888D02*
X13317008Y-13001936D01*
X13317008Y-13001936D02*
X13326532Y-13011460D01*
X13326532Y-13011460D02*
X13345579Y-13020984D01*
X13345579Y-13020984D02*
X13383675Y-13020984D01*
X13383675Y-13020984D02*
X13402722Y-13011460D01*
X13402722Y-13011460D02*
X13412246Y-13001936D01*
X13412246Y-13001936D02*
X13421770Y-12982888D01*
X13421770Y-12982888D02*
X13421770Y-12935269D01*
X13421770Y-12935269D02*
X13412246Y-12916222D01*
X13412246Y-12916222D02*
X13402722Y-12906698D01*
X13402722Y-12906698D02*
X13383675Y-12897174D01*
X13383675Y-12897174D02*
X13345579Y-12897174D01*
X13345579Y-12897174D02*
X13326532Y-12906698D01*
X13326532Y-12906698D02*
X13317008Y-12916222D01*
X13317008Y-12916222D02*
X13307484Y-12935269D01*
X13497960Y-12820984D02*
X13497960Y-12859079D01*
X13574151Y-12820984D02*
X13574151Y-12859079D01*
X13869389Y-13097174D02*
X13859865Y-13087650D01*
X13859865Y-13087650D02*
X13840817Y-13059079D01*
X13840817Y-13059079D02*
X13831294Y-13040031D01*
X13831294Y-13040031D02*
X13821770Y-13011460D01*
X13821770Y-13011460D02*
X13812246Y-12963841D01*
X13812246Y-12963841D02*
X13812246Y-12925746D01*
X13812246Y-12925746D02*
X13821770Y-12878127D01*
X13821770Y-12878127D02*
X13831294Y-12849555D01*
X13831294Y-12849555D02*
X13840817Y-12830508D01*
X13840817Y-12830508D02*
X13859865Y-12801936D01*
X13859865Y-12801936D02*
X13869389Y-12792412D01*
X13955103Y-13020984D02*
X13993198Y-13020984D01*
X13993198Y-13020984D02*
X14012246Y-13011460D01*
X14012246Y-13011460D02*
X14021770Y-13001936D01*
X14021770Y-13001936D02*
X14040817Y-12973365D01*
X14040817Y-12973365D02*
X14050341Y-12935269D01*
X14050341Y-12935269D02*
X14050341Y-12859079D01*
X14050341Y-12859079D02*
X14040817Y-12840031D01*
X14040817Y-12840031D02*
X14031294Y-12830508D01*
X14031294Y-12830508D02*
X14012246Y-12820984D01*
X14012246Y-12820984D02*
X13974151Y-12820984D01*
X13974151Y-12820984D02*
X13955103Y-12830508D01*
X13955103Y-12830508D02*
X13945579Y-12840031D01*
X13945579Y-12840031D02*
X13936056Y-12859079D01*
X13936056Y-12859079D02*
X13936056Y-12906698D01*
X13936056Y-12906698D02*
X13945579Y-12925746D01*
X13945579Y-12925746D02*
X13955103Y-12935269D01*
X13955103Y-12935269D02*
X13974151Y-12944793D01*
X13974151Y-12944793D02*
X14012246Y-12944793D01*
X14012246Y-12944793D02*
X14031294Y-12935269D01*
X14031294Y-12935269D02*
X14040817Y-12925746D01*
X14040817Y-12925746D02*
X14050341Y-12906698D01*
X14288437Y-13020984D02*
X14288437Y-12820984D01*
X14374151Y-13020984D02*
X14374151Y-12916222D01*
X14374151Y-12916222D02*
X14364627Y-12897174D01*
X14364627Y-12897174D02*
X14345579Y-12887650D01*
X14345579Y-12887650D02*
X14317008Y-12887650D01*
X14317008Y-12887650D02*
X14297960Y-12897174D01*
X14297960Y-12897174D02*
X14288437Y-12906698D01*
X14497960Y-13020984D02*
X14478913Y-13011460D01*
X14478913Y-13011460D02*
X14469389Y-13001936D01*
X14469389Y-13001936D02*
X14459865Y-12982888D01*
X14459865Y-12982888D02*
X14459865Y-12925746D01*
X14459865Y-12925746D02*
X14469389Y-12906698D01*
X14469389Y-12906698D02*
X14478913Y-12897174D01*
X14478913Y-12897174D02*
X14497960Y-12887650D01*
X14497960Y-12887650D02*
X14526532Y-12887650D01*
X14526532Y-12887650D02*
X14545579Y-12897174D01*
X14545579Y-12897174D02*
X14555103Y-12906698D01*
X14555103Y-12906698D02*
X14564627Y-12925746D01*
X14564627Y-12925746D02*
X14564627Y-12982888D01*
X14564627Y-12982888D02*
X14555103Y-13001936D01*
X14555103Y-13001936D02*
X14545579Y-13011460D01*
X14545579Y-13011460D02*
X14526532Y-13020984D01*
X14526532Y-13020984D02*
X14497960Y-13020984D01*
X14678913Y-13020984D02*
X14659865Y-13011460D01*
X14659865Y-13011460D02*
X14650341Y-12992412D01*
X14650341Y-12992412D02*
X14650341Y-12820984D01*
X14831294Y-13011460D02*
X14812246Y-13020984D01*
X14812246Y-13020984D02*
X14774151Y-13020984D01*
X14774151Y-13020984D02*
X14755103Y-13011460D01*
X14755103Y-13011460D02*
X14745579Y-12992412D01*
X14745579Y-12992412D02*
X14745579Y-12916222D01*
X14745579Y-12916222D02*
X14755103Y-12897174D01*
X14755103Y-12897174D02*
X14774151Y-12887650D01*
X14774151Y-12887650D02*
X14812246Y-12887650D01*
X14812246Y-12887650D02*
X14831294Y-12897174D01*
X14831294Y-12897174D02*
X14840818Y-12916222D01*
X14840818Y-12916222D02*
X14840818Y-12935269D01*
X14840818Y-12935269D02*
X14745579Y-12954317D01*
X14917008Y-13011460D02*
X14936056Y-13020984D01*
X14936056Y-13020984D02*
X14974151Y-13020984D01*
X14974151Y-13020984D02*
X14993199Y-13011460D01*
X14993199Y-13011460D02*
X15002722Y-12992412D01*
X15002722Y-12992412D02*
X15002722Y-12982888D01*
X15002722Y-12982888D02*
X14993199Y-12963841D01*
X14993199Y-12963841D02*
X14974151Y-12954317D01*
X14974151Y-12954317D02*
X14945579Y-12954317D01*
X14945579Y-12954317D02*
X14926532Y-12944793D01*
X14926532Y-12944793D02*
X14917008Y-12925746D01*
X14917008Y-12925746D02*
X14917008Y-12916222D01*
X14917008Y-12916222D02*
X14926532Y-12897174D01*
X14926532Y-12897174D02*
X14945579Y-12887650D01*
X14945579Y-12887650D02*
X14974151Y-12887650D01*
X14974151Y-12887650D02*
X14993199Y-12897174D01*
X15069389Y-13097174D02*
X15078913Y-13087650D01*
X15078913Y-13087650D02*
X15097960Y-13059079D01*
X15097960Y-13059079D02*
X15107484Y-13040031D01*
X15107484Y-13040031D02*
X15117008Y-13011460D01*
X15117008Y-13011460D02*
X15126532Y-12963841D01*
X15126532Y-12963841D02*
X15126532Y-12925746D01*
X15126532Y-12925746D02*
X15117008Y-12878127D01*
X15117008Y-12878127D02*
X15107484Y-12849555D01*
X15107484Y-12849555D02*
X15097960Y-12830508D01*
X15097960Y-12830508D02*
X15078913Y-12801936D01*
X15078913Y-12801936D02*
X15069389Y-12792412D01*
D14*
X10256226Y-13155400D02*
X10256226Y-13231600D01*
X10218126Y-13193500D02*
X10294326Y-13193500D01*
D11*
X10593198Y-13084984D02*
X10612246Y-13084984D01*
X10612246Y-13084984D02*
X10631293Y-13094508D01*
X10631293Y-13094508D02*
X10640817Y-13104031D01*
X10640817Y-13104031D02*
X10650341Y-13123079D01*
X10650341Y-13123079D02*
X10659865Y-13161174D01*
X10659865Y-13161174D02*
X10659865Y-13208793D01*
X10659865Y-13208793D02*
X10650341Y-13246888D01*
X10650341Y-13246888D02*
X10640817Y-13265936D01*
X10640817Y-13265936D02*
X10631293Y-13275460D01*
X10631293Y-13275460D02*
X10612246Y-13284984D01*
X10612246Y-13284984D02*
X10593198Y-13284984D01*
X10593198Y-13284984D02*
X10574151Y-13275460D01*
X10574151Y-13275460D02*
X10564627Y-13265936D01*
X10564627Y-13265936D02*
X10555103Y-13246888D01*
X10555103Y-13246888D02*
X10545579Y-13208793D01*
X10545579Y-13208793D02*
X10545579Y-13161174D01*
X10545579Y-13161174D02*
X10555103Y-13123079D01*
X10555103Y-13123079D02*
X10564627Y-13104031D01*
X10564627Y-13104031D02*
X10574151Y-13094508D01*
X10574151Y-13094508D02*
X10593198Y-13084984D01*
X10745579Y-13265936D02*
X10755103Y-13275460D01*
X10755103Y-13275460D02*
X10745579Y-13284984D01*
X10745579Y-13284984D02*
X10736055Y-13275460D01*
X10736055Y-13275460D02*
X10745579Y-13265936D01*
X10745579Y-13265936D02*
X10745579Y-13284984D01*
X10821770Y-13084984D02*
X10955103Y-13084984D01*
X10955103Y-13084984D02*
X10869389Y-13284984D01*
X11117008Y-13084984D02*
X11078912Y-13084984D01*
X11078912Y-13084984D02*
X11059865Y-13094508D01*
X11059865Y-13094508D02*
X11050341Y-13104031D01*
X11050341Y-13104031D02*
X11031293Y-13132603D01*
X11031293Y-13132603D02*
X11021770Y-13170698D01*
X11021770Y-13170698D02*
X11021770Y-13246888D01*
X11021770Y-13246888D02*
X11031293Y-13265936D01*
X11031293Y-13265936D02*
X11040817Y-13275460D01*
X11040817Y-13275460D02*
X11059865Y-13284984D01*
X11059865Y-13284984D02*
X11097960Y-13284984D01*
X11097960Y-13284984D02*
X11117008Y-13275460D01*
X11117008Y-13275460D02*
X11126532Y-13265936D01*
X11126532Y-13265936D02*
X11136055Y-13246888D01*
X11136055Y-13246888D02*
X11136055Y-13199269D01*
X11136055Y-13199269D02*
X11126532Y-13180222D01*
X11126532Y-13180222D02*
X11117008Y-13170698D01*
X11117008Y-13170698D02*
X11097960Y-13161174D01*
X11097960Y-13161174D02*
X11059865Y-13161174D01*
X11059865Y-13161174D02*
X11040817Y-13170698D01*
X11040817Y-13170698D02*
X11031293Y-13180222D01*
X11031293Y-13180222D02*
X11021770Y-13199269D01*
X11212246Y-13104031D02*
X11221770Y-13094508D01*
X11221770Y-13094508D02*
X11240817Y-13084984D01*
X11240817Y-13084984D02*
X11288436Y-13084984D01*
X11288436Y-13084984D02*
X11307484Y-13094508D01*
X11307484Y-13094508D02*
X11317008Y-13104031D01*
X11317008Y-13104031D02*
X11326531Y-13123079D01*
X11326531Y-13123079D02*
X11326531Y-13142127D01*
X11326531Y-13142127D02*
X11317008Y-13170698D01*
X11317008Y-13170698D02*
X11202722Y-13284984D01*
X11202722Y-13284984D02*
X11326531Y-13284984D01*
X11412246Y-13284984D02*
X11412246Y-13151650D01*
X11412246Y-13170698D02*
X11421770Y-13161174D01*
X11421770Y-13161174D02*
X11440817Y-13151650D01*
X11440817Y-13151650D02*
X11469389Y-13151650D01*
X11469389Y-13151650D02*
X11488436Y-13161174D01*
X11488436Y-13161174D02*
X11497960Y-13180222D01*
X11497960Y-13180222D02*
X11497960Y-13284984D01*
X11497960Y-13180222D02*
X11507484Y-13161174D01*
X11507484Y-13161174D02*
X11526531Y-13151650D01*
X11526531Y-13151650D02*
X11555103Y-13151650D01*
X11555103Y-13151650D02*
X11574151Y-13161174D01*
X11574151Y-13161174D02*
X11583674Y-13180222D01*
X11583674Y-13180222D02*
X11583674Y-13284984D01*
X11678912Y-13284984D02*
X11678912Y-13151650D01*
X11678912Y-13170698D02*
X11688436Y-13161174D01*
X11688436Y-13161174D02*
X11707484Y-13151650D01*
X11707484Y-13151650D02*
X11736055Y-13151650D01*
X11736055Y-13151650D02*
X11755103Y-13161174D01*
X11755103Y-13161174D02*
X11764627Y-13180222D01*
X11764627Y-13180222D02*
X11764627Y-13284984D01*
X11764627Y-13180222D02*
X11774151Y-13161174D01*
X11774151Y-13161174D02*
X11793198Y-13151650D01*
X11793198Y-13151650D02*
X11821770Y-13151650D01*
X11821770Y-13151650D02*
X11840817Y-13161174D01*
X11840817Y-13161174D02*
X11850341Y-13180222D01*
X11850341Y-13180222D02*
X11850341Y-13284984D01*
X12240817Y-13075460D02*
X12069389Y-13332603D01*
X12497960Y-13084984D02*
X12517008Y-13084984D01*
X12517008Y-13084984D02*
X12536055Y-13094508D01*
X12536055Y-13094508D02*
X12545579Y-13104031D01*
X12545579Y-13104031D02*
X12555103Y-13123079D01*
X12555103Y-13123079D02*
X12564627Y-13161174D01*
X12564627Y-13161174D02*
X12564627Y-13208793D01*
X12564627Y-13208793D02*
X12555103Y-13246888D01*
X12555103Y-13246888D02*
X12545579Y-13265936D01*
X12545579Y-13265936D02*
X12536055Y-13275460D01*
X12536055Y-13275460D02*
X12517008Y-13284984D01*
X12517008Y-13284984D02*
X12497960Y-13284984D01*
X12497960Y-13284984D02*
X12478913Y-13275460D01*
X12478913Y-13275460D02*
X12469389Y-13265936D01*
X12469389Y-13265936D02*
X12459865Y-13246888D01*
X12459865Y-13246888D02*
X12450341Y-13208793D01*
X12450341Y-13208793D02*
X12450341Y-13161174D01*
X12450341Y-13161174D02*
X12459865Y-13123079D01*
X12459865Y-13123079D02*
X12469389Y-13104031D01*
X12469389Y-13104031D02*
X12478913Y-13094508D01*
X12478913Y-13094508D02*
X12497960Y-13084984D01*
X12650341Y-13265936D02*
X12659865Y-13275460D01*
X12659865Y-13275460D02*
X12650341Y-13284984D01*
X12650341Y-13284984D02*
X12640817Y-13275460D01*
X12640817Y-13275460D02*
X12650341Y-13265936D01*
X12650341Y-13265936D02*
X12650341Y-13284984D01*
X12783674Y-13084984D02*
X12802722Y-13084984D01*
X12802722Y-13084984D02*
X12821770Y-13094508D01*
X12821770Y-13094508D02*
X12831294Y-13104031D01*
X12831294Y-13104031D02*
X12840817Y-13123079D01*
X12840817Y-13123079D02*
X12850341Y-13161174D01*
X12850341Y-13161174D02*
X12850341Y-13208793D01*
X12850341Y-13208793D02*
X12840817Y-13246888D01*
X12840817Y-13246888D02*
X12831294Y-13265936D01*
X12831294Y-13265936D02*
X12821770Y-13275460D01*
X12821770Y-13275460D02*
X12802722Y-13284984D01*
X12802722Y-13284984D02*
X12783674Y-13284984D01*
X12783674Y-13284984D02*
X12764627Y-13275460D01*
X12764627Y-13275460D02*
X12755103Y-13265936D01*
X12755103Y-13265936D02*
X12745579Y-13246888D01*
X12745579Y-13246888D02*
X12736055Y-13208793D01*
X12736055Y-13208793D02*
X12736055Y-13161174D01*
X12736055Y-13161174D02*
X12745579Y-13123079D01*
X12745579Y-13123079D02*
X12755103Y-13104031D01*
X12755103Y-13104031D02*
X12764627Y-13094508D01*
X12764627Y-13094508D02*
X12783674Y-13084984D01*
X12917008Y-13084984D02*
X13040817Y-13084984D01*
X13040817Y-13084984D02*
X12974151Y-13161174D01*
X12974151Y-13161174D02*
X13002722Y-13161174D01*
X13002722Y-13161174D02*
X13021770Y-13170698D01*
X13021770Y-13170698D02*
X13031294Y-13180222D01*
X13031294Y-13180222D02*
X13040817Y-13199269D01*
X13040817Y-13199269D02*
X13040817Y-13246888D01*
X13040817Y-13246888D02*
X13031294Y-13265936D01*
X13031294Y-13265936D02*
X13021770Y-13275460D01*
X13021770Y-13275460D02*
X13002722Y-13284984D01*
X13002722Y-13284984D02*
X12945579Y-13284984D01*
X12945579Y-13284984D02*
X12926532Y-13275460D01*
X12926532Y-13275460D02*
X12917008Y-13265936D01*
X13164627Y-13084984D02*
X13183675Y-13084984D01*
X13183675Y-13084984D02*
X13202722Y-13094508D01*
X13202722Y-13094508D02*
X13212246Y-13104031D01*
X13212246Y-13104031D02*
X13221770Y-13123079D01*
X13221770Y-13123079D02*
X13231294Y-13161174D01*
X13231294Y-13161174D02*
X13231294Y-13208793D01*
X13231294Y-13208793D02*
X13221770Y-13246888D01*
X13221770Y-13246888D02*
X13212246Y-13265936D01*
X13212246Y-13265936D02*
X13202722Y-13275460D01*
X13202722Y-13275460D02*
X13183675Y-13284984D01*
X13183675Y-13284984D02*
X13164627Y-13284984D01*
X13164627Y-13284984D02*
X13145579Y-13275460D01*
X13145579Y-13275460D02*
X13136055Y-13265936D01*
X13136055Y-13265936D02*
X13126532Y-13246888D01*
X13126532Y-13246888D02*
X13117008Y-13208793D01*
X13117008Y-13208793D02*
X13117008Y-13161174D01*
X13117008Y-13161174D02*
X13126532Y-13123079D01*
X13126532Y-13123079D02*
X13136055Y-13104031D01*
X13136055Y-13104031D02*
X13145579Y-13094508D01*
X13145579Y-13094508D02*
X13164627Y-13084984D01*
X13355103Y-13084984D02*
X13374151Y-13084984D01*
X13374151Y-13084984D02*
X13393198Y-13094508D01*
X13393198Y-13094508D02*
X13402722Y-13104031D01*
X13402722Y-13104031D02*
X13412246Y-13123079D01*
X13412246Y-13123079D02*
X13421770Y-13161174D01*
X13421770Y-13161174D02*
X13421770Y-13208793D01*
X13421770Y-13208793D02*
X13412246Y-13246888D01*
X13412246Y-13246888D02*
X13402722Y-13265936D01*
X13402722Y-13265936D02*
X13393198Y-13275460D01*
X13393198Y-13275460D02*
X13374151Y-13284984D01*
X13374151Y-13284984D02*
X13355103Y-13284984D01*
X13355103Y-13284984D02*
X13336055Y-13275460D01*
X13336055Y-13275460D02*
X13326532Y-13265936D01*
X13326532Y-13265936D02*
X13317008Y-13246888D01*
X13317008Y-13246888D02*
X13307484Y-13208793D01*
X13307484Y-13208793D02*
X13307484Y-13161174D01*
X13307484Y-13161174D02*
X13317008Y-13123079D01*
X13317008Y-13123079D02*
X13326532Y-13104031D01*
X13326532Y-13104031D02*
X13336055Y-13094508D01*
X13336055Y-13094508D02*
X13355103Y-13084984D01*
X13497960Y-13084984D02*
X13497960Y-13123079D01*
X13574151Y-13084984D02*
X13574151Y-13123079D01*
X13869389Y-13361174D02*
X13859865Y-13351650D01*
X13859865Y-13351650D02*
X13840817Y-13323079D01*
X13840817Y-13323079D02*
X13831294Y-13304031D01*
X13831294Y-13304031D02*
X13821770Y-13275460D01*
X13821770Y-13275460D02*
X13812246Y-13227841D01*
X13812246Y-13227841D02*
X13812246Y-13189746D01*
X13812246Y-13189746D02*
X13821770Y-13142127D01*
X13821770Y-13142127D02*
X13831294Y-13113555D01*
X13831294Y-13113555D02*
X13840817Y-13094508D01*
X13840817Y-13094508D02*
X13859865Y-13065936D01*
X13859865Y-13065936D02*
X13869389Y-13056412D01*
X14050341Y-13284984D02*
X13936056Y-13284984D01*
X13993198Y-13284984D02*
X13993198Y-13084984D01*
X13993198Y-13084984D02*
X13974151Y-13113555D01*
X13974151Y-13113555D02*
X13955103Y-13132603D01*
X13955103Y-13132603D02*
X13936056Y-13142127D01*
X14174151Y-13084984D02*
X14193198Y-13084984D01*
X14193198Y-13084984D02*
X14212246Y-13094508D01*
X14212246Y-13094508D02*
X14221770Y-13104031D01*
X14221770Y-13104031D02*
X14231294Y-13123079D01*
X14231294Y-13123079D02*
X14240817Y-13161174D01*
X14240817Y-13161174D02*
X14240817Y-13208793D01*
X14240817Y-13208793D02*
X14231294Y-13246888D01*
X14231294Y-13246888D02*
X14221770Y-13265936D01*
X14221770Y-13265936D02*
X14212246Y-13275460D01*
X14212246Y-13275460D02*
X14193198Y-13284984D01*
X14193198Y-13284984D02*
X14174151Y-13284984D01*
X14174151Y-13284984D02*
X14155103Y-13275460D01*
X14155103Y-13275460D02*
X14145579Y-13265936D01*
X14145579Y-13265936D02*
X14136056Y-13246888D01*
X14136056Y-13246888D02*
X14126532Y-13208793D01*
X14126532Y-13208793D02*
X14126532Y-13161174D01*
X14126532Y-13161174D02*
X14136056Y-13123079D01*
X14136056Y-13123079D02*
X14145579Y-13104031D01*
X14145579Y-13104031D02*
X14155103Y-13094508D01*
X14155103Y-13094508D02*
X14174151Y-13084984D01*
X14478913Y-13284984D02*
X14478913Y-13084984D01*
X14564627Y-13284984D02*
X14564627Y-13180222D01*
X14564627Y-13180222D02*
X14555103Y-13161174D01*
X14555103Y-13161174D02*
X14536056Y-13151650D01*
X14536056Y-13151650D02*
X14507484Y-13151650D01*
X14507484Y-13151650D02*
X14488437Y-13161174D01*
X14488437Y-13161174D02*
X14478913Y-13170698D01*
X14688437Y-13284984D02*
X14669389Y-13275460D01*
X14669389Y-13275460D02*
X14659865Y-13265936D01*
X14659865Y-13265936D02*
X14650341Y-13246888D01*
X14650341Y-13246888D02*
X14650341Y-13189746D01*
X14650341Y-13189746D02*
X14659865Y-13170698D01*
X14659865Y-13170698D02*
X14669389Y-13161174D01*
X14669389Y-13161174D02*
X14688437Y-13151650D01*
X14688437Y-13151650D02*
X14717008Y-13151650D01*
X14717008Y-13151650D02*
X14736056Y-13161174D01*
X14736056Y-13161174D02*
X14745579Y-13170698D01*
X14745579Y-13170698D02*
X14755103Y-13189746D01*
X14755103Y-13189746D02*
X14755103Y-13246888D01*
X14755103Y-13246888D02*
X14745579Y-13265936D01*
X14745579Y-13265936D02*
X14736056Y-13275460D01*
X14736056Y-13275460D02*
X14717008Y-13284984D01*
X14717008Y-13284984D02*
X14688437Y-13284984D01*
X14869389Y-13284984D02*
X14850341Y-13275460D01*
X14850341Y-13275460D02*
X14840818Y-13256412D01*
X14840818Y-13256412D02*
X14840818Y-13084984D01*
X15021770Y-13275460D02*
X15002722Y-13284984D01*
X15002722Y-13284984D02*
X14964627Y-13284984D01*
X14964627Y-13284984D02*
X14945579Y-13275460D01*
X14945579Y-13275460D02*
X14936056Y-13256412D01*
X14936056Y-13256412D02*
X14936056Y-13180222D01*
X14936056Y-13180222D02*
X14945579Y-13161174D01*
X14945579Y-13161174D02*
X14964627Y-13151650D01*
X14964627Y-13151650D02*
X15002722Y-13151650D01*
X15002722Y-13151650D02*
X15021770Y-13161174D01*
X15021770Y-13161174D02*
X15031294Y-13180222D01*
X15031294Y-13180222D02*
X15031294Y-13199269D01*
X15031294Y-13199269D02*
X14936056Y-13218317D01*
X15107484Y-13275460D02*
X15126532Y-13284984D01*
X15126532Y-13284984D02*
X15164627Y-13284984D01*
X15164627Y-13284984D02*
X15183675Y-13275460D01*
X15183675Y-13275460D02*
X15193199Y-13256412D01*
X15193199Y-13256412D02*
X15193199Y-13246888D01*
X15193199Y-13246888D02*
X15183675Y-13227841D01*
X15183675Y-13227841D02*
X15164627Y-13218317D01*
X15164627Y-13218317D02*
X15136056Y-13218317D01*
X15136056Y-13218317D02*
X15117008Y-13208793D01*
X15117008Y-13208793D02*
X15107484Y-13189746D01*
X15107484Y-13189746D02*
X15107484Y-13180222D01*
X15107484Y-13180222D02*
X15117008Y-13161174D01*
X15117008Y-13161174D02*
X15136056Y-13151650D01*
X15136056Y-13151650D02*
X15164627Y-13151650D01*
X15164627Y-13151650D02*
X15183675Y-13161174D01*
X15259865Y-13361174D02*
X15269389Y-13351650D01*
X15269389Y-13351650D02*
X15288437Y-13323079D01*
X15288437Y-13323079D02*
X15297960Y-13304031D01*
X15297960Y-13304031D02*
X15307484Y-13275460D01*
X15307484Y-13275460D02*
X15317008Y-13227841D01*
X15317008Y-13227841D02*
X15317008Y-13189746D01*
X15317008Y-13189746D02*
X15307484Y-13142127D01*
X15307484Y-13142127D02*
X15297960Y-13113555D01*
X15297960Y-13113555D02*
X15288437Y-13094508D01*
X15288437Y-13094508D02*
X15269389Y-13065936D01*
X15269389Y-13065936D02*
X15259865Y-13056412D01*
D15*
X10282611Y-13485784D02*
X10282611Y-13429215D01*
X10226042Y-13429215D01*
X10226042Y-13485784D01*
X10282611Y-13485784D01*
D11*
X10593198Y-13348984D02*
X10612246Y-13348984D01*
X10612246Y-13348984D02*
X10631293Y-13358508D01*
X10631293Y-13358508D02*
X10640817Y-13368031D01*
X10640817Y-13368031D02*
X10650341Y-13387079D01*
X10650341Y-13387079D02*
X10659865Y-13425174D01*
X10659865Y-13425174D02*
X10659865Y-13472793D01*
X10659865Y-13472793D02*
X10650341Y-13510888D01*
X10650341Y-13510888D02*
X10640817Y-13529936D01*
X10640817Y-13529936D02*
X10631293Y-13539460D01*
X10631293Y-13539460D02*
X10612246Y-13548984D01*
X10612246Y-13548984D02*
X10593198Y-13548984D01*
X10593198Y-13548984D02*
X10574151Y-13539460D01*
X10574151Y-13539460D02*
X10564627Y-13529936D01*
X10564627Y-13529936D02*
X10555103Y-13510888D01*
X10555103Y-13510888D02*
X10545579Y-13472793D01*
X10545579Y-13472793D02*
X10545579Y-13425174D01*
X10545579Y-13425174D02*
X10555103Y-13387079D01*
X10555103Y-13387079D02*
X10564627Y-13368031D01*
X10564627Y-13368031D02*
X10574151Y-13358508D01*
X10574151Y-13358508D02*
X10593198Y-13348984D01*
X10745579Y-13529936D02*
X10755103Y-13539460D01*
X10755103Y-13539460D02*
X10745579Y-13548984D01*
X10745579Y-13548984D02*
X10736055Y-13539460D01*
X10736055Y-13539460D02*
X10745579Y-13529936D01*
X10745579Y-13529936D02*
X10745579Y-13548984D01*
X10869389Y-13434698D02*
X10850341Y-13425174D01*
X10850341Y-13425174D02*
X10840817Y-13415650D01*
X10840817Y-13415650D02*
X10831293Y-13396603D01*
X10831293Y-13396603D02*
X10831293Y-13387079D01*
X10831293Y-13387079D02*
X10840817Y-13368031D01*
X10840817Y-13368031D02*
X10850341Y-13358508D01*
X10850341Y-13358508D02*
X10869389Y-13348984D01*
X10869389Y-13348984D02*
X10907484Y-13348984D01*
X10907484Y-13348984D02*
X10926532Y-13358508D01*
X10926532Y-13358508D02*
X10936055Y-13368031D01*
X10936055Y-13368031D02*
X10945579Y-13387079D01*
X10945579Y-13387079D02*
X10945579Y-13396603D01*
X10945579Y-13396603D02*
X10936055Y-13415650D01*
X10936055Y-13415650D02*
X10926532Y-13425174D01*
X10926532Y-13425174D02*
X10907484Y-13434698D01*
X10907484Y-13434698D02*
X10869389Y-13434698D01*
X10869389Y-13434698D02*
X10850341Y-13444222D01*
X10850341Y-13444222D02*
X10840817Y-13453746D01*
X10840817Y-13453746D02*
X10831293Y-13472793D01*
X10831293Y-13472793D02*
X10831293Y-13510888D01*
X10831293Y-13510888D02*
X10840817Y-13529936D01*
X10840817Y-13529936D02*
X10850341Y-13539460D01*
X10850341Y-13539460D02*
X10869389Y-13548984D01*
X10869389Y-13548984D02*
X10907484Y-13548984D01*
X10907484Y-13548984D02*
X10926532Y-13539460D01*
X10926532Y-13539460D02*
X10936055Y-13529936D01*
X10936055Y-13529936D02*
X10945579Y-13510888D01*
X10945579Y-13510888D02*
X10945579Y-13472793D01*
X10945579Y-13472793D02*
X10936055Y-13453746D01*
X10936055Y-13453746D02*
X10926532Y-13444222D01*
X10926532Y-13444222D02*
X10907484Y-13434698D01*
X11069389Y-13348984D02*
X11088436Y-13348984D01*
X11088436Y-13348984D02*
X11107484Y-13358508D01*
X11107484Y-13358508D02*
X11117008Y-13368031D01*
X11117008Y-13368031D02*
X11126532Y-13387079D01*
X11126532Y-13387079D02*
X11136055Y-13425174D01*
X11136055Y-13425174D02*
X11136055Y-13472793D01*
X11136055Y-13472793D02*
X11126532Y-13510888D01*
X11126532Y-13510888D02*
X11117008Y-13529936D01*
X11117008Y-13529936D02*
X11107484Y-13539460D01*
X11107484Y-13539460D02*
X11088436Y-13548984D01*
X11088436Y-13548984D02*
X11069389Y-13548984D01*
X11069389Y-13548984D02*
X11050341Y-13539460D01*
X11050341Y-13539460D02*
X11040817Y-13529936D01*
X11040817Y-13529936D02*
X11031293Y-13510888D01*
X11031293Y-13510888D02*
X11021770Y-13472793D01*
X11021770Y-13472793D02*
X11021770Y-13425174D01*
X11021770Y-13425174D02*
X11031293Y-13387079D01*
X11031293Y-13387079D02*
X11040817Y-13368031D01*
X11040817Y-13368031D02*
X11050341Y-13358508D01*
X11050341Y-13358508D02*
X11069389Y-13348984D01*
X11259865Y-13348984D02*
X11278912Y-13348984D01*
X11278912Y-13348984D02*
X11297960Y-13358508D01*
X11297960Y-13358508D02*
X11307484Y-13368031D01*
X11307484Y-13368031D02*
X11317008Y-13387079D01*
X11317008Y-13387079D02*
X11326531Y-13425174D01*
X11326531Y-13425174D02*
X11326531Y-13472793D01*
X11326531Y-13472793D02*
X11317008Y-13510888D01*
X11317008Y-13510888D02*
X11307484Y-13529936D01*
X11307484Y-13529936D02*
X11297960Y-13539460D01*
X11297960Y-13539460D02*
X11278912Y-13548984D01*
X11278912Y-13548984D02*
X11259865Y-13548984D01*
X11259865Y-13548984D02*
X11240817Y-13539460D01*
X11240817Y-13539460D02*
X11231293Y-13529936D01*
X11231293Y-13529936D02*
X11221770Y-13510888D01*
X11221770Y-13510888D02*
X11212246Y-13472793D01*
X11212246Y-13472793D02*
X11212246Y-13425174D01*
X11212246Y-13425174D02*
X11221770Y-13387079D01*
X11221770Y-13387079D02*
X11231293Y-13368031D01*
X11231293Y-13368031D02*
X11240817Y-13358508D01*
X11240817Y-13358508D02*
X11259865Y-13348984D01*
X11412246Y-13548984D02*
X11412246Y-13415650D01*
X11412246Y-13434698D02*
X11421770Y-13425174D01*
X11421770Y-13425174D02*
X11440817Y-13415650D01*
X11440817Y-13415650D02*
X11469389Y-13415650D01*
X11469389Y-13415650D02*
X11488436Y-13425174D01*
X11488436Y-13425174D02*
X11497960Y-13444222D01*
X11497960Y-13444222D02*
X11497960Y-13548984D01*
X11497960Y-13444222D02*
X11507484Y-13425174D01*
X11507484Y-13425174D02*
X11526531Y-13415650D01*
X11526531Y-13415650D02*
X11555103Y-13415650D01*
X11555103Y-13415650D02*
X11574151Y-13425174D01*
X11574151Y-13425174D02*
X11583674Y-13444222D01*
X11583674Y-13444222D02*
X11583674Y-13548984D01*
X11678912Y-13548984D02*
X11678912Y-13415650D01*
X11678912Y-13434698D02*
X11688436Y-13425174D01*
X11688436Y-13425174D02*
X11707484Y-13415650D01*
X11707484Y-13415650D02*
X11736055Y-13415650D01*
X11736055Y-13415650D02*
X11755103Y-13425174D01*
X11755103Y-13425174D02*
X11764627Y-13444222D01*
X11764627Y-13444222D02*
X11764627Y-13548984D01*
X11764627Y-13444222D02*
X11774151Y-13425174D01*
X11774151Y-13425174D02*
X11793198Y-13415650D01*
X11793198Y-13415650D02*
X11821770Y-13415650D01*
X11821770Y-13415650D02*
X11840817Y-13425174D01*
X11840817Y-13425174D02*
X11850341Y-13444222D01*
X11850341Y-13444222D02*
X11850341Y-13548984D01*
X12240817Y-13339460D02*
X12069389Y-13596603D01*
X12497960Y-13348984D02*
X12517008Y-13348984D01*
X12517008Y-13348984D02*
X12536055Y-13358508D01*
X12536055Y-13358508D02*
X12545579Y-13368031D01*
X12545579Y-13368031D02*
X12555103Y-13387079D01*
X12555103Y-13387079D02*
X12564627Y-13425174D01*
X12564627Y-13425174D02*
X12564627Y-13472793D01*
X12564627Y-13472793D02*
X12555103Y-13510888D01*
X12555103Y-13510888D02*
X12545579Y-13529936D01*
X12545579Y-13529936D02*
X12536055Y-13539460D01*
X12536055Y-13539460D02*
X12517008Y-13548984D01*
X12517008Y-13548984D02*
X12497960Y-13548984D01*
X12497960Y-13548984D02*
X12478913Y-13539460D01*
X12478913Y-13539460D02*
X12469389Y-13529936D01*
X12469389Y-13529936D02*
X12459865Y-13510888D01*
X12459865Y-13510888D02*
X12450341Y-13472793D01*
X12450341Y-13472793D02*
X12450341Y-13425174D01*
X12450341Y-13425174D02*
X12459865Y-13387079D01*
X12459865Y-13387079D02*
X12469389Y-13368031D01*
X12469389Y-13368031D02*
X12478913Y-13358508D01*
X12478913Y-13358508D02*
X12497960Y-13348984D01*
X12650341Y-13529936D02*
X12659865Y-13539460D01*
X12659865Y-13539460D02*
X12650341Y-13548984D01*
X12650341Y-13548984D02*
X12640817Y-13539460D01*
X12640817Y-13539460D02*
X12650341Y-13529936D01*
X12650341Y-13529936D02*
X12650341Y-13548984D01*
X12783674Y-13348984D02*
X12802722Y-13348984D01*
X12802722Y-13348984D02*
X12821770Y-13358508D01*
X12821770Y-13358508D02*
X12831294Y-13368031D01*
X12831294Y-13368031D02*
X12840817Y-13387079D01*
X12840817Y-13387079D02*
X12850341Y-13425174D01*
X12850341Y-13425174D02*
X12850341Y-13472793D01*
X12850341Y-13472793D02*
X12840817Y-13510888D01*
X12840817Y-13510888D02*
X12831294Y-13529936D01*
X12831294Y-13529936D02*
X12821770Y-13539460D01*
X12821770Y-13539460D02*
X12802722Y-13548984D01*
X12802722Y-13548984D02*
X12783674Y-13548984D01*
X12783674Y-13548984D02*
X12764627Y-13539460D01*
X12764627Y-13539460D02*
X12755103Y-13529936D01*
X12755103Y-13529936D02*
X12745579Y-13510888D01*
X12745579Y-13510888D02*
X12736055Y-13472793D01*
X12736055Y-13472793D02*
X12736055Y-13425174D01*
X12736055Y-13425174D02*
X12745579Y-13387079D01*
X12745579Y-13387079D02*
X12755103Y-13368031D01*
X12755103Y-13368031D02*
X12764627Y-13358508D01*
X12764627Y-13358508D02*
X12783674Y-13348984D01*
X12917008Y-13348984D02*
X13040817Y-13348984D01*
X13040817Y-13348984D02*
X12974151Y-13425174D01*
X12974151Y-13425174D02*
X13002722Y-13425174D01*
X13002722Y-13425174D02*
X13021770Y-13434698D01*
X13021770Y-13434698D02*
X13031294Y-13444222D01*
X13031294Y-13444222D02*
X13040817Y-13463269D01*
X13040817Y-13463269D02*
X13040817Y-13510888D01*
X13040817Y-13510888D02*
X13031294Y-13529936D01*
X13031294Y-13529936D02*
X13021770Y-13539460D01*
X13021770Y-13539460D02*
X13002722Y-13548984D01*
X13002722Y-13548984D02*
X12945579Y-13548984D01*
X12945579Y-13548984D02*
X12926532Y-13539460D01*
X12926532Y-13539460D02*
X12917008Y-13529936D01*
X13231294Y-13548984D02*
X13117008Y-13548984D01*
X13174151Y-13548984D02*
X13174151Y-13348984D01*
X13174151Y-13348984D02*
X13155103Y-13377555D01*
X13155103Y-13377555D02*
X13136055Y-13396603D01*
X13136055Y-13396603D02*
X13117008Y-13406127D01*
X13412246Y-13348984D02*
X13317008Y-13348984D01*
X13317008Y-13348984D02*
X13307484Y-13444222D01*
X13307484Y-13444222D02*
X13317008Y-13434698D01*
X13317008Y-13434698D02*
X13336055Y-13425174D01*
X13336055Y-13425174D02*
X13383675Y-13425174D01*
X13383675Y-13425174D02*
X13402722Y-13434698D01*
X13402722Y-13434698D02*
X13412246Y-13444222D01*
X13412246Y-13444222D02*
X13421770Y-13463269D01*
X13421770Y-13463269D02*
X13421770Y-13510888D01*
X13421770Y-13510888D02*
X13412246Y-13529936D01*
X13412246Y-13529936D02*
X13402722Y-13539460D01*
X13402722Y-13539460D02*
X13383675Y-13548984D01*
X13383675Y-13548984D02*
X13336055Y-13548984D01*
X13336055Y-13548984D02*
X13317008Y-13539460D01*
X13317008Y-13539460D02*
X13307484Y-13529936D01*
X13497960Y-13348984D02*
X13497960Y-13387079D01*
X13574151Y-13348984D02*
X13574151Y-13387079D01*
X13869389Y-13625174D02*
X13859865Y-13615650D01*
X13859865Y-13615650D02*
X13840817Y-13587079D01*
X13840817Y-13587079D02*
X13831294Y-13568031D01*
X13831294Y-13568031D02*
X13821770Y-13539460D01*
X13821770Y-13539460D02*
X13812246Y-13491841D01*
X13812246Y-13491841D02*
X13812246Y-13453746D01*
X13812246Y-13453746D02*
X13821770Y-13406127D01*
X13821770Y-13406127D02*
X13831294Y-13377555D01*
X13831294Y-13377555D02*
X13840817Y-13358508D01*
X13840817Y-13358508D02*
X13859865Y-13329936D01*
X13859865Y-13329936D02*
X13869389Y-13320412D01*
X14040817Y-13348984D02*
X13945579Y-13348984D01*
X13945579Y-13348984D02*
X13936056Y-13444222D01*
X13936056Y-13444222D02*
X13945579Y-13434698D01*
X13945579Y-13434698D02*
X13964627Y-13425174D01*
X13964627Y-13425174D02*
X14012246Y-13425174D01*
X14012246Y-13425174D02*
X14031294Y-13434698D01*
X14031294Y-13434698D02*
X14040817Y-13444222D01*
X14040817Y-13444222D02*
X14050341Y-13463269D01*
X14050341Y-13463269D02*
X14050341Y-13510888D01*
X14050341Y-13510888D02*
X14040817Y-13529936D01*
X14040817Y-13529936D02*
X14031294Y-13539460D01*
X14031294Y-13539460D02*
X14012246Y-13548984D01*
X14012246Y-13548984D02*
X13964627Y-13548984D01*
X13964627Y-13548984D02*
X13945579Y-13539460D01*
X13945579Y-13539460D02*
X13936056Y-13529936D01*
X14288437Y-13548984D02*
X14288437Y-13348984D01*
X14374151Y-13548984D02*
X14374151Y-13444222D01*
X14374151Y-13444222D02*
X14364627Y-13425174D01*
X14364627Y-13425174D02*
X14345579Y-13415650D01*
X14345579Y-13415650D02*
X14317008Y-13415650D01*
X14317008Y-13415650D02*
X14297960Y-13425174D01*
X14297960Y-13425174D02*
X14288437Y-13434698D01*
X14497960Y-13548984D02*
X14478913Y-13539460D01*
X14478913Y-13539460D02*
X14469389Y-13529936D01*
X14469389Y-13529936D02*
X14459865Y-13510888D01*
X14459865Y-13510888D02*
X14459865Y-13453746D01*
X14459865Y-13453746D02*
X14469389Y-13434698D01*
X14469389Y-13434698D02*
X14478913Y-13425174D01*
X14478913Y-13425174D02*
X14497960Y-13415650D01*
X14497960Y-13415650D02*
X14526532Y-13415650D01*
X14526532Y-13415650D02*
X14545579Y-13425174D01*
X14545579Y-13425174D02*
X14555103Y-13434698D01*
X14555103Y-13434698D02*
X14564627Y-13453746D01*
X14564627Y-13453746D02*
X14564627Y-13510888D01*
X14564627Y-13510888D02*
X14555103Y-13529936D01*
X14555103Y-13529936D02*
X14545579Y-13539460D01*
X14545579Y-13539460D02*
X14526532Y-13548984D01*
X14526532Y-13548984D02*
X14497960Y-13548984D01*
X14678913Y-13548984D02*
X14659865Y-13539460D01*
X14659865Y-13539460D02*
X14650341Y-13520412D01*
X14650341Y-13520412D02*
X14650341Y-13348984D01*
X14831294Y-13539460D02*
X14812246Y-13548984D01*
X14812246Y-13548984D02*
X14774151Y-13548984D01*
X14774151Y-13548984D02*
X14755103Y-13539460D01*
X14755103Y-13539460D02*
X14745579Y-13520412D01*
X14745579Y-13520412D02*
X14745579Y-13444222D01*
X14745579Y-13444222D02*
X14755103Y-13425174D01*
X14755103Y-13425174D02*
X14774151Y-13415650D01*
X14774151Y-13415650D02*
X14812246Y-13415650D01*
X14812246Y-13415650D02*
X14831294Y-13425174D01*
X14831294Y-13425174D02*
X14840818Y-13444222D01*
X14840818Y-13444222D02*
X14840818Y-13463269D01*
X14840818Y-13463269D02*
X14745579Y-13482317D01*
X14917008Y-13539460D02*
X14936056Y-13548984D01*
X14936056Y-13548984D02*
X14974151Y-13548984D01*
X14974151Y-13548984D02*
X14993199Y-13539460D01*
X14993199Y-13539460D02*
X15002722Y-13520412D01*
X15002722Y-13520412D02*
X15002722Y-13510888D01*
X15002722Y-13510888D02*
X14993199Y-13491841D01*
X14993199Y-13491841D02*
X14974151Y-13482317D01*
X14974151Y-13482317D02*
X14945579Y-13482317D01*
X14945579Y-13482317D02*
X14926532Y-13472793D01*
X14926532Y-13472793D02*
X14917008Y-13453746D01*
X14917008Y-13453746D02*
X14917008Y-13444222D01*
X14917008Y-13444222D02*
X14926532Y-13425174D01*
X14926532Y-13425174D02*
X14945579Y-13415650D01*
X14945579Y-13415650D02*
X14974151Y-13415650D01*
X14974151Y-13415650D02*
X14993199Y-13425174D01*
X15069389Y-13625174D02*
X15078913Y-13615650D01*
X15078913Y-13615650D02*
X15097960Y-13587079D01*
X15097960Y-13587079D02*
X15107484Y-13568031D01*
X15107484Y-13568031D02*
X15117008Y-13539460D01*
X15117008Y-13539460D02*
X15126532Y-13491841D01*
X15126532Y-13491841D02*
X15126532Y-13453746D01*
X15126532Y-13453746D02*
X15117008Y-13406127D01*
X15117008Y-13406127D02*
X15107484Y-13377555D01*
X15107484Y-13377555D02*
X15097960Y-13358508D01*
X15097960Y-13358508D02*
X15078913Y-13329936D01*
X15078913Y-13329936D02*
X15069389Y-13320412D01*
X10194326Y-13821500D02*
X10294326Y-13721500D01*
X10194326Y-13621500D01*
X10094326Y-13721500D01*
X10194326Y-13821500D01*
X10536055Y-13612984D02*
X10659865Y-13612984D01*
X10659865Y-13612984D02*
X10593198Y-13689174D01*
X10593198Y-13689174D02*
X10621770Y-13689174D01*
X10621770Y-13689174D02*
X10640817Y-13698698D01*
X10640817Y-13698698D02*
X10650341Y-13708222D01*
X10650341Y-13708222D02*
X10659865Y-13727269D01*
X10659865Y-13727269D02*
X10659865Y-13774888D01*
X10659865Y-13774888D02*
X10650341Y-13793936D01*
X10650341Y-13793936D02*
X10640817Y-13803460D01*
X10640817Y-13803460D02*
X10621770Y-13812984D01*
X10621770Y-13812984D02*
X10564627Y-13812984D01*
X10564627Y-13812984D02*
X10545579Y-13803460D01*
X10545579Y-13803460D02*
X10536055Y-13793936D01*
X10745579Y-13793936D02*
X10755103Y-13803460D01*
X10755103Y-13803460D02*
X10745579Y-13812984D01*
X10745579Y-13812984D02*
X10736055Y-13803460D01*
X10736055Y-13803460D02*
X10745579Y-13793936D01*
X10745579Y-13793936D02*
X10745579Y-13812984D01*
X10831293Y-13632031D02*
X10840817Y-13622508D01*
X10840817Y-13622508D02*
X10859865Y-13612984D01*
X10859865Y-13612984D02*
X10907484Y-13612984D01*
X10907484Y-13612984D02*
X10926532Y-13622508D01*
X10926532Y-13622508D02*
X10936055Y-13632031D01*
X10936055Y-13632031D02*
X10945579Y-13651079D01*
X10945579Y-13651079D02*
X10945579Y-13670127D01*
X10945579Y-13670127D02*
X10936055Y-13698698D01*
X10936055Y-13698698D02*
X10821770Y-13812984D01*
X10821770Y-13812984D02*
X10945579Y-13812984D01*
X11069389Y-13612984D02*
X11088436Y-13612984D01*
X11088436Y-13612984D02*
X11107484Y-13622508D01*
X11107484Y-13622508D02*
X11117008Y-13632031D01*
X11117008Y-13632031D02*
X11126532Y-13651079D01*
X11126532Y-13651079D02*
X11136055Y-13689174D01*
X11136055Y-13689174D02*
X11136055Y-13736793D01*
X11136055Y-13736793D02*
X11126532Y-13774888D01*
X11126532Y-13774888D02*
X11117008Y-13793936D01*
X11117008Y-13793936D02*
X11107484Y-13803460D01*
X11107484Y-13803460D02*
X11088436Y-13812984D01*
X11088436Y-13812984D02*
X11069389Y-13812984D01*
X11069389Y-13812984D02*
X11050341Y-13803460D01*
X11050341Y-13803460D02*
X11040817Y-13793936D01*
X11040817Y-13793936D02*
X11031293Y-13774888D01*
X11031293Y-13774888D02*
X11021770Y-13736793D01*
X11021770Y-13736793D02*
X11021770Y-13689174D01*
X11021770Y-13689174D02*
X11031293Y-13651079D01*
X11031293Y-13651079D02*
X11040817Y-13632031D01*
X11040817Y-13632031D02*
X11050341Y-13622508D01*
X11050341Y-13622508D02*
X11069389Y-13612984D01*
X11259865Y-13612984D02*
X11278912Y-13612984D01*
X11278912Y-13612984D02*
X11297960Y-13622508D01*
X11297960Y-13622508D02*
X11307484Y-13632031D01*
X11307484Y-13632031D02*
X11317008Y-13651079D01*
X11317008Y-13651079D02*
X11326531Y-13689174D01*
X11326531Y-13689174D02*
X11326531Y-13736793D01*
X11326531Y-13736793D02*
X11317008Y-13774888D01*
X11317008Y-13774888D02*
X11307484Y-13793936D01*
X11307484Y-13793936D02*
X11297960Y-13803460D01*
X11297960Y-13803460D02*
X11278912Y-13812984D01*
X11278912Y-13812984D02*
X11259865Y-13812984D01*
X11259865Y-13812984D02*
X11240817Y-13803460D01*
X11240817Y-13803460D02*
X11231293Y-13793936D01*
X11231293Y-13793936D02*
X11221770Y-13774888D01*
X11221770Y-13774888D02*
X11212246Y-13736793D01*
X11212246Y-13736793D02*
X11212246Y-13689174D01*
X11212246Y-13689174D02*
X11221770Y-13651079D01*
X11221770Y-13651079D02*
X11231293Y-13632031D01*
X11231293Y-13632031D02*
X11240817Y-13622508D01*
X11240817Y-13622508D02*
X11259865Y-13612984D01*
X11412246Y-13812984D02*
X11412246Y-13679650D01*
X11412246Y-13698698D02*
X11421770Y-13689174D01*
X11421770Y-13689174D02*
X11440817Y-13679650D01*
X11440817Y-13679650D02*
X11469389Y-13679650D01*
X11469389Y-13679650D02*
X11488436Y-13689174D01*
X11488436Y-13689174D02*
X11497960Y-13708222D01*
X11497960Y-13708222D02*
X11497960Y-13812984D01*
X11497960Y-13708222D02*
X11507484Y-13689174D01*
X11507484Y-13689174D02*
X11526531Y-13679650D01*
X11526531Y-13679650D02*
X11555103Y-13679650D01*
X11555103Y-13679650D02*
X11574151Y-13689174D01*
X11574151Y-13689174D02*
X11583674Y-13708222D01*
X11583674Y-13708222D02*
X11583674Y-13812984D01*
X11678912Y-13812984D02*
X11678912Y-13679650D01*
X11678912Y-13698698D02*
X11688436Y-13689174D01*
X11688436Y-13689174D02*
X11707484Y-13679650D01*
X11707484Y-13679650D02*
X11736055Y-13679650D01*
X11736055Y-13679650D02*
X11755103Y-13689174D01*
X11755103Y-13689174D02*
X11764627Y-13708222D01*
X11764627Y-13708222D02*
X11764627Y-13812984D01*
X11764627Y-13708222D02*
X11774151Y-13689174D01*
X11774151Y-13689174D02*
X11793198Y-13679650D01*
X11793198Y-13679650D02*
X11821770Y-13679650D01*
X11821770Y-13679650D02*
X11840817Y-13689174D01*
X11840817Y-13689174D02*
X11850341Y-13708222D01*
X11850341Y-13708222D02*
X11850341Y-13812984D01*
X12240817Y-13603460D02*
X12069389Y-13860603D01*
X12497960Y-13612984D02*
X12517008Y-13612984D01*
X12517008Y-13612984D02*
X12536055Y-13622508D01*
X12536055Y-13622508D02*
X12545579Y-13632031D01*
X12545579Y-13632031D02*
X12555103Y-13651079D01*
X12555103Y-13651079D02*
X12564627Y-13689174D01*
X12564627Y-13689174D02*
X12564627Y-13736793D01*
X12564627Y-13736793D02*
X12555103Y-13774888D01*
X12555103Y-13774888D02*
X12545579Y-13793936D01*
X12545579Y-13793936D02*
X12536055Y-13803460D01*
X12536055Y-13803460D02*
X12517008Y-13812984D01*
X12517008Y-13812984D02*
X12497960Y-13812984D01*
X12497960Y-13812984D02*
X12478913Y-13803460D01*
X12478913Y-13803460D02*
X12469389Y-13793936D01*
X12469389Y-13793936D02*
X12459865Y-13774888D01*
X12459865Y-13774888D02*
X12450341Y-13736793D01*
X12450341Y-13736793D02*
X12450341Y-13689174D01*
X12450341Y-13689174D02*
X12459865Y-13651079D01*
X12459865Y-13651079D02*
X12469389Y-13632031D01*
X12469389Y-13632031D02*
X12478913Y-13622508D01*
X12478913Y-13622508D02*
X12497960Y-13612984D01*
X12650341Y-13793936D02*
X12659865Y-13803460D01*
X12659865Y-13803460D02*
X12650341Y-13812984D01*
X12650341Y-13812984D02*
X12640817Y-13803460D01*
X12640817Y-13803460D02*
X12650341Y-13793936D01*
X12650341Y-13793936D02*
X12650341Y-13812984D01*
X12850341Y-13812984D02*
X12736055Y-13812984D01*
X12793198Y-13812984D02*
X12793198Y-13612984D01*
X12793198Y-13612984D02*
X12774151Y-13641555D01*
X12774151Y-13641555D02*
X12755103Y-13660603D01*
X12755103Y-13660603D02*
X12736055Y-13670127D01*
X12926532Y-13632031D02*
X12936055Y-13622508D01*
X12936055Y-13622508D02*
X12955103Y-13612984D01*
X12955103Y-13612984D02*
X13002722Y-13612984D01*
X13002722Y-13612984D02*
X13021770Y-13622508D01*
X13021770Y-13622508D02*
X13031294Y-13632031D01*
X13031294Y-13632031D02*
X13040817Y-13651079D01*
X13040817Y-13651079D02*
X13040817Y-13670127D01*
X13040817Y-13670127D02*
X13031294Y-13698698D01*
X13031294Y-13698698D02*
X12917008Y-13812984D01*
X12917008Y-13812984D02*
X13040817Y-13812984D01*
X13212246Y-13612984D02*
X13174151Y-13612984D01*
X13174151Y-13612984D02*
X13155103Y-13622508D01*
X13155103Y-13622508D02*
X13145579Y-13632031D01*
X13145579Y-13632031D02*
X13126532Y-13660603D01*
X13126532Y-13660603D02*
X13117008Y-13698698D01*
X13117008Y-13698698D02*
X13117008Y-13774888D01*
X13117008Y-13774888D02*
X13126532Y-13793936D01*
X13126532Y-13793936D02*
X13136055Y-13803460D01*
X13136055Y-13803460D02*
X13155103Y-13812984D01*
X13155103Y-13812984D02*
X13193198Y-13812984D01*
X13193198Y-13812984D02*
X13212246Y-13803460D01*
X13212246Y-13803460D02*
X13221770Y-13793936D01*
X13221770Y-13793936D02*
X13231294Y-13774888D01*
X13231294Y-13774888D02*
X13231294Y-13727269D01*
X13231294Y-13727269D02*
X13221770Y-13708222D01*
X13221770Y-13708222D02*
X13212246Y-13698698D01*
X13212246Y-13698698D02*
X13193198Y-13689174D01*
X13193198Y-13689174D02*
X13155103Y-13689174D01*
X13155103Y-13689174D02*
X13136055Y-13698698D01*
X13136055Y-13698698D02*
X13126532Y-13708222D01*
X13126532Y-13708222D02*
X13117008Y-13727269D01*
X13355103Y-13612984D02*
X13374151Y-13612984D01*
X13374151Y-13612984D02*
X13393198Y-13622508D01*
X13393198Y-13622508D02*
X13402722Y-13632031D01*
X13402722Y-13632031D02*
X13412246Y-13651079D01*
X13412246Y-13651079D02*
X13421770Y-13689174D01*
X13421770Y-13689174D02*
X13421770Y-13736793D01*
X13421770Y-13736793D02*
X13412246Y-13774888D01*
X13412246Y-13774888D02*
X13402722Y-13793936D01*
X13402722Y-13793936D02*
X13393198Y-13803460D01*
X13393198Y-13803460D02*
X13374151Y-13812984D01*
X13374151Y-13812984D02*
X13355103Y-13812984D01*
X13355103Y-13812984D02*
X13336055Y-13803460D01*
X13336055Y-13803460D02*
X13326532Y-13793936D01*
X13326532Y-13793936D02*
X13317008Y-13774888D01*
X13317008Y-13774888D02*
X13307484Y-13736793D01*
X13307484Y-13736793D02*
X13307484Y-13689174D01*
X13307484Y-13689174D02*
X13317008Y-13651079D01*
X13317008Y-13651079D02*
X13326532Y-13632031D01*
X13326532Y-13632031D02*
X13336055Y-13622508D01*
X13336055Y-13622508D02*
X13355103Y-13612984D01*
X13497960Y-13612984D02*
X13497960Y-13651079D01*
X13574151Y-13612984D02*
X13574151Y-13651079D01*
X13869389Y-13889174D02*
X13859865Y-13879650D01*
X13859865Y-13879650D02*
X13840817Y-13851079D01*
X13840817Y-13851079D02*
X13831294Y-13832031D01*
X13831294Y-13832031D02*
X13821770Y-13803460D01*
X13821770Y-13803460D02*
X13812246Y-13755841D01*
X13812246Y-13755841D02*
X13812246Y-13717746D01*
X13812246Y-13717746D02*
X13821770Y-13670127D01*
X13821770Y-13670127D02*
X13831294Y-13641555D01*
X13831294Y-13641555D02*
X13840817Y-13622508D01*
X13840817Y-13622508D02*
X13859865Y-13593936D01*
X13859865Y-13593936D02*
X13869389Y-13584412D01*
X14031294Y-13679650D02*
X14031294Y-13812984D01*
X13983675Y-13603460D02*
X13936056Y-13746317D01*
X13936056Y-13746317D02*
X14059865Y-13746317D01*
X14288437Y-13812984D02*
X14288437Y-13612984D01*
X14374151Y-13812984D02*
X14374151Y-13708222D01*
X14374151Y-13708222D02*
X14364627Y-13689174D01*
X14364627Y-13689174D02*
X14345579Y-13679650D01*
X14345579Y-13679650D02*
X14317008Y-13679650D01*
X14317008Y-13679650D02*
X14297960Y-13689174D01*
X14297960Y-13689174D02*
X14288437Y-13698698D01*
X14497960Y-13812984D02*
X14478913Y-13803460D01*
X14478913Y-13803460D02*
X14469389Y-13793936D01*
X14469389Y-13793936D02*
X14459865Y-13774888D01*
X14459865Y-13774888D02*
X14459865Y-13717746D01*
X14459865Y-13717746D02*
X14469389Y-13698698D01*
X14469389Y-13698698D02*
X14478913Y-13689174D01*
X14478913Y-13689174D02*
X14497960Y-13679650D01*
X14497960Y-13679650D02*
X14526532Y-13679650D01*
X14526532Y-13679650D02*
X14545579Y-13689174D01*
X14545579Y-13689174D02*
X14555103Y-13698698D01*
X14555103Y-13698698D02*
X14564627Y-13717746D01*
X14564627Y-13717746D02*
X14564627Y-13774888D01*
X14564627Y-13774888D02*
X14555103Y-13793936D01*
X14555103Y-13793936D02*
X14545579Y-13803460D01*
X14545579Y-13803460D02*
X14526532Y-13812984D01*
X14526532Y-13812984D02*
X14497960Y-13812984D01*
X14678913Y-13812984D02*
X14659865Y-13803460D01*
X14659865Y-13803460D02*
X14650341Y-13784412D01*
X14650341Y-13784412D02*
X14650341Y-13612984D01*
X14831294Y-13803460D02*
X14812246Y-13812984D01*
X14812246Y-13812984D02*
X14774151Y-13812984D01*
X14774151Y-13812984D02*
X14755103Y-13803460D01*
X14755103Y-13803460D02*
X14745579Y-13784412D01*
X14745579Y-13784412D02*
X14745579Y-13708222D01*
X14745579Y-13708222D02*
X14755103Y-13689174D01*
X14755103Y-13689174D02*
X14774151Y-13679650D01*
X14774151Y-13679650D02*
X14812246Y-13679650D01*
X14812246Y-13679650D02*
X14831294Y-13689174D01*
X14831294Y-13689174D02*
X14840818Y-13708222D01*
X14840818Y-13708222D02*
X14840818Y-13727269D01*
X14840818Y-13727269D02*
X14745579Y-13746317D01*
X14917008Y-13803460D02*
X14936056Y-13812984D01*
X14936056Y-13812984D02*
X14974151Y-13812984D01*
X14974151Y-13812984D02*
X14993199Y-13803460D01*
X14993199Y-13803460D02*
X15002722Y-13784412D01*
X15002722Y-13784412D02*
X15002722Y-13774888D01*
X15002722Y-13774888D02*
X14993199Y-13755841D01*
X14993199Y-13755841D02*
X14974151Y-13746317D01*
X14974151Y-13746317D02*
X14945579Y-13746317D01*
X14945579Y-13746317D02*
X14926532Y-13736793D01*
X14926532Y-13736793D02*
X14917008Y-13717746D01*
X14917008Y-13717746D02*
X14917008Y-13708222D01*
X14917008Y-13708222D02*
X14926532Y-13689174D01*
X14926532Y-13689174D02*
X14945579Y-13679650D01*
X14945579Y-13679650D02*
X14974151Y-13679650D01*
X14974151Y-13679650D02*
X14993199Y-13689174D01*
X15069389Y-13889174D02*
X15078913Y-13879650D01*
X15078913Y-13879650D02*
X15097960Y-13851079D01*
X15097960Y-13851079D02*
X15107484Y-13832031D01*
X15107484Y-13832031D02*
X15117008Y-13803460D01*
X15117008Y-13803460D02*
X15126532Y-13755841D01*
X15126532Y-13755841D02*
X15126532Y-13717746D01*
X15126532Y-13717746D02*
X15117008Y-13670127D01*
X15117008Y-13670127D02*
X15107484Y-13641555D01*
X15107484Y-13641555D02*
X15097960Y-13622508D01*
X15097960Y-13622508D02*
X15078913Y-13593936D01*
X15078913Y-13593936D02*
X15069389Y-13584412D01*
M02*
