%TF.GenerationSoftware,KiCad,Pcbnew,7.0.8*%
%TF.CreationDate,2023-11-11T12:02:06+01:00*%
%TF.ProjectId,Rhapsody_IQ,52686170-736f-4647-995f-49512e6b6963,rev?*%
%TF.SameCoordinates,Original*%
%TF.FileFunction,Drillmap*%
%TF.FilePolarity,Positive*%
%FSLAX45Y45*%
G04 Gerber Fmt 4.5, Leading zero omitted, Abs format (unit mm)*
G04 Created by KiCad (PCBNEW 7.0.8) date 2023-11-11 12:02:06*
%MOMM*%
%LPD*%
G01*
G04 APERTURE LIST*
%ADD10C,0.100000*%
%ADD11C,0.200000*%
%ADD12C,0.170000*%
G04 APERTURE END LIST*
D10*
X11695600Y-11180500D02*
X10604126Y-11176000D01*
X19317074Y-10871200D02*
X19316700Y-3162487D01*
X19012274Y-11176004D02*
G75*
G03*
X19317074Y-10871200I-4J304804D01*
G01*
X19316703Y-3162487D02*
G75*
G03*
X19011900Y-2857687I-304803J-3D01*
G01*
X10604126Y-2857306D02*
G75*
G03*
X10299326Y-3162113I4J-304804D01*
G01*
X15125600Y-11180500D02*
X19012274Y-11176000D01*
X10299330Y-10871200D02*
G75*
G03*
X10604126Y-11176000I304800J0D01*
G01*
X10299326Y-10871200D02*
X10299326Y-3162113D01*
X10299326Y-10871200D02*
X10299326Y-10871200D01*
X19011900Y-2857687D02*
X10604126Y-2857313D01*
D11*
D12*
X17615400Y-4158000D02*
X17785400Y-4328000D01*
X17785400Y-4158000D02*
X17615400Y-4328000D01*
X17630000Y-9732100D02*
X17800000Y-9902100D01*
X17800000Y-9732100D02*
X17630000Y-9902100D01*
X18315400Y-4158000D02*
X18485400Y-4328000D01*
X18485400Y-4158000D02*
X18315400Y-4328000D01*
X18330000Y-9732100D02*
X18500000Y-9902100D01*
X18500000Y-9732100D02*
X18330000Y-9902100D01*
D11*
X10555103Y-12336984D02*
X10555103Y-12136984D01*
X10555103Y-12136984D02*
X10602722Y-12136984D01*
X10602722Y-12136984D02*
X10631293Y-12146508D01*
X10631293Y-12146508D02*
X10650341Y-12165555D01*
X10650341Y-12165555D02*
X10659865Y-12184603D01*
X10659865Y-12184603D02*
X10669389Y-12222698D01*
X10669389Y-12222698D02*
X10669389Y-12251269D01*
X10669389Y-12251269D02*
X10659865Y-12289365D01*
X10659865Y-12289365D02*
X10650341Y-12308412D01*
X10650341Y-12308412D02*
X10631293Y-12327460D01*
X10631293Y-12327460D02*
X10602722Y-12336984D01*
X10602722Y-12336984D02*
X10555103Y-12336984D01*
X10755103Y-12336984D02*
X10755103Y-12203650D01*
X10755103Y-12241746D02*
X10764627Y-12222698D01*
X10764627Y-12222698D02*
X10774151Y-12213174D01*
X10774151Y-12213174D02*
X10793198Y-12203650D01*
X10793198Y-12203650D02*
X10812246Y-12203650D01*
X10878912Y-12336984D02*
X10878912Y-12203650D01*
X10878912Y-12136984D02*
X10869389Y-12146508D01*
X10869389Y-12146508D02*
X10878912Y-12156031D01*
X10878912Y-12156031D02*
X10888436Y-12146508D01*
X10888436Y-12146508D02*
X10878912Y-12136984D01*
X10878912Y-12136984D02*
X10878912Y-12156031D01*
X11002722Y-12336984D02*
X10983674Y-12327460D01*
X10983674Y-12327460D02*
X10974151Y-12308412D01*
X10974151Y-12308412D02*
X10974151Y-12136984D01*
X11107484Y-12336984D02*
X11088436Y-12327460D01*
X11088436Y-12327460D02*
X11078912Y-12308412D01*
X11078912Y-12308412D02*
X11078912Y-12136984D01*
X11336055Y-12336984D02*
X11336055Y-12136984D01*
X11336055Y-12136984D02*
X11402722Y-12279841D01*
X11402722Y-12279841D02*
X11469389Y-12136984D01*
X11469389Y-12136984D02*
X11469389Y-12336984D01*
X11650341Y-12336984D02*
X11650341Y-12232222D01*
X11650341Y-12232222D02*
X11640817Y-12213174D01*
X11640817Y-12213174D02*
X11621770Y-12203650D01*
X11621770Y-12203650D02*
X11583674Y-12203650D01*
X11583674Y-12203650D02*
X11564627Y-12213174D01*
X11650341Y-12327460D02*
X11631293Y-12336984D01*
X11631293Y-12336984D02*
X11583674Y-12336984D01*
X11583674Y-12336984D02*
X11564627Y-12327460D01*
X11564627Y-12327460D02*
X11555103Y-12308412D01*
X11555103Y-12308412D02*
X11555103Y-12289365D01*
X11555103Y-12289365D02*
X11564627Y-12270317D01*
X11564627Y-12270317D02*
X11583674Y-12260793D01*
X11583674Y-12260793D02*
X11631293Y-12260793D01*
X11631293Y-12260793D02*
X11650341Y-12251269D01*
X11745579Y-12203650D02*
X11745579Y-12403650D01*
X11745579Y-12213174D02*
X11764627Y-12203650D01*
X11764627Y-12203650D02*
X11802722Y-12203650D01*
X11802722Y-12203650D02*
X11821770Y-12213174D01*
X11821770Y-12213174D02*
X11831293Y-12222698D01*
X11831293Y-12222698D02*
X11840817Y-12241746D01*
X11840817Y-12241746D02*
X11840817Y-12298888D01*
X11840817Y-12298888D02*
X11831293Y-12317936D01*
X11831293Y-12317936D02*
X11821770Y-12327460D01*
X11821770Y-12327460D02*
X11802722Y-12336984D01*
X11802722Y-12336984D02*
X11764627Y-12336984D01*
X11764627Y-12336984D02*
X11745579Y-12327460D01*
X11926531Y-12317936D02*
X11936055Y-12327460D01*
X11936055Y-12327460D02*
X11926531Y-12336984D01*
X11926531Y-12336984D02*
X11917008Y-12327460D01*
X11917008Y-12327460D02*
X11926531Y-12317936D01*
X11926531Y-12317936D02*
X11926531Y-12336984D01*
X11926531Y-12213174D02*
X11936055Y-12222698D01*
X11936055Y-12222698D02*
X11926531Y-12232222D01*
X11926531Y-12232222D02*
X11917008Y-12222698D01*
X11917008Y-12222698D02*
X11926531Y-12213174D01*
X11926531Y-12213174D02*
X11926531Y-12232222D01*
D12*
X10124326Y-12580500D02*
X10294326Y-12750500D01*
X10294326Y-12580500D02*
X10124326Y-12750500D01*
D11*
X10659865Y-12756984D02*
X10545579Y-12756984D01*
X10602722Y-12756984D02*
X10602722Y-12556984D01*
X10602722Y-12556984D02*
X10583674Y-12585555D01*
X10583674Y-12585555D02*
X10564627Y-12604603D01*
X10564627Y-12604603D02*
X10545579Y-12614127D01*
X10745579Y-12737936D02*
X10755103Y-12747460D01*
X10755103Y-12747460D02*
X10745579Y-12756984D01*
X10745579Y-12756984D02*
X10736055Y-12747460D01*
X10736055Y-12747460D02*
X10745579Y-12737936D01*
X10745579Y-12737936D02*
X10745579Y-12756984D01*
X10821770Y-12556984D02*
X10955103Y-12556984D01*
X10955103Y-12556984D02*
X10869389Y-12756984D01*
X11069389Y-12556984D02*
X11088436Y-12556984D01*
X11088436Y-12556984D02*
X11107484Y-12566508D01*
X11107484Y-12566508D02*
X11117008Y-12576031D01*
X11117008Y-12576031D02*
X11126532Y-12595079D01*
X11126532Y-12595079D02*
X11136055Y-12633174D01*
X11136055Y-12633174D02*
X11136055Y-12680793D01*
X11136055Y-12680793D02*
X11126532Y-12718888D01*
X11126532Y-12718888D02*
X11117008Y-12737936D01*
X11117008Y-12737936D02*
X11107484Y-12747460D01*
X11107484Y-12747460D02*
X11088436Y-12756984D01*
X11088436Y-12756984D02*
X11069389Y-12756984D01*
X11069389Y-12756984D02*
X11050341Y-12747460D01*
X11050341Y-12747460D02*
X11040817Y-12737936D01*
X11040817Y-12737936D02*
X11031293Y-12718888D01*
X11031293Y-12718888D02*
X11021770Y-12680793D01*
X11021770Y-12680793D02*
X11021770Y-12633174D01*
X11021770Y-12633174D02*
X11031293Y-12595079D01*
X11031293Y-12595079D02*
X11040817Y-12576031D01*
X11040817Y-12576031D02*
X11050341Y-12566508D01*
X11050341Y-12566508D02*
X11069389Y-12556984D01*
X11259865Y-12556984D02*
X11278912Y-12556984D01*
X11278912Y-12556984D02*
X11297960Y-12566508D01*
X11297960Y-12566508D02*
X11307484Y-12576031D01*
X11307484Y-12576031D02*
X11317008Y-12595079D01*
X11317008Y-12595079D02*
X11326531Y-12633174D01*
X11326531Y-12633174D02*
X11326531Y-12680793D01*
X11326531Y-12680793D02*
X11317008Y-12718888D01*
X11317008Y-12718888D02*
X11307484Y-12737936D01*
X11307484Y-12737936D02*
X11297960Y-12747460D01*
X11297960Y-12747460D02*
X11278912Y-12756984D01*
X11278912Y-12756984D02*
X11259865Y-12756984D01*
X11259865Y-12756984D02*
X11240817Y-12747460D01*
X11240817Y-12747460D02*
X11231293Y-12737936D01*
X11231293Y-12737936D02*
X11221770Y-12718888D01*
X11221770Y-12718888D02*
X11212246Y-12680793D01*
X11212246Y-12680793D02*
X11212246Y-12633174D01*
X11212246Y-12633174D02*
X11221770Y-12595079D01*
X11221770Y-12595079D02*
X11231293Y-12576031D01*
X11231293Y-12576031D02*
X11240817Y-12566508D01*
X11240817Y-12566508D02*
X11259865Y-12556984D01*
X11412246Y-12756984D02*
X11412246Y-12623650D01*
X11412246Y-12642698D02*
X11421770Y-12633174D01*
X11421770Y-12633174D02*
X11440817Y-12623650D01*
X11440817Y-12623650D02*
X11469389Y-12623650D01*
X11469389Y-12623650D02*
X11488436Y-12633174D01*
X11488436Y-12633174D02*
X11497960Y-12652222D01*
X11497960Y-12652222D02*
X11497960Y-12756984D01*
X11497960Y-12652222D02*
X11507484Y-12633174D01*
X11507484Y-12633174D02*
X11526531Y-12623650D01*
X11526531Y-12623650D02*
X11555103Y-12623650D01*
X11555103Y-12623650D02*
X11574151Y-12633174D01*
X11574151Y-12633174D02*
X11583674Y-12652222D01*
X11583674Y-12652222D02*
X11583674Y-12756984D01*
X11678912Y-12756984D02*
X11678912Y-12623650D01*
X11678912Y-12642698D02*
X11688436Y-12633174D01*
X11688436Y-12633174D02*
X11707484Y-12623650D01*
X11707484Y-12623650D02*
X11736055Y-12623650D01*
X11736055Y-12623650D02*
X11755103Y-12633174D01*
X11755103Y-12633174D02*
X11764627Y-12652222D01*
X11764627Y-12652222D02*
X11764627Y-12756984D01*
X11764627Y-12652222D02*
X11774151Y-12633174D01*
X11774151Y-12633174D02*
X11793198Y-12623650D01*
X11793198Y-12623650D02*
X11821770Y-12623650D01*
X11821770Y-12623650D02*
X11840817Y-12633174D01*
X11840817Y-12633174D02*
X11850341Y-12652222D01*
X11850341Y-12652222D02*
X11850341Y-12756984D01*
X12240817Y-12547460D02*
X12069389Y-12804603D01*
X12497960Y-12556984D02*
X12517008Y-12556984D01*
X12517008Y-12556984D02*
X12536055Y-12566508D01*
X12536055Y-12566508D02*
X12545579Y-12576031D01*
X12545579Y-12576031D02*
X12555103Y-12595079D01*
X12555103Y-12595079D02*
X12564627Y-12633174D01*
X12564627Y-12633174D02*
X12564627Y-12680793D01*
X12564627Y-12680793D02*
X12555103Y-12718888D01*
X12555103Y-12718888D02*
X12545579Y-12737936D01*
X12545579Y-12737936D02*
X12536055Y-12747460D01*
X12536055Y-12747460D02*
X12517008Y-12756984D01*
X12517008Y-12756984D02*
X12497960Y-12756984D01*
X12497960Y-12756984D02*
X12478913Y-12747460D01*
X12478913Y-12747460D02*
X12469389Y-12737936D01*
X12469389Y-12737936D02*
X12459865Y-12718888D01*
X12459865Y-12718888D02*
X12450341Y-12680793D01*
X12450341Y-12680793D02*
X12450341Y-12633174D01*
X12450341Y-12633174D02*
X12459865Y-12595079D01*
X12459865Y-12595079D02*
X12469389Y-12576031D01*
X12469389Y-12576031D02*
X12478913Y-12566508D01*
X12478913Y-12566508D02*
X12497960Y-12556984D01*
X12650341Y-12737936D02*
X12659865Y-12747460D01*
X12659865Y-12747460D02*
X12650341Y-12756984D01*
X12650341Y-12756984D02*
X12640817Y-12747460D01*
X12640817Y-12747460D02*
X12650341Y-12737936D01*
X12650341Y-12737936D02*
X12650341Y-12756984D01*
X12783674Y-12556984D02*
X12802722Y-12556984D01*
X12802722Y-12556984D02*
X12821770Y-12566508D01*
X12821770Y-12566508D02*
X12831294Y-12576031D01*
X12831294Y-12576031D02*
X12840817Y-12595079D01*
X12840817Y-12595079D02*
X12850341Y-12633174D01*
X12850341Y-12633174D02*
X12850341Y-12680793D01*
X12850341Y-12680793D02*
X12840817Y-12718888D01*
X12840817Y-12718888D02*
X12831294Y-12737936D01*
X12831294Y-12737936D02*
X12821770Y-12747460D01*
X12821770Y-12747460D02*
X12802722Y-12756984D01*
X12802722Y-12756984D02*
X12783674Y-12756984D01*
X12783674Y-12756984D02*
X12764627Y-12747460D01*
X12764627Y-12747460D02*
X12755103Y-12737936D01*
X12755103Y-12737936D02*
X12745579Y-12718888D01*
X12745579Y-12718888D02*
X12736055Y-12680793D01*
X12736055Y-12680793D02*
X12736055Y-12633174D01*
X12736055Y-12633174D02*
X12745579Y-12595079D01*
X12745579Y-12595079D02*
X12755103Y-12576031D01*
X12755103Y-12576031D02*
X12764627Y-12566508D01*
X12764627Y-12566508D02*
X12783674Y-12556984D01*
X13021770Y-12556984D02*
X12983674Y-12556984D01*
X12983674Y-12556984D02*
X12964627Y-12566508D01*
X12964627Y-12566508D02*
X12955103Y-12576031D01*
X12955103Y-12576031D02*
X12936055Y-12604603D01*
X12936055Y-12604603D02*
X12926532Y-12642698D01*
X12926532Y-12642698D02*
X12926532Y-12718888D01*
X12926532Y-12718888D02*
X12936055Y-12737936D01*
X12936055Y-12737936D02*
X12945579Y-12747460D01*
X12945579Y-12747460D02*
X12964627Y-12756984D01*
X12964627Y-12756984D02*
X13002722Y-12756984D01*
X13002722Y-12756984D02*
X13021770Y-12747460D01*
X13021770Y-12747460D02*
X13031294Y-12737936D01*
X13031294Y-12737936D02*
X13040817Y-12718888D01*
X13040817Y-12718888D02*
X13040817Y-12671269D01*
X13040817Y-12671269D02*
X13031294Y-12652222D01*
X13031294Y-12652222D02*
X13021770Y-12642698D01*
X13021770Y-12642698D02*
X13002722Y-12633174D01*
X13002722Y-12633174D02*
X12964627Y-12633174D01*
X12964627Y-12633174D02*
X12945579Y-12642698D01*
X12945579Y-12642698D02*
X12936055Y-12652222D01*
X12936055Y-12652222D02*
X12926532Y-12671269D01*
X13212246Y-12556984D02*
X13174151Y-12556984D01*
X13174151Y-12556984D02*
X13155103Y-12566508D01*
X13155103Y-12566508D02*
X13145579Y-12576031D01*
X13145579Y-12576031D02*
X13126532Y-12604603D01*
X13126532Y-12604603D02*
X13117008Y-12642698D01*
X13117008Y-12642698D02*
X13117008Y-12718888D01*
X13117008Y-12718888D02*
X13126532Y-12737936D01*
X13126532Y-12737936D02*
X13136055Y-12747460D01*
X13136055Y-12747460D02*
X13155103Y-12756984D01*
X13155103Y-12756984D02*
X13193198Y-12756984D01*
X13193198Y-12756984D02*
X13212246Y-12747460D01*
X13212246Y-12747460D02*
X13221770Y-12737936D01*
X13221770Y-12737936D02*
X13231294Y-12718888D01*
X13231294Y-12718888D02*
X13231294Y-12671269D01*
X13231294Y-12671269D02*
X13221770Y-12652222D01*
X13221770Y-12652222D02*
X13212246Y-12642698D01*
X13212246Y-12642698D02*
X13193198Y-12633174D01*
X13193198Y-12633174D02*
X13155103Y-12633174D01*
X13155103Y-12633174D02*
X13136055Y-12642698D01*
X13136055Y-12642698D02*
X13126532Y-12652222D01*
X13126532Y-12652222D02*
X13117008Y-12671269D01*
X13326532Y-12756984D02*
X13364627Y-12756984D01*
X13364627Y-12756984D02*
X13383675Y-12747460D01*
X13383675Y-12747460D02*
X13393198Y-12737936D01*
X13393198Y-12737936D02*
X13412246Y-12709365D01*
X13412246Y-12709365D02*
X13421770Y-12671269D01*
X13421770Y-12671269D02*
X13421770Y-12595079D01*
X13421770Y-12595079D02*
X13412246Y-12576031D01*
X13412246Y-12576031D02*
X13402722Y-12566508D01*
X13402722Y-12566508D02*
X13383675Y-12556984D01*
X13383675Y-12556984D02*
X13345579Y-12556984D01*
X13345579Y-12556984D02*
X13326532Y-12566508D01*
X13326532Y-12566508D02*
X13317008Y-12576031D01*
X13317008Y-12576031D02*
X13307484Y-12595079D01*
X13307484Y-12595079D02*
X13307484Y-12642698D01*
X13307484Y-12642698D02*
X13317008Y-12661746D01*
X13317008Y-12661746D02*
X13326532Y-12671269D01*
X13326532Y-12671269D02*
X13345579Y-12680793D01*
X13345579Y-12680793D02*
X13383675Y-12680793D01*
X13383675Y-12680793D02*
X13402722Y-12671269D01*
X13402722Y-12671269D02*
X13412246Y-12661746D01*
X13412246Y-12661746D02*
X13421770Y-12642698D01*
X13497960Y-12556984D02*
X13497960Y-12595079D01*
X13574151Y-12556984D02*
X13574151Y-12595079D01*
X13869389Y-12833174D02*
X13859865Y-12823650D01*
X13859865Y-12823650D02*
X13840817Y-12795079D01*
X13840817Y-12795079D02*
X13831294Y-12776031D01*
X13831294Y-12776031D02*
X13821770Y-12747460D01*
X13821770Y-12747460D02*
X13812246Y-12699841D01*
X13812246Y-12699841D02*
X13812246Y-12661746D01*
X13812246Y-12661746D02*
X13821770Y-12614127D01*
X13821770Y-12614127D02*
X13831294Y-12585555D01*
X13831294Y-12585555D02*
X13840817Y-12566508D01*
X13840817Y-12566508D02*
X13859865Y-12537936D01*
X13859865Y-12537936D02*
X13869389Y-12528412D01*
X14031294Y-12623650D02*
X14031294Y-12756984D01*
X13983675Y-12547460D02*
X13936056Y-12690317D01*
X13936056Y-12690317D02*
X14059865Y-12690317D01*
X14288437Y-12756984D02*
X14288437Y-12556984D01*
X14374151Y-12756984D02*
X14374151Y-12652222D01*
X14374151Y-12652222D02*
X14364627Y-12633174D01*
X14364627Y-12633174D02*
X14345579Y-12623650D01*
X14345579Y-12623650D02*
X14317008Y-12623650D01*
X14317008Y-12623650D02*
X14297960Y-12633174D01*
X14297960Y-12633174D02*
X14288437Y-12642698D01*
X14497960Y-12756984D02*
X14478913Y-12747460D01*
X14478913Y-12747460D02*
X14469389Y-12737936D01*
X14469389Y-12737936D02*
X14459865Y-12718888D01*
X14459865Y-12718888D02*
X14459865Y-12661746D01*
X14459865Y-12661746D02*
X14469389Y-12642698D01*
X14469389Y-12642698D02*
X14478913Y-12633174D01*
X14478913Y-12633174D02*
X14497960Y-12623650D01*
X14497960Y-12623650D02*
X14526532Y-12623650D01*
X14526532Y-12623650D02*
X14545579Y-12633174D01*
X14545579Y-12633174D02*
X14555103Y-12642698D01*
X14555103Y-12642698D02*
X14564627Y-12661746D01*
X14564627Y-12661746D02*
X14564627Y-12718888D01*
X14564627Y-12718888D02*
X14555103Y-12737936D01*
X14555103Y-12737936D02*
X14545579Y-12747460D01*
X14545579Y-12747460D02*
X14526532Y-12756984D01*
X14526532Y-12756984D02*
X14497960Y-12756984D01*
X14678913Y-12756984D02*
X14659865Y-12747460D01*
X14659865Y-12747460D02*
X14650341Y-12728412D01*
X14650341Y-12728412D02*
X14650341Y-12556984D01*
X14831294Y-12747460D02*
X14812246Y-12756984D01*
X14812246Y-12756984D02*
X14774151Y-12756984D01*
X14774151Y-12756984D02*
X14755103Y-12747460D01*
X14755103Y-12747460D02*
X14745579Y-12728412D01*
X14745579Y-12728412D02*
X14745579Y-12652222D01*
X14745579Y-12652222D02*
X14755103Y-12633174D01*
X14755103Y-12633174D02*
X14774151Y-12623650D01*
X14774151Y-12623650D02*
X14812246Y-12623650D01*
X14812246Y-12623650D02*
X14831294Y-12633174D01*
X14831294Y-12633174D02*
X14840818Y-12652222D01*
X14840818Y-12652222D02*
X14840818Y-12671269D01*
X14840818Y-12671269D02*
X14745579Y-12690317D01*
X14917008Y-12747460D02*
X14936056Y-12756984D01*
X14936056Y-12756984D02*
X14974151Y-12756984D01*
X14974151Y-12756984D02*
X14993199Y-12747460D01*
X14993199Y-12747460D02*
X15002722Y-12728412D01*
X15002722Y-12728412D02*
X15002722Y-12718888D01*
X15002722Y-12718888D02*
X14993199Y-12699841D01*
X14993199Y-12699841D02*
X14974151Y-12690317D01*
X14974151Y-12690317D02*
X14945579Y-12690317D01*
X14945579Y-12690317D02*
X14926532Y-12680793D01*
X14926532Y-12680793D02*
X14917008Y-12661746D01*
X14917008Y-12661746D02*
X14917008Y-12652222D01*
X14917008Y-12652222D02*
X14926532Y-12633174D01*
X14926532Y-12633174D02*
X14945579Y-12623650D01*
X14945579Y-12623650D02*
X14974151Y-12623650D01*
X14974151Y-12623650D02*
X14993199Y-12633174D01*
X15069389Y-12833174D02*
X15078913Y-12823650D01*
X15078913Y-12823650D02*
X15097960Y-12795079D01*
X15097960Y-12795079D02*
X15107484Y-12776031D01*
X15107484Y-12776031D02*
X15117008Y-12747460D01*
X15117008Y-12747460D02*
X15126532Y-12699841D01*
X15126532Y-12699841D02*
X15126532Y-12661746D01*
X15126532Y-12661746D02*
X15117008Y-12614127D01*
X15117008Y-12614127D02*
X15107484Y-12585555D01*
X15107484Y-12585555D02*
X15097960Y-12566508D01*
X15097960Y-12566508D02*
X15078913Y-12537936D01*
X15078913Y-12537936D02*
X15069389Y-12528412D01*
X15431294Y-12833174D02*
X15421770Y-12823650D01*
X15421770Y-12823650D02*
X15402722Y-12795079D01*
X15402722Y-12795079D02*
X15393199Y-12776031D01*
X15393199Y-12776031D02*
X15383675Y-12747460D01*
X15383675Y-12747460D02*
X15374151Y-12699841D01*
X15374151Y-12699841D02*
X15374151Y-12661746D01*
X15374151Y-12661746D02*
X15383675Y-12614127D01*
X15383675Y-12614127D02*
X15393199Y-12585555D01*
X15393199Y-12585555D02*
X15402722Y-12566508D01*
X15402722Y-12566508D02*
X15421770Y-12537936D01*
X15421770Y-12537936D02*
X15431294Y-12528412D01*
X15507484Y-12623650D02*
X15507484Y-12756984D01*
X15507484Y-12642698D02*
X15517008Y-12633174D01*
X15517008Y-12633174D02*
X15536056Y-12623650D01*
X15536056Y-12623650D02*
X15564627Y-12623650D01*
X15564627Y-12623650D02*
X15583675Y-12633174D01*
X15583675Y-12633174D02*
X15593199Y-12652222D01*
X15593199Y-12652222D02*
X15593199Y-12756984D01*
X15717008Y-12756984D02*
X15697960Y-12747460D01*
X15697960Y-12747460D02*
X15688437Y-12737936D01*
X15688437Y-12737936D02*
X15678913Y-12718888D01*
X15678913Y-12718888D02*
X15678913Y-12661746D01*
X15678913Y-12661746D02*
X15688437Y-12642698D01*
X15688437Y-12642698D02*
X15697960Y-12633174D01*
X15697960Y-12633174D02*
X15717008Y-12623650D01*
X15717008Y-12623650D02*
X15745580Y-12623650D01*
X15745580Y-12623650D02*
X15764627Y-12633174D01*
X15764627Y-12633174D02*
X15774151Y-12642698D01*
X15774151Y-12642698D02*
X15783675Y-12661746D01*
X15783675Y-12661746D02*
X15783675Y-12718888D01*
X15783675Y-12718888D02*
X15774151Y-12737936D01*
X15774151Y-12737936D02*
X15764627Y-12747460D01*
X15764627Y-12747460D02*
X15745580Y-12756984D01*
X15745580Y-12756984D02*
X15717008Y-12756984D01*
X15840818Y-12623650D02*
X15917008Y-12623650D01*
X15869389Y-12556984D02*
X15869389Y-12728412D01*
X15869389Y-12728412D02*
X15878913Y-12747460D01*
X15878913Y-12747460D02*
X15897960Y-12756984D01*
X15897960Y-12756984D02*
X15917008Y-12756984D01*
X16136056Y-12623650D02*
X16136056Y-12823650D01*
X16136056Y-12633174D02*
X16155103Y-12623650D01*
X16155103Y-12623650D02*
X16193199Y-12623650D01*
X16193199Y-12623650D02*
X16212246Y-12633174D01*
X16212246Y-12633174D02*
X16221770Y-12642698D01*
X16221770Y-12642698D02*
X16231294Y-12661746D01*
X16231294Y-12661746D02*
X16231294Y-12718888D01*
X16231294Y-12718888D02*
X16221770Y-12737936D01*
X16221770Y-12737936D02*
X16212246Y-12747460D01*
X16212246Y-12747460D02*
X16193199Y-12756984D01*
X16193199Y-12756984D02*
X16155103Y-12756984D01*
X16155103Y-12756984D02*
X16136056Y-12747460D01*
X16345580Y-12756984D02*
X16326532Y-12747460D01*
X16326532Y-12747460D02*
X16317008Y-12728412D01*
X16317008Y-12728412D02*
X16317008Y-12556984D01*
X16507484Y-12756984D02*
X16507484Y-12652222D01*
X16507484Y-12652222D02*
X16497961Y-12633174D01*
X16497961Y-12633174D02*
X16478913Y-12623650D01*
X16478913Y-12623650D02*
X16440818Y-12623650D01*
X16440818Y-12623650D02*
X16421770Y-12633174D01*
X16507484Y-12747460D02*
X16488437Y-12756984D01*
X16488437Y-12756984D02*
X16440818Y-12756984D01*
X16440818Y-12756984D02*
X16421770Y-12747460D01*
X16421770Y-12747460D02*
X16412246Y-12728412D01*
X16412246Y-12728412D02*
X16412246Y-12709365D01*
X16412246Y-12709365D02*
X16421770Y-12690317D01*
X16421770Y-12690317D02*
X16440818Y-12680793D01*
X16440818Y-12680793D02*
X16488437Y-12680793D01*
X16488437Y-12680793D02*
X16507484Y-12671269D01*
X16574151Y-12623650D02*
X16650341Y-12623650D01*
X16602722Y-12556984D02*
X16602722Y-12728412D01*
X16602722Y-12728412D02*
X16612246Y-12747460D01*
X16612246Y-12747460D02*
X16631294Y-12756984D01*
X16631294Y-12756984D02*
X16650341Y-12756984D01*
X16793199Y-12747460D02*
X16774151Y-12756984D01*
X16774151Y-12756984D02*
X16736056Y-12756984D01*
X16736056Y-12756984D02*
X16717008Y-12747460D01*
X16717008Y-12747460D02*
X16707484Y-12728412D01*
X16707484Y-12728412D02*
X16707484Y-12652222D01*
X16707484Y-12652222D02*
X16717008Y-12633174D01*
X16717008Y-12633174D02*
X16736056Y-12623650D01*
X16736056Y-12623650D02*
X16774151Y-12623650D01*
X16774151Y-12623650D02*
X16793199Y-12633174D01*
X16793199Y-12633174D02*
X16802723Y-12652222D01*
X16802723Y-12652222D02*
X16802723Y-12671269D01*
X16802723Y-12671269D02*
X16707484Y-12690317D01*
X16974151Y-12756984D02*
X16974151Y-12556984D01*
X16974151Y-12747460D02*
X16955104Y-12756984D01*
X16955104Y-12756984D02*
X16917008Y-12756984D01*
X16917008Y-12756984D02*
X16897961Y-12747460D01*
X16897961Y-12747460D02*
X16888437Y-12737936D01*
X16888437Y-12737936D02*
X16878913Y-12718888D01*
X16878913Y-12718888D02*
X16878913Y-12661746D01*
X16878913Y-12661746D02*
X16888437Y-12642698D01*
X16888437Y-12642698D02*
X16897961Y-12633174D01*
X16897961Y-12633174D02*
X16917008Y-12623650D01*
X16917008Y-12623650D02*
X16955104Y-12623650D01*
X16955104Y-12623650D02*
X16974151Y-12633174D01*
X17050342Y-12833174D02*
X17059865Y-12823650D01*
X17059865Y-12823650D02*
X17078913Y-12795079D01*
X17078913Y-12795079D02*
X17088437Y-12776031D01*
X17088437Y-12776031D02*
X17097961Y-12747460D01*
X17097961Y-12747460D02*
X17107484Y-12699841D01*
X17107484Y-12699841D02*
X17107484Y-12661746D01*
X17107484Y-12661746D02*
X17097961Y-12614127D01*
X17097961Y-12614127D02*
X17088437Y-12585555D01*
X17088437Y-12585555D02*
X17078913Y-12566508D01*
X17078913Y-12566508D02*
X17059865Y-12537936D01*
X17059865Y-12537936D02*
X17050342Y-12528412D01*
M02*
