%TF.GenerationSoftware,KiCad,Pcbnew,7.0.8*%
%TF.CreationDate,2023-11-11T12:02:15+01:00*%
%TF.ProjectId,Rhapsody_IQ,52686170-736f-4647-995f-49512e6b6963,rev?*%
%TF.SameCoordinates,Original*%
%TF.FileFunction,Profile,NP*%
%FSLAX46Y46*%
G04 Gerber Fmt 4.6, Leading zero omitted, Abs format (unit mm)*
G04 Created by KiCad (PCBNEW 7.0.8) date 2023-11-11 12:02:15*
%MOMM*%
%LPD*%
G01*
G04 APERTURE LIST*
%TA.AperFunction,Profile*%
%ADD10C,0.100000*%
%TD*%
G04 APERTURE END LIST*
D10*
X116956000Y-111805000D02*
X106041262Y-111760000D01*
X193170739Y-108712000D02*
X193167000Y-31624869D01*
X190122739Y-111760039D02*
G75*
G03*
X193170739Y-108712000I-39J3048039D01*
G01*
X193167031Y-31624869D02*
G75*
G03*
X190119000Y-28576869I-3048031J-31D01*
G01*
X106041261Y-28573061D02*
G75*
G03*
X102993261Y-31621130I39J-3048039D01*
G01*
X151256000Y-111805000D02*
X190122739Y-111760000D01*
X102993300Y-108712000D02*
G75*
G03*
X106041262Y-111760000I3048000J0D01*
G01*
X102993262Y-108712000D02*
X102993261Y-31621130D01*
X102993262Y-108712000D02*
X102993262Y-108712000D01*
X190119000Y-28576869D02*
X106041261Y-28573130D01*
%TO.C,J501*%
X116956000Y-111805000D02*
X116956000Y-119705000D01*
X116956000Y-119705000D02*
X117456000Y-120205000D01*
X117456000Y-120205000D02*
X127656000Y-120205000D01*
X128156000Y-112755000D02*
X128156000Y-119705000D01*
X128156000Y-119705000D02*
X127656000Y-120205000D01*
X130056000Y-112755000D02*
X130056000Y-119705000D01*
X130056000Y-119705000D02*
X130556000Y-120205000D01*
X130556000Y-120205000D02*
X150756000Y-120205000D01*
X151256000Y-111805000D02*
X151256000Y-119705000D01*
X151256000Y-119705000D02*
X150756000Y-120205000D01*
X130056000Y-112755000D02*
G75*
G03*
X128156000Y-112755000I-950000J0D01*
G01*
%TD*%
M02*
