M48
; DRILL file {KiCad 7.0.8} date sob, 11 lis 2023, 12:02:07
; FORMAT={-:-/ absolute / inch / decimal}
; #@! TF.CreationDate,2023-11-11T12:02:07+01:00
; #@! TF.GenerationSoftware,Kicad,Pcbnew,7.0.8
; #@! TF.FileFunction,Plated,1,2,PTH
FMAT,2
INCH
; #@! TA.AperFunction,Plated,PTH,ViaDrill
T1C0.0157
; #@! TA.AperFunction,Plated,PTH,ViaDrill
T2C0.0236
; #@! TA.AperFunction,Plated,PTH,ComponentDrill
T3C0.0300
; #@! TA.AperFunction,Plated,PTH,ViaDrill
T4C0.0315
; #@! TA.AperFunction,Plated,PTH,ViaDrill
T5C0.1260
%
G90
G05
T1
X4.09Y-1.555
X4.09Y-1.6456
X4.09Y-1.7363
X4.09Y-1.8269
X4.09Y-1.9175
X4.09Y-2.0081
X4.09Y-2.0987
X4.09Y-2.1894
X4.09Y-2.28
X4.09Y-2.3706
X4.09Y-2.4613
X4.09Y-2.5519
X4.09Y-2.6425
X4.09Y-2.7331
X4.09Y-2.8237
X4.09Y-2.9144
X4.09Y-3.005
X4.09Y-3.0956
X4.09Y-3.1862
X4.09Y-3.2769
X4.09Y-3.3675
X4.09Y-3.4581
X4.09Y-3.5488
X4.09Y-3.6394
X4.09Y-3.73
X4.09Y-3.8206
X4.09Y-3.9112
X4.16Y-2.885
X4.17Y-3.935
X4.185Y-1.7394
X4.185Y-1.83
X4.185Y-1.9206
X4.185Y-2.0112
X4.185Y-2.1019
X4.185Y-2.1925
X4.185Y-2.2831
X4.185Y-2.3737
X4.185Y-2.4644
X4.185Y-2.555
X4.2Y-1.495
X4.2Y-3.015
X4.2Y-3.065
X4.205Y-2.735
X4.205Y-2.885
X4.22Y-3.72
X4.22Y-3.81
X4.225Y-3.995
X4.245Y-3.155
X4.25Y-3.875
X4.255Y-1.685
X4.255Y-2.655
X4.255Y-2.735
X4.27Y-2.885
X4.27Y-4.045
X4.28Y-3.0
X4.285Y-3.285
X4.285Y-3.335
X4.295Y-3.155
X4.295Y-3.205
X4.31Y-3.53
X4.315Y-3.935
X4.32Y-1.625
X4.32Y-2.595
X4.345Y-2.51
X4.345Y-3.465
X4.35Y-2.345
X4.35Y-2.425
X4.355Y-3.73
X4.355Y-3.8
X4.36Y-2.24
X4.37Y-3.0
X4.375Y-3.53
X4.375Y-4.0
X4.38Y-1.57
X4.41Y-2.16
X4.435Y-4.255
X4.44Y-1.275
X4.445Y-1.515
X4.45Y-1.748
X4.45Y-3.62
X4.454Y-1.856
X4.456Y-1.962
X4.46Y-2.25
X4.46Y-2.305
X4.462Y-2.1
X4.475Y-3.73
X4.475Y-3.96
X4.48Y-3.91
X4.485Y-3.27
X4.49Y-2.68
X4.49Y-2.755
X4.49Y-2.825
X4.49Y-2.89
X4.49Y-4.305
X4.495Y-3.015
X4.51Y-1.45
X4.515Y-1.17
X4.515Y-4.14
X4.52Y-2.122
X4.535Y-3.27
X4.535Y-4.36
X4.545Y-3.91
X4.55Y-3.58
X4.55Y-3.635
X4.55Y-3.685
X4.555Y-2.305
X4.555Y-3.465
X4.56Y-2.89
X4.58Y-1.39
X4.59Y-2.562
X4.594Y-2.116
X4.594Y-2.624
X4.595Y-2.41
X4.595Y-2.455
X4.6056Y-1.17
X4.625Y-1.665
X4.625Y-1.765
X4.625Y-1.86
X4.625Y-1.95
X4.625Y-2.06
X4.625Y-2.89
X4.625Y-4.245
X4.63Y-3.18
X4.635Y-3.015
X4.635Y-3.64
X4.635Y-4.16
X4.645Y-1.33
X4.65Y-2.41
X4.65Y-2.455
X4.652Y-2.624
X4.654Y-2.562
X4.66Y-1.575
X4.665Y-3.845
X4.68Y-3.13
X4.695Y-2.12
X4.695Y-4.25
X4.695Y-4.32
X4.695Y-4.435
X4.6963Y-1.17
X4.71Y-1.275
X4.71Y-2.185
X4.715Y-2.255
X4.715Y-2.315
X4.715Y-2.95
X4.725Y-1.495
X4.725Y-2.64
X4.73Y-1.715
X4.73Y-1.955
X4.73Y-3.075
X4.745Y-2.78
X4.75Y-3.23
X4.75Y-3.29
X4.755Y-3.485
X4.76Y-1.6
X4.76Y-4.2136
X4.76Y-4.44
X4.765Y-1.76
X4.765Y-4.15
X4.77Y-2.055
X4.775Y-1.435
X4.78Y-1.955
X4.78Y-2.32
X4.7869Y-1.17
X4.805Y-4.3
X4.81Y-3.075
X4.815Y-2.715
X4.82Y-1.275
X4.825Y-4.44
X4.83Y-1.715
X4.83Y-2.24
X4.83Y-2.54
X4.835Y-3.17
X4.84Y-1.375
X4.84Y-1.525
X4.85Y-4.21
X4.865Y-2.485
X4.87Y-3.63
X4.8775Y-1.17
X4.88Y-3.075
X4.885Y-2.8
X4.885Y-4.445
X4.89Y-1.9
X4.89Y-1.955
X4.9Y-2.32
X4.9Y-2.535
X4.905Y-3.585
X4.91Y-3.17
X4.92Y-2.895
X4.92Y-3.47
X4.935Y-2.14
X4.935Y-4.475
X4.94Y-1.27
X4.94Y-4.265
X4.955Y-3.63
X4.96Y-1.555
X4.96Y-1.645
X4.965Y-1.93
X4.9681Y-1.17
X4.97Y-2.485
X4.97Y-2.535
X4.97Y-4.225
X4.97Y-4.315
X4.975Y-3.075
X4.98Y-2.895
X4.98Y-3.825
X4.98Y-4.435
X4.985Y-2.8
X4.99Y-2.235
X4.99Y-4.12
X5.015Y-1.78
X5.015Y-2.665
X5.015Y-4.405
X5.0228Y-4.2026
X5.025Y-1.475
X5.0275Y-4.3375
X5.038Y-2.112
X5.04Y-2.38
X5.045Y-1.925
X5.058Y-1.724
X5.0587Y-1.17
X5.06Y-2.895
X5.06Y-3.515
X5.0639Y-4.2235
X5.065Y-3.075
X5.065Y-3.6
X5.07Y-1.665
X5.07Y-3.675
X5.07Y-3.75
X5.07Y-3.825
X5.07Y-3.9
X5.07Y-3.975
X5.08Y-2.238
X5.09Y-1.47
X5.09Y-2.8
X5.114Y-2.108
X5.12Y-1.32
X5.1375Y-1.925
X5.138Y-3.748
X5.14Y-3.075
X5.145Y-1.47
X5.145Y-3.305
X5.1494Y-1.17
X5.1505Y-4.3101
X5.155Y-2.24
X5.155Y-3.355
X5.1575Y-3.8819
X5.1575Y-3.9528
X5.1575Y-4.0394
X5.158Y-1.72
X5.16Y-1.785
X5.165Y-1.66
X5.165Y-4.19
X5.185Y-2.8
X5.185Y-3.4
X5.19Y-3.325
X5.205Y-2.375
X5.205Y-4.23
X5.2165Y-3.9803
X5.2165Y-4.0472
X5.22Y-3.44
X5.23Y-1.925
X5.23Y-3.075
X5.2323Y-4.3819
X5.24Y-1.17
X5.248Y-1.422
X5.2638Y-3.98
X5.2638Y-4.0472
X5.265Y-1.347
X5.2795Y-2.3071
X5.2795Y-3.8661
X5.28Y-2.035
X5.28Y-2.15
X5.28Y-2.255
X5.2817Y-1.258
X5.285Y-1.5
X5.285Y-1.66
X5.285Y-1.77
X5.29Y-3.435
X5.294Y-4.298
X5.31Y-1.42
X5.31Y-3.71
X5.315Y-2.865
X5.32Y-2.925
X5.3225Y-1.925
X5.325Y-3.12
X5.33Y-4.19
X5.3306Y-1.17
X5.335Y-2.53
X5.3386Y-3.8661
X5.345Y-4.38
X5.35Y-3.41
X5.355Y-3.3
X5.355Y-3.735
X5.362Y-4.296
X5.365Y-3.98
X5.3724Y-1.258
X5.38Y-1.42
X5.38Y-3.12
X5.382Y-2.3725
X5.39Y-3.445
X5.4Y-1.66
X5.4Y-4.19
X5.41Y-1.342
X5.41Y-2.06
X5.41Y-2.115
X5.41Y-2.245
X5.41Y-2.31
X5.415Y-1.77
X5.415Y-1.84
X5.415Y-1.925
X5.42Y-1.53
X5.4212Y-1.17
X5.425Y-3.25
X5.425Y-3.705
X5.426Y-4.296
X5.43Y-4.38
X5.432Y-4.476
X5.435Y-2.965
X5.44Y-3.055
X5.45Y-2.085
X5.45Y-2.375
X5.45Y-4.005
X5.455Y-1.81
X5.463Y-1.258
X5.47Y-3.755
X5.475Y-3.43
X5.49Y-1.53
X5.49Y-2.06
X5.49Y-2.115
X5.495Y-1.765
X5.495Y-2.245
X5.495Y-2.295
X5.495Y-2.345
X5.495Y-2.98
X5.498Y-4.296
X5.5Y-1.84
X5.5Y-3.12
X5.505Y-1.66
X5.51Y-4.38
X5.5119Y-1.17
X5.515Y-2.555
X5.528Y-4.434
X5.53Y-1.42
X5.535Y-1.342
X5.54Y-2.79
X5.55Y-3.275
X5.5536Y-1.258
X5.56Y-3.12
X5.5709Y-1.9094
X5.5748Y-2.1496
X5.585Y-1.42
X5.585Y-4.165
X5.5866Y-2.374
X5.59Y-3.92
X5.59Y-4.38
X5.5906Y-1.6535
X5.595Y-3.275
X5.595Y-3.59
X5.595Y-3.66
X5.595Y-3.74
X5.595Y-3.805
X5.595Y-4.274
X5.6025Y-1.17
X5.617Y-2.1752
X5.62Y-2.585
X5.6201Y-2.2244
X5.624Y-1.586
X5.625Y-2.31
X5.63Y-1.5
X5.6442Y-1.258
X5.655Y-2.7
X5.655Y-2.775
X5.655Y-2.855
X5.655Y-3.91
X5.6594Y-1.9193
X5.66Y-1.342
X5.665Y-3.37
X5.665Y-4.125
X5.6693Y-1.4183
X5.67Y-3.045
X5.6732Y-2.374
X5.6736Y-4.27
X5.675Y-4.38
X5.6772Y-2.1496
X5.69Y-3.585
X5.6931Y-1.17
X5.7Y-3.115
X5.7Y-3.165
X5.7Y-3.755
X5.715Y-3.475
X5.715Y-4.02
X5.7274Y-1.4203
X5.73Y-2.775
X5.7349Y-1.258
X5.7379Y-4.265
X5.74Y-2.585
X5.748Y-1.6063
X5.748Y-1.9685
X5.748Y-2.0276
X5.748Y-2.2126
X5.752Y-2.2953
X5.757Y-4.3815
X5.7598Y-1.7362
X5.76Y-4.125
X5.767Y-1.777
X5.768Y-1.528
X5.77Y-3.37
X5.77Y-3.91
X5.772Y-1.87
X5.775Y-2.134
X5.775Y-3.205
X5.7756Y-1.6378
X5.7776Y-1.9193
X5.78Y-2.775
X5.7837Y-1.17
X5.785Y-3.755
X5.79Y-3.045
X5.79Y-3.585
X5.8Y-1.342
X5.8021Y-4.265
X5.811Y-1.6024
X5.815Y-1.6654
X5.8179Y-1.4232
X5.8255Y-1.258
X5.84Y-2.775
X5.852Y-2.466
X5.8583Y-1.6969
X5.8583Y-1.748
X5.8664Y-4.265
X5.868Y-1.524
X5.87Y-3.755
X5.8744Y-1.17
X5.875Y-3.47
X5.875Y-4.015
X5.88Y-2.034
X5.8867Y-3.205
X5.8875Y-4.365
X5.9Y-3.105
X5.91Y-2.92
X5.9161Y-1.258
X5.92Y-2.412
X5.92Y-3.005
X5.93Y-3.64
X5.93Y-3.865
X5.9307Y-4.265
X5.935Y-3.315
X5.94Y-1.342
X5.955Y-3.755
X5.965Y-1.17
X5.9781Y-4.365
X5.98Y-2.92
X5.9843Y-1.752
X5.995Y-4.265
X5.9983Y-3.205
X6.0039Y-1.5995
X6.005Y-2.035
X6.005Y-2.64
X6.0068Y-1.258
X6.01Y-1.924
X6.0183Y-3.005
X6.0197Y-1.6654
X6.025Y-2.24
X6.025Y-3.105
X6.035Y-2.47
X6.035Y-4.015
X6.04Y-3.475
X6.045Y-3.72
X6.045Y-3.775
X6.055Y-1.36
X6.055Y-2.92
X6.0556Y-1.17
X6.0593Y-4.265
X6.06Y-1.54
X6.0687Y-4.365
X6.072Y-1.778
X6.072Y-2.236
X6.08Y-1.864
X6.085Y-2.425
X6.094Y-1.576
X6.0974Y-1.258
X6.105Y-3.72
X6.105Y-3.775
X6.11Y-3.205
X6.115Y-2.035
X6.1167Y-3.005
X6.12Y-3.105
X6.1236Y-4.265
X6.1299Y-3.9055
X6.1299Y-4.1161
X6.13Y-1.608
X6.13Y-2.69
X6.13Y-2.825
X6.1339Y-4.0118
X6.135Y-2.37
X6.1457Y-3.7559
X6.1463Y-1.17
X6.155Y-1.46
X6.155Y-3.315
X6.155Y-3.42
X6.155Y-3.545
X6.155Y-3.64
X6.1594Y-4.365
X6.16Y-2.166
X6.162Y-1.642
X6.17Y-1.897
X6.18Y-2.76
X6.185Y-3.7244
X6.185Y-3.7913
X6.188Y-1.258
X6.19Y-2.52
X6.194Y-1.672
X6.1999Y-1.9455
X6.2037Y-2.2461
X6.208Y-1.326
X6.2126Y-3.0433
X6.2205Y-4.2675
X6.222Y-1.702
X6.2225Y-2.4012
X6.23Y-1.54
X6.2352Y-2.1969
X6.2369Y-1.17
X6.25Y-4.365
X6.252Y-1.73
X6.2638Y-2.96
X6.264Y-1.374
X6.2697Y-4.1171
X6.275Y-2.62
X6.275Y-3.85
X6.275Y-3.93
X6.2795Y-3.4764
X6.28Y-2.52
X6.28Y-3.42
X6.28Y-3.54
X6.28Y-3.64
X6.2815Y-4.1841
X6.284Y-1.762
X6.285Y-3.315
X6.3031Y-4.2675
X6.306Y-1.416
X6.3124Y-2.2618
X6.315Y-1.615
X6.3189Y-3.0315
X6.32Y-1.79
X6.32Y-2.464
X6.324Y-2.9773
X6.3268Y-2.2018
X6.3268Y-3.0758
X6.3275Y-1.17
X6.335Y-3.795
X6.335Y-3.885
X6.3406Y-4.365
X6.35Y-1.458
X6.3583Y-4.2638
X6.3609Y-4.1995
X6.3665Y-1.24
X6.373Y-4.1329
X6.3812Y-3.0256
X6.3819Y-3.9744
X6.388Y-1.862
X6.398Y-2.458
X6.4Y-1.685
X6.4Y-2.61
X6.4181Y-1.17
X6.4213Y-4.2638
X6.4312Y-4.365
X6.434Y-2.8046
X6.442Y-2.744
X6.446Y-1.474
X6.452Y-1.912
X6.454Y-2.208
X6.455Y-1.24
X6.4551Y-1.7905
X6.47Y-2.44
X6.475Y-3.3
X6.475Y-3.3617
X6.475Y-3.4233
X6.475Y-3.485
X6.475Y-3.555
X6.475Y-3.6167
X6.475Y-3.6783
X6.475Y-3.74
X6.475Y-3.81
X6.475Y-3.8717
X6.475Y-3.9333
X6.475Y-3.995
X6.475Y-4.06
X6.475Y-4.1217
X6.475Y-4.1833
X6.475Y-4.245
X6.4793Y-2.9577
X6.48Y-1.685
X6.4843Y-3.0394
X6.49Y-2.674
X6.496Y-2.406
X6.4961Y-2.7835
X6.5088Y-1.17
X6.515Y-1.415
X6.515Y-1.48
X6.52Y-1.96
X6.5219Y-4.365
X6.53Y-2.985
X6.5367Y-3.23
X6.54Y-2.23
X6.5404Y-2.1555
X6.5456Y-1.24
X6.552Y-2.672
X6.558Y-2.796
X6.574Y-1.962
X6.58Y-2.325
X6.5974Y-1.3543
X6.5983Y-3.23
X6.5994Y-1.17
X6.6125Y-4.365
X6.614Y-2.404
X6.6362Y-1.24
X6.64Y-4.26
X6.644Y-2.268
X6.66Y-3.23
X6.675Y-3.0
X6.68Y-1.78
X6.68Y-2.875
X6.686Y-1.47
X6.69Y-1.17
X6.695Y-4.215
X6.7Y-1.948
X6.7Y-2.07
X6.7Y-2.205
X6.7Y-2.335
X6.7031Y-4.365
X6.725Y-2.7314
X6.7269Y-1.24
X6.74Y-4.155
X6.745Y-2.8
X6.745Y-3.6
X6.748Y-1.784
X6.7806Y-1.17
X6.7938Y-4.365
X6.795Y-2.7314
X6.795Y-3.005
X6.795Y-3.085
X6.805Y-3.6
X6.805Y-4.095
X6.815Y-2.135
X6.82Y-1.24
X6.82Y-2.25
X6.825Y-2.88
X6.83Y-2.405
X6.84Y-2.8
X6.843Y-1.774
X6.86Y-2.44
X6.865Y-3.6
X6.865Y-4.035
X6.8712Y-1.17
X6.88Y-2.91
X6.8844Y-4.365
X6.886Y-1.968
X6.905Y-2.435
X6.908Y-1.62
X6.915Y-1.245
X6.918Y-1.774
X6.92Y-2.8
X6.925Y-3.965
X6.93Y-3.6
X6.936Y-1.372
X6.94Y-2.945
X6.96Y-2.345
X6.9619Y-1.17
X6.975Y-1.97
X6.975Y-2.04
X6.975Y-2.125
X6.975Y-4.365
X6.9813Y-1.3209
X6.995Y-3.075
X6.995Y-3.15
X6.995Y-3.215
X6.995Y-3.285
X6.995Y-3.6
X6.998Y-1.774
X7.01Y-3.94
X7.0167Y-2.1969
X7.036Y-2.686
X7.048Y-1.248
X7.0525Y-1.17
X7.055Y-2.875
X7.055Y-3.6
X7.0656Y-4.365
X7.088Y-1.774
X7.115Y-3.6
X7.13Y-1.914
X7.1305Y-2.4495
X7.134Y-1.316
X7.1431Y-1.17
X7.155Y-2.16
X7.1562Y-4.365
X7.18Y-3.6
X7.184Y-1.714
X7.19Y-2.94
X7.204Y-1.226
X7.204Y-2.002
X7.21Y-2.84
X7.222Y-1.398
X7.235Y-2.46
X7.24Y-2.33
X7.2469Y-4.365
X7.249Y-1.281
X7.25Y-2.265
X7.26Y-2.94
X7.265Y-2.055
X7.286Y-1.734
X7.3Y-2.835
X7.302Y-1.902
X7.31Y-2.565
X7.31Y-2.605
X7.31Y-2.655
X7.31Y-2.695
X7.325Y-3.075
X7.325Y-3.58
X7.34Y-2.165
X7.34Y-2.33
X7.345Y-2.94
X7.35Y-2.0
X7.35Y-3.245
X7.35Y-3.41
X7.354Y-1.856
X7.38Y-3.075
X7.385Y-3.58
X7.395Y-1.665
X7.395Y-1.735
X7.395Y-1.8
X7.405Y-1.48
X7.405Y-2.33
X7.415Y-2.165
X7.42Y-3.245
X7.425Y-2.0
X7.425Y-2.94
X7.43Y-3.41
X7.435Y-3.075
X7.445Y-3.58
X7.455Y-1.52
X7.465Y-2.33
X7.485Y-2.165
X7.49Y-3.075
X7.495Y-2.0
X7.495Y-3.245
X7.5Y-3.41
X7.51Y-3.58
X7.56Y-1.4856
X7.56Y-1.5762
X7.56Y-1.6669
X7.56Y-1.7575
X7.56Y-1.8481
X7.56Y-1.9387
X7.56Y-2.0294
X7.56Y-2.12
X7.56Y-2.2106
X7.56Y-2.3013
X7.56Y-2.3919
X7.56Y-2.4825
X7.56Y-2.5731
X7.56Y-2.6637
X7.56Y-2.7544
X7.56Y-2.845
X7.56Y-2.9356
X7.56Y-3.0263
X7.56Y-3.1169
X7.56Y-3.2075
X7.56Y-3.2981
X7.56Y-3.3887
X7.56Y-3.4794
X7.56Y-3.57
X7.56Y-3.6606
X7.56Y-3.7512
X7.56Y-3.8419
X7.56Y-3.9325
X7.56Y-4.0231
X7.56Y-4.1137
T2
X4.582Y-3.31
X4.582Y-3.37
X4.975Y-2.42
X6.0925Y-1.9862
X6.402Y-1.52
X6.444Y-1.844
X6.9Y-2.565
X6.928Y-1.432
X7.048Y-1.324
T3
X6.8738Y-3.0
X6.8738Y-3.1181
X6.8738Y-3.2362
X6.8838Y-2.0688
X6.8838Y-2.1869
X6.8838Y-2.305
X7.11Y-3.0
X7.11Y-3.2362
X7.12Y-2.0688
X7.12Y-2.305
T4
X5.26Y-4.115
X5.66Y-2.95
X5.965Y-2.525
X6.05Y-2.305
X6.235Y-2.555
T5
X4.252Y-1.3189
X4.252Y-4.2126
X7.4016Y-1.3189
X7.4016Y-4.2126
T0
M30
